<?xml version="1.0" standalone="no"?><svg xmlns="http://www.w3.org/2000/svg" viewBox="0 0 1440 320"><path fill="#160A2C" fill-opacity="1" d="M0,224L30,234.7C60,245,120,267,180,277.3C240,288,300,288,360,266.7C420,245,480,203,540,181.3C600,160,660,160,720,154.7C780,149,840,139,900,154.7C960,171,1020,213,1080,202.7C1140,192,1200,128,1260,101.3C1320,75,1380,85,1410,90.7L1440,96L1440,0L1410,0C1380,0,1320,0,1260,0C1200,0,1140,0,1080,0C1020,0,960,0,900,0C840,0,780,0,720,0C660,0,600,0,540,0C480,0,420,0,360,0C300,0,240,0,180,0C120,0,60,0,30,0L0,0Z"></path></svg>