<?xml version="1.0" standalone="no"?><svg xmlns="http://www.w3.org/2000/svg" viewBox="0 0 1440 320"><path fill="#0099ff" fill-opacity="1" d="M0,320L18.5,314.7C36.9,309,74,299,111,277.3C147.7,256,185,224,222,197.3C258.5,171,295,149,332,154.7C369.2,160,406,192,443,197.3C480,203,517,181,554,192C590.8,203,628,245,665,261.3C701.5,277,738,267,775,218.7C812.3,171,849,85,886,64C923.1,43,960,85,997,128C1033.8,171,1071,213,1108,218.7C1144.6,224,1182,192,1218,170.7C1255.4,149,1292,139,1329,133.3C1366.2,128,1403,128,1422,128L1440,128L1440,0L1421.5,0C1403.1,0,1366,0,1329,0C1292.3,0,1255,0,1218,0C1181.5,0,1145,0,1108,0C1070.8,0,1034,0,997,0C960,0,923,0,886,0C849.2,0,812,0,775,0C738.5,0,702,0,665,0C627.7,0,591,0,554,0C516.9,0,480,0,443,0C406.2,0,369,0,332,0C295.4,0,258,0,222,0C184.6,0,148,0,111,0C73.8,0,37,0,18,0L0,0Z"></path></svg>