<?xml version="1.0" standalone="no"?><svg xmlns="http://www.w3.org/2000/svg" viewBox="0 0 1440 500"><path fill="#5B2468" fill-opacity="1" d="M0,320L18.5,314.7C36.9,309,74,299,111,277.3C147.7,256,185,224,222,197.3C258.5,171,295,149,332,154.7C369.2,160,406,192,443,197.3C480,203,517,181,554,192C590.8,203,628,245,665,261.3C701.5,277,738,267,775,218.7C812.3,171,849,85,886,64C923.1,43,960,85,997,128C1033.8,171,1071,213,1108,218.7C1144.6,224,1182,192,1218,170.7C1255.4,149,1292,139,1329,133.3C1366.2,128,1403,128,1422,128L1440,128L1440,320L1421.5,320C1403.1,320,1366,320,1329,320C1292.3,320,1255,320,1218,320C1181.5,320,1145,320,1108,320C1070.8,320,1034,320,997,320C960,320,923,320,886,320C849.2,320,812,320,775,320C738.5,320,702,320,665,320C627.7,320,591,320,554,320C516.9,320,480,320,443,320C406.2,320,369,320,332,320C295.4,320,258,320,222,320C184.6,320,148,320,111,320C73.8,320,37,320,18,320L0,320Z"></path></svg>