<svg width="42" height="42" viewBox="0 0 42 42" fill="none" xmlns="http://www.w3.org/2000/svg">
<path d="M36.6842 27.2166C35.8685 26.4866 35.1589 25.6465 34.2699 25.0552C33.5462 24.5643 32.7129 24.259 31.8434 24.1661C29.6167 23.9989 27.3044 24.3537 25.1593 23.8929C22.4457 23.2856 20.0453 21.7128 18.4053 19.4673C16.7652 17.2217 15.9972 14.4566 16.2444 11.6869C16.8153 5.7328 21.5093 1.36915 27.7081 1.03066C34.433 0.659551 39.4818 3.67332 41.215 9.18293C42.3977 12.9471 41.9042 16.5889 39.3391 19.5415C37.7608 21.3563 37.1572 23.1384 37.3856 25.3937C37.3858 25.8615 37.3338 26.328 37.2306 26.7843L36.6842 27.2166ZM35.1508 23.326C36.0561 21.862 36.8187 20.3123 37.8668 18.9869C39.2737 17.2613 40.0616 15.114 40.1044 12.888C40.1473 10.662 39.4428 8.48592 38.1034 6.70748C35.2242 2.84953 31.1256 2.30305 26.7824 2.62931C24.3836 2.79352 22.1251 3.8193 20.4231 5.51756C18.7211 7.21581 17.6903 9.47208 17.5208 11.8704C17.3285 14.2656 18.0239 16.6478 19.4746 18.5633C20.9253 20.4788 23.03 21.7937 25.3876 22.2576C27.1821 22.6277 29.0244 22.7076 30.8442 22.4941C32.6468 22.282 34.2862 21.9966 35.1508 23.326V23.326Z" fill="#EE2970"/>
<path d="M14.0421 38.8721C14.0747 36.78 15.2655 36.7963 16.5869 36.833C18.8951 36.8847 21.2061 36.8847 23.5198 36.833C26.0319 36.78 27.5694 35.2466 27.6469 32.7548C27.6917 31.1929 27.5939 29.6269 27.6999 28.069C27.7325 27.5837 28.2097 27.1229 28.4829 26.6539C28.7969 27.1474 29.3352 27.6245 29.3801 28.1465C29.4763 29.64 29.4885 31.1377 29.4168 32.6325C29.3108 36.0704 27.0555 38.3419 23.5932 38.4031C21.1667 38.4561 18.732 38.4031 16.2035 38.4031L15.9099 42.0001C15.0535 41.5025 14.3031 41.3027 13.9361 40.8133C12.3537 38.6845 10.2943 38.0524 7.73316 38.3134C6.65003 38.4117 5.55895 38.2539 4.54811 37.8526C2.38667 36.9676 1.0368 35.3241 1.02049 32.8609C0.991939 28.7297 0.991939 24.57 1.02864 20.4265C1.00294 19.0142 1.53086 17.6479 2.49952 16.6198C3.46818 15.5917 4.80066 14.9834 6.212 14.9251C8.78533 14.7864 11.375 14.8517 13.9605 14.9251C14.4621 14.9251 14.9515 15.4389 15.4491 15.7162L15.1962 16.4544C12.7738 16.4544 10.3513 16.4544 7.92891 16.4544C3.92822 16.4952 2.57835 17.845 2.57427 21.8743C2.57427 25.2061 2.57427 28.5339 2.57427 31.8658C2.57427 35.4057 4.01387 36.8289 7.49663 36.8412H8.31226C10.3717 36.886 12.5943 36.2988 14.0421 38.8721Z" fill="#EE2970"/>
<path d="M5.59611 25.7772C8.01855 25.7772 10.441 25.7772 12.8593 25.7772C16.0403 25.7772 19.2213 25.7446 22.3982 25.7772C22.8346 25.7772 23.2668 26.185 23.6991 26.393C23.2628 26.707 22.8305 27.2861 22.3941 27.2902C17.1876 27.35 11.9785 27.35 6.76655 27.2902C6.28125 27.2902 5.8041 26.7845 5.32288 26.5113L5.59611 25.7772Z" fill="#EE2970"/>
<path d="M20.6937 30.981C20.3389 31.2583 19.9841 31.7681 19.6252 31.7721C15.2262 31.8347 10.8286 31.8347 6.4323 31.7721C6.10604 31.7721 5.79202 31.2542 5.46985 30.9565C5.73901 30.7241 6.00409 30.2877 6.28548 30.2877C10.9999 30.2469 15.7183 30.2551 20.4327 30.2551L20.6937 30.981Z" fill="#EE2970"/>
<path d="M11.8358 22.9139C10.1474 22.9139 8.45093 22.971 6.76257 22.8772C6.27726 22.8486 5.81235 22.3878 5.33521 22.1268C5.77973 21.8495 6.22017 21.3397 6.66877 21.3111C10.1189 21.2459 13.569 21.2459 17.0192 21.3111C17.5004 21.3111 17.9735 21.7801 18.4506 22.0289C17.9368 22.3185 17.4392 22.8445 16.9091 22.8445C15.2248 22.9791 13.5283 22.9139 11.8358 22.9139Z" fill="#EE2970"/>
<path d="M28.1851 13.8362C28.7887 13.1063 29.4086 12.4334 29.9347 11.7034C30.3751 11.0998 31.0358 10.4147 31.0113 9.78662C31.0113 9.26869 30.1141 8.37965 29.6206 8.38373C28.9967 8.38373 28.3646 9.10964 27.7528 9.55417C27.2961 9.88858 26.8679 10.2678 26.4274 10.6308C26.3826 9.96198 26.0196 8.95467 26.3418 8.68959C27.2838 7.87396 28.4787 6.81771 29.5676 6.82179C30.5545 6.82179 32.0145 7.91882 32.3856 8.86088C32.7567 9.80293 32.3285 11.4179 31.672 12.3151C31.0154 13.2123 29.9877 13.7547 30.1712 15.1209C30.1957 15.3329 29.5635 15.6306 29.2373 15.8876C28.9518 15.3411 28.6663 14.7865 28.1851 13.8362Z" fill="#EE2970"/>
</svg>
