<svg width="42" height="42" viewBox="0 0 42 42" fill="none" xmlns="http://www.w3.org/2000/svg">
<path d="M10.9424 7.94175V32.0038H21.6868L21.8661 32.5528C21.5524 32.7656 21.2424 33.154 20.9249 33.1578C17.1903 33.2026 13.4782 33.1876 9.61658 33.1876V2H35.5235C35.6237 2.31172 35.6888 2.63364 35.7177 2.95979C35.7364 8.06125 35.755 13.1627 35.7177 18.2716C35.7177 18.7347 35.2509 19.1978 35.0006 19.6609C34.799 19.209 34.4367 18.7609 34.4293 18.309C34.3807 14.8993 34.4031 11.4896 34.4031 7.94922L10.9424 7.94175ZM10.9424 6.50766H34.2126V3.35566H10.9685L10.9424 6.50766Z" fill="#EE2970"/>
<path d="M27.0011 22.2301C27.239 22.3045 27.4722 22.393 27.6995 22.4953C29.0402 23.1525 30.0187 22.8239 30.4668 21.3749C30.7992 20.3479 31.4826 20.1611 32.4499 20.1611C33.4172 20.1611 34.0782 20.4039 34.3881 21.4346C34.8027 22.8164 35.7737 23.1376 37.0024 22.4467C37.8912 21.95 38.4663 22.2114 39.0751 22.9173C39.6838 23.6231 40.3747 24.0638 39.7361 25.1244C38.9518 26.4353 39.4373 27.4473 40.8303 27.8469C41.9806 28.1756 41.9507 28.93 41.9955 29.8412C42.0403 30.7525 41.7528 31.3351 40.8191 31.6151C39.3552 32.0521 39.161 32.9745 39.6614 34.375C39.8593 34.9277 39.5643 35.9137 39.1348 36.3581C38.7053 36.8025 37.697 37.1648 37.1592 36.9706C35.6654 36.429 34.8886 36.7241 34.2388 38.1843C34.011 38.6885 33.0362 39.1105 32.4051 39.1105C31.7739 39.1105 30.7768 38.6847 30.5676 38.1843C29.9402 36.6905 29.156 36.3954 27.6659 36.9556C27.1318 37.1573 26.1272 36.8174 25.6903 36.373C25.2533 35.9286 24.9434 34.9427 25.1376 34.39C25.6753 32.8961 25.2907 32.1044 23.8491 31.4844C23.3636 31.2753 22.8818 30.3939 22.9043 29.8375C22.9304 29.2026 23.3674 28.2727 23.8902 28.0225C25.2869 27.354 25.7836 26.5958 25.0853 25.1057C24.5811 24.0264 25.9106 22.1554 27.0011 22.2301ZM38.0144 35.3348C38.0979 35.2163 38.156 35.0818 38.1849 34.9397C38.2138 34.7977 38.213 34.6512 38.1825 34.5095C37.4953 32.6646 38.1526 31.4658 39.7697 30.5769C40.1058 30.3902 40.539 30.0279 40.5577 29.7217C40.5764 29.4155 40.1021 29.098 39.766 28.9113C38.2983 28.1009 37.7418 26.7527 38.2049 25.1319C38.3251 24.7553 38.3106 24.3487 38.1638 23.9816C38.0817 23.8285 37.4692 23.8173 37.1667 23.9293C35.3405 24.6016 34.0931 23.9704 33.2566 22.3048C32.7935 21.3786 32.237 21.1097 31.7254 22.2152C30.8739 24.0563 29.5855 24.5829 27.6696 23.8957C26.6949 23.5447 26.2094 23.9331 26.6277 25.0385C27.3073 26.8386 26.7061 28.1158 24.9807 28.9076C23.8939 29.4043 24.0321 30.0578 24.9508 30.4686C26.8405 31.3164 27.2625 32.616 26.594 34.4983C26.2206 35.5066 26.6314 35.8838 27.7368 35.5552C29.5481 35.0136 30.7469 35.5813 31.6171 37.1797C31.8547 37.4948 32.1364 37.774 32.4536 38.0088C32.6852 37.7511 32.9092 37.4859 33.152 37.2395C33.6786 36.7054 34.1305 35.9548 34.7728 35.7008C35.5907 35.3834 36.5617 35.473 38.0219 35.3348H38.0144Z" fill="#EE2970"/>
<path d="M19.9353 18.4883C17.5489 18.7535 18.9307 16.9123 18.1053 16.0795H16.1895C16.2051 16.6322 16.1664 17.1851 16.0737 17.7302C15.9916 18.0476 15.6218 18.2867 15.3791 18.5593C15.1625 18.2642 14.7741 17.9804 14.7554 17.6742C14.6807 16.5015 14.6919 15.3214 14.7293 14.145C14.789 12.3337 15.6442 11.5308 17.3846 11.5308C19.1249 11.5308 19.8942 12.3561 19.9278 14.2234C19.954 15.5977 19.9353 16.9534 19.9353 18.4883ZM18.5498 14.3429L18.8336 13.7977C18.3556 13.5064 17.8701 12.9835 17.407 12.9985C16.9439 13.0134 16.5331 13.5923 16.0999 13.9209C16.2156 14.0628 16.3277 14.2047 16.4434 14.3429H18.5498Z" fill="#EE2970"/>
<path d="M22.5831 15.7394C22.59 16.4584 22.5488 17.177 22.4599 17.8905C22.4086 18.0396 22.3204 18.1733 22.2035 18.2791C22.0866 18.3849 21.9448 18.4594 21.7914 18.4956C21.6402 18.4523 21.5027 18.3708 21.3921 18.259C21.2816 18.1471 21.2017 18.0087 21.1602 17.8569C21.108 16.0681 21.1229 14.2792 21.1602 12.4866C21.1602 12.2625 21.3096 11.848 21.403 11.8442C22.6578 11.7957 23.9836 11.5604 25.1376 11.9002C25.6866 12.0608 26.258 13.3493 26.2132 14.0999C26.1459 15.5153 24.9285 15.7021 23.7297 15.6535C23.4159 15.6423 23.1135 15.6983 22.5831 15.7394Z" fill="#EE2970"/>
<path d="M30.3623 18.4992H28.0095V11.6499H30.3623C30.127 12.845 29.7461 13.928 29.7424 15.011C29.7386 16.0941 30.1196 17.2033 30.3623 18.4992Z" fill="#EE2970"/>
<path d="M13.4334 38.3526C12.3877 38.3526 11.3345 38.3899 10.2926 38.3227C10.0386 38.3227 9.80707 37.9493 9.56805 37.7289C9.81827 37.4675 10.061 36.982 10.315 36.982C12.4101 36.9222 14.5052 36.9297 16.6003 36.982C16.8505 36.982 17.0895 37.3555 17.3472 37.5758C17.097 37.8372 16.858 38.2966 16.6003 38.3227C15.5322 38.4049 14.4828 38.3526 13.4334 38.3526Z" fill="#EE2970"/>
<path d="M0 22.0063C2.66277 22.0063 5.00435 22.0063 7.34221 22.0288C7.47867 22.0512 7.60693 22.1088 7.71434 22.1959C7.82174 22.283 7.90458 22.3966 7.95469 22.5255C7.97336 22.7309 7.66713 23.1566 7.50281 23.1566C5.16121 23.1566 2.81961 23.1043 0.481755 23.0259C0.362248 23.0222 0.27636 22.6375 0 22.0063Z" fill="#EE2970"/>
<path d="M8.20864 12.0498C7.43931 13.7715 6.09113 13.1403 5.13507 13.1328C3.48811 13.1328 1.69177 13.5661 0.160583 12.8191C0.205399 12.5652 0.250216 12.3075 0.291297 12.0498H8.20864Z" fill="#EE2970"/>
<path d="M0.253967 32.9857C0.888849 31.6786 7.01733 31.5741 8.11903 32.9857H0.253967Z" fill="#EE2970"/>
<path d="M8.119 18.1297H4.12671L3.84662 17.6256C4.29104 17.3604 4.77279 16.8189 5.1724 16.8786C6.14713 17.0131 7.64844 16.0832 8.119 18.1297Z" fill="#EE2970"/>
<path d="M8.12276 28.1981H3.52173C4.19022 27.5595 4.6085 26.9059 4.85124 26.9657C5.89693 27.2271 7.58124 26.0022 8.12276 28.1981Z" fill="#EE2970"/>
<path d="M5.95293 38.3601C5.58874 38.4022 5.22046 38.3934 4.85869 38.334C4.53197 38.1729 4.23114 37.964 3.96613 37.714C4.27983 37.4601 4.55993 37.053 4.91098 36.9671C5.51278 36.8495 6.13166 36.8495 6.73346 36.9671C7.18354 37.1119 7.61098 37.3194 8.00323 37.5833C7.57583 37.8551 7.13454 38.1044 6.68117 38.3303C6.44266 38.3874 6.19532 38.3975 5.95293 38.3601V38.3601Z" fill="#EE2970"/>
<path d="M3.84666 19.4854C4.19398 21.0838 3.04745 20.7887 2.30053 20.7364C1.55361 20.6842 0.186755 21.319 0.253977 19.4854H3.84666Z" fill="#EE2970"/>
<path d="M0.112061 29.5352H4.39938C3.74583 30.185 3.35742 30.8311 3.096 30.7825C2.10633 30.6182 0.605028 31.634 0.112061 29.5352Z" fill="#EE2970"/>
<path d="M8.17879 15.5006H3.95496C4.59357 14.1524 7.05467 14.0665 8.17879 15.5006Z" fill="#EE2970"/>
<path d="M5.82968 25.7145C5.46557 25.7559 5.09756 25.7483 4.73545 25.6921C4.45558 25.5458 4.20293 25.3525 3.98853 25.1207C4.22007 24.8929 4.41427 24.5717 4.69063 24.4671C5.04201 24.3533 5.41784 24.3378 5.7774 24.4223C6.52432 24.5904 7.27123 24.8443 7.99574 25.0609L5.96413 26.0133L5.82968 25.7145Z" fill="#EE2970"/>
<path d="M3.88025 34.9617C4.54874 34.8049 5.21351 34.5173 5.882 34.521C6.62367 34.591 7.35667 34.7336 8.07047 34.9468C8.02565 35.1709 7.98084 35.3912 7.93229 35.6153H4.0259L3.88025 34.9617Z" fill="#EE2970"/>
<path d="M11.4914 35.7535C11.1185 35.7939 10.742 35.7863 10.371 35.7311C10.0791 35.5992 9.80953 35.4228 9.57178 35.2082C9.80332 34.9804 10.0125 34.5883 10.2702 34.5547C11.0064 34.447 11.7537 34.4382 12.4922 34.5285C12.8657 34.5845 13.213 34.9617 13.5753 35.197C13.2 35.4081 12.8093 35.5904 12.4063 35.7423C12.0991 35.7854 11.7874 35.7854 11.4802 35.7423L11.4914 35.7535Z" fill="#EE2970"/>
<path d="M28.368 29.7781C28.3483 29.2495 28.4361 28.7224 28.6261 28.2288C28.8161 27.7351 29.1045 27.2852 29.4736 26.9063C29.8427 26.5275 30.2849 26.2275 30.7734 26.0246C31.2619 25.8217 31.7866 25.7202 32.3155 25.7261C34.6422 25.6925 36.4011 27.317 36.4758 29.5727C36.4985 30.1106 36.4138 30.6475 36.2268 31.1523C36.0397 31.6571 35.7541 32.1196 35.3865 32.5129C35.0189 32.9061 34.5766 33.2222 34.0856 33.4428C33.5946 33.6634 33.0645 33.784 32.5264 33.7977C31.9882 33.8113 31.4527 33.7177 30.9512 33.5222C30.4496 33.3268 29.9919 33.0335 29.6049 32.6593C29.2178 32.2852 28.9091 31.8378 28.6968 31.3431C28.4844 30.8484 28.3727 30.3164 28.368 29.7781V29.7781ZM32.3939 27.0369C32.0369 27.0418 31.6844 27.1173 31.3567 27.2591C31.0291 27.4009 30.7327 27.6062 30.4848 27.8631C30.2369 28.1201 30.0423 28.4235 29.9123 28.7561C29.7823 29.0886 29.7195 29.4436 29.7274 29.8005C29.76 30.4983 30.062 31.1562 30.57 31.6357C31.078 32.1152 31.7523 32.3789 32.4508 32.3711C33.1493 32.3634 33.8175 32.0848 34.3147 31.5942C34.8119 31.1036 35.0994 30.4391 35.1164 29.7408C35.118 29.3837 35.0484 29.0299 34.9119 28.7C34.7754 28.37 34.5746 28.0705 34.3212 27.8189C34.0679 27.5673 33.767 27.3686 33.4361 27.2343C33.1052 27.1001 32.751 27.033 32.3939 27.0369V27.0369Z" fill="#EE2970"/>
</svg>
