<svg width="650" height="403" viewBox="0 0 650 403" fill="none" xmlns="http://www.w3.org/2000/svg">
<path d="M368.533 399.995C367.234 399.992 365.957 399.649 364.832 398.998L307.775 366.019L308.266 365.171L365.308 398.15C366.287 398.72 367.4 399.02 368.533 399.02C369.666 399.02 370.779 398.72 371.758 398.15L388.419 388.451L481.71 334.542C481.923 334.421 482.099 334.245 482.222 334.034C482.345 333.822 482.409 333.581 482.409 333.337C482.41 333.094 482.345 332.855 482.222 332.646C482.1 332.436 481.923 332.264 481.71 332.147L384.941 276.229L385.432 275.381L482.201 331.299C482.559 331.505 482.856 331.802 483.063 332.159C483.27 332.517 483.379 332.923 483.379 333.337C483.379 333.75 483.27 334.156 483.063 334.514C482.856 334.872 482.559 335.169 482.201 335.375L388.894 389.299L372.249 398.998C371.117 399.646 369.837 399.99 368.533 399.995Z" fill="#8686F2"/>
<path d="M481.235 261.234L413.64 222.17C412.614 221.586 411.454 221.278 410.274 221.278C409.094 221.278 407.933 221.586 406.908 222.17L375.31 240.437L374.834 239.589L406.432 221.322C407.604 220.65 408.931 220.296 410.281 220.296C411.632 220.296 412.959 220.65 414.131 221.322L481.755 260.326L481.235 261.234Z" fill="#8686F2"/>
<path style="mix-blend-mode:lighten" opacity="0.6" d="M296.45 183.136L251.967 208.841L311.52 243.264L356.004 217.558L296.45 183.136Z" fill="url(#paint0_linear_241_52)"/>
<path style="mix-blend-mode:lighten" opacity="0.6" d="M251.967 277.672L296.45 303.377L356.019 268.969L311.52 243.264L251.967 277.672Z" fill="url(#paint1_linear_241_52)"/>
<path style="mix-blend-mode:lighten" opacity="0.6" d="M415.572 303.377L460.055 277.672L400.487 243.264L356.019 268.969L415.572 303.377Z" fill="url(#paint2_linear_241_52)"/>
<path style="mix-blend-mode:lighten" opacity="0.6" d="M230.803 208.841L186.32 183.136L126.766 217.558L171.249 243.264L230.803 208.841Z" fill="url(#paint3_linear_241_52)"/>
<path style="mix-blend-mode:lighten" opacity="0.6" d="M22.729 277.672L67.2122 303.377L126.766 268.969L82.2827 243.264L22.729 277.672Z" fill="url(#paint4_linear_241_52)"/>
<path style="mix-blend-mode:lighten" opacity="0.6" d="M186.32 303.377L230.818 277.672L171.249 243.264L126.766 268.969L186.32 303.377Z" fill="url(#paint5_linear_241_52)"/>
<g style="mix-blend-mode:lighten">
<path d="M127.078 292.131C126.245 292.158 125.419 291.962 124.685 291.565L70.8982 260.49C70.5888 260.343 70.3255 260.115 70.1368 259.829C69.9482 259.543 69.8414 259.211 69.8281 258.868C69.876 258.434 70.039 258.02 70.3003 257.669C70.5616 257.319 70.9117 257.045 71.3144 256.875L124.373 226.216C125.198 225.75 126.122 225.488 127.068 225.452C128.014 225.416 128.955 225.606 129.813 226.008L183.585 257.083C183.895 257.23 184.16 257.459 184.351 257.744C184.542 258.03 184.652 258.362 184.67 258.705C184.621 259.139 184.457 259.552 184.196 259.902C183.935 260.253 183.586 260.527 183.184 260.698L130.125 291.357C129.195 291.879 128.144 292.146 127.078 292.131ZM125.101 290.851C125.831 291.172 126.626 291.32 127.422 291.284C128.218 291.248 128.996 291.029 129.694 290.643L182.753 259.984C183.392 259.612 183.778 259.136 183.778 258.705C183.755 258.51 183.681 258.325 183.563 258.169C183.446 258.012 183.289 257.889 183.109 257.812L129.337 226.722C128.604 226.404 127.808 226.258 127.01 226.294C126.211 226.33 125.432 226.547 124.73 226.93L71.6711 257.604C71.4091 257.711 71.1788 257.884 71.002 258.105C70.8251 258.326 70.7076 258.589 70.6604 258.868C70.6828 259.063 70.7547 259.249 70.8692 259.407C70.9837 259.566 71.1369 259.693 71.3144 259.776L125.101 290.851Z" fill="#8686F2"/>
</g>
<path d="M184.194 236.049V242.654L127.078 275.663L69.9766 242.654V236.049H184.194Z" fill="url(#paint6_linear_241_52)"/>
<path d="M127.078 269.043L69.9766 236.049L127.078 203.04L184.194 236.049L127.078 269.043Z" fill="#BCBEFF"/>
<path d="M127.078 268.285L70.6305 235.662L69.9766 236.049L127.078 269.044L184.194 236.049L183.525 235.662L127.078 268.285Z" fill="white"/>
<path d="M127.078 261.442L83.1597 236.049L127.078 210.671L171.011 236.049L127.078 261.442Z" fill="#0F054C"/>
<path opacity="0.5" d="M127.078 261.442L83.1597 236.049L127.078 210.671L171.011 236.049L127.078 261.442Z" fill="url(#paint7_linear_241_52)"/>
<path opacity="0.5" d="M127.078 204.274L171.011 229.653V236.049L127.078 210.671V204.274Z" fill="url(#paint8_linear_241_52)"/>
<path opacity="0.5" d="M127.078 210.671L83.1597 236.049V229.653L127.078 204.274V210.671Z" fill="url(#paint9_linear_241_52)"/>
<path opacity="0.5" d="M127.078 255.031L83.1597 229.653L127.078 204.274L171.011 229.653L127.078 255.031Z" fill="url(#paint10_linear_241_52)"/>
<path opacity="0.5" d="M127.078 239.798L109.525 229.652L127.078 219.507L144.63 229.652L127.078 239.798Z" fill="#42E8E0"/>
<path opacity="0.5" d="M127.078 220.444L143.828 230.114L144.63 229.652L127.078 219.507L109.525 229.652L110.343 230.114L127.078 220.444Z" fill="#42E8E0"/>
<path opacity="0.5" d="M127.078 255.031V261.442L171.011 236.049V229.652L127.078 255.031Z" fill="url(#paint11_linear_241_52)"/>
<path opacity="0.5" d="M83.1597 229.652V236.049L127.078 261.442V255.031L83.1597 229.652Z" fill="url(#paint12_linear_241_52)"/>
<path opacity="0.8" d="M127.078 254.331L83.7542 229.31L83.1597 229.652L127.078 255.031L171.011 229.652L170.402 229.31L127.078 254.331Z" fill="#42E8E0"/>
<g style="mix-blend-mode:lighten">
<path d="M356.004 292.131C355.171 292.156 354.345 291.961 353.611 291.565L299.824 260.49C299.517 260.341 299.255 260.111 299.067 259.826C298.878 259.541 298.77 259.21 298.754 258.868C298.8 258.433 298.963 258.019 299.224 257.668C299.486 257.317 299.837 257.043 300.24 256.875L353.299 226.216C354.122 225.753 355.043 225.492 355.986 225.456C356.93 225.42 357.868 225.609 358.724 226.008L412.496 257.083C412.806 257.231 413.071 257.459 413.262 257.744C413.453 258.03 413.563 258.362 413.581 258.705C413.535 259.14 413.372 259.555 413.111 259.905C412.849 260.256 412.498 260.53 412.095 260.698L359.036 291.357C358.11 291.877 357.065 292.144 356.004 292.131ZM354.027 290.851C354.757 291.172 355.551 291.32 356.348 291.284C357.144 291.248 357.922 291.029 358.62 290.643L411.679 259.984C412.318 259.612 412.704 259.136 412.704 258.705C412.684 258.509 412.611 258.323 412.493 258.166C412.375 258.009 412.217 257.887 412.035 257.812L358.263 226.722C357.53 226.404 356.734 226.258 355.935 226.294C355.137 226.33 354.357 226.548 353.656 226.93L300.612 257.604C299.973 257.961 299.586 258.437 299.586 258.868C299.609 259.063 299.68 259.249 299.795 259.408C299.909 259.566 300.063 259.693 300.24 259.776L354.027 290.851Z" fill="#8686F2"/>
</g>
<path d="M413.12 236.049V242.654L356.019 275.663L298.902 242.654V236.049H413.12Z" fill="url(#paint13_linear_241_52)"/>
<path d="M356.019 269.043L298.902 236.049L356.004 203.04L413.12 236.049L356.019 269.043Z" fill="#BCBEFF"/>
<path d="M356.019 268.285L299.571 235.662L298.902 236.049L356.019 269.044L413.12 236.049L412.451 235.662L356.019 268.285Z" fill="white"/>
<path d="M356.019 261.442L312.085 236.049L356.004 210.671L399.937 236.049L356.019 261.442Z" fill="#0F054C"/>
<path opacity="0.5" d="M356.019 261.442L312.085 236.049L356.004 210.671L399.937 236.049L356.019 261.442Z" fill="url(#paint14_linear_241_52)"/>
<path opacity="0.5" d="M356.004 204.274L399.937 229.653V236.049L356.004 210.671V204.274Z" fill="url(#paint15_linear_241_52)"/>
<path opacity="0.5" d="M356.019 210.671L312.085 236.049V229.653L356.004 204.274L356.019 210.671Z" fill="url(#paint16_linear_241_52)"/>
<path opacity="0.5" d="M356.019 255.031L312.085 229.653L356.004 204.274L399.937 229.653L356.019 255.031Z" fill="url(#paint17_linear_241_52)"/>
<path opacity="0.5" d="M356.019 239.798L338.451 229.652L356.004 219.507L373.571 229.652L356.019 239.798Z" fill="#42E8E0"/>
<path opacity="0.5" d="M356.004 220.444L372.754 230.114L373.571 229.652L356.004 219.507L338.451 229.652L339.269 230.114L356.004 220.444Z" fill="#42E8E0"/>
<path opacity="0.5" d="M356.019 255.031V261.442L399.937 236.049V229.652L356.019 255.031Z" fill="url(#paint18_linear_241_52)"/>
<path opacity="0.5" d="M312.085 229.652V236.049L356.019 261.442V255.031L312.085 229.652Z" fill="url(#paint19_linear_241_52)"/>
<path opacity="0.8" d="M356.019 254.331L312.68 229.31L312.085 229.652L356.019 255.031L399.937 229.652L399.328 229.31L356.019 254.331Z" fill="#42E8E0"/>
<path d="M241.682 161.134L140.187 102.479L241.682 43.824L343.192 102.479L241.682 161.134Z" fill="#BCBEFF"/>
<path opacity="0.7" d="M241.682 155.854L149.327 102.479L241.682 49.105L334.052 102.479L241.682 155.854Z" fill="#453C9E"/>
<path d="M241.682 403C240.117 402.988 238.582 402.573 237.223 401.795L112.899 329.945C112.492 329.712 112.152 329.376 111.917 328.969C111.681 328.563 111.557 328.102 111.557 327.632C111.557 327.162 111.681 326.701 111.917 326.294C112.152 325.888 112.492 325.551 112.899 325.319L241.756 250.865L374.612 327.639L246.215 401.795C244.835 402.585 243.272 403.001 241.682 403ZM237.64 400.947C238.872 401.649 240.265 402.018 241.682 402.018C243.1 402.018 244.493 401.649 245.725 400.947L372.575 327.639L241.682 251.981L113.315 326.167C113.052 326.313 112.834 326.53 112.684 326.792C112.535 327.054 112.46 327.352 112.468 327.654C112.462 327.956 112.537 328.253 112.686 328.515C112.836 328.777 113.053 328.994 113.315 329.142L237.64 400.947Z" fill="#8686F2"/>
<path d="M241.682 386.294L140.187 327.624L241.682 268.969L343.192 327.639L241.682 386.294Z" fill="white"/>
<path d="M343.192 102.479V327.639L241.682 386.294V161.134L343.192 102.479Z" fill="url(#paint20_linear_241_52)"/>
<path d="M140.187 102.479V327.624L241.682 386.294V161.134L140.187 102.479Z" fill="#24126A"/>
<g opacity="0.51">
<path d="M147.053 117.415V319.785L234.816 370.496V168.126L147.053 117.415Z" fill="#453C9E"/>
</g>
<path d="M327.958 156.88V162.83L256.916 203.888V197.937L327.958 156.88Z" fill="#453C9E"/>
<path d="M327.958 182.035V187.985L256.916 229.043V223.092L327.958 182.035Z" fill="#453C9E"/>
<path d="M327.958 207.205V213.155L256.916 254.212V248.262L327.958 207.205Z" fill="#453C9E"/>
<path d="M327.958 232.36V238.325L256.916 279.382V273.432L327.958 232.36Z" fill="#453C9E"/>
<path d="M327.958 257.53V263.48L256.916 304.537V298.587L327.958 257.53Z" fill="#453C9E"/>
<path d="M327.958 282.685V288.65L256.916 329.707V323.757L327.958 282.685Z" fill="#453C9E"/>
<path d="M241.682 159.231L141.836 101.527L140.187 102.479L241.682 161.135L343.192 102.479L341.543 101.527L241.682 159.231Z" fill="white"/>
<g opacity="0.51">
<path d="M140.187 292.041L241.682 230.709V161.134L140.187 102.479V292.041Z" fill="#453C9E"/>
</g>
<path d="M157.561 189.086L170.194 196.39V194.189L157.576 186.899L157.561 189.086Z" fill="#42E8E0"/>
<path d="M172.23 197.551L179.111 201.537V199.336L172.23 195.364V197.551Z" fill="#42E8E0"/>
<path d="M189.812 207.711L194.791 210.582L194.806 208.395L189.827 205.524L189.812 207.711Z" fill="#42E8E0"/>
<path d="M186.186 205.613L187.895 206.595V204.408L186.186 203.427V205.613Z" fill="#42E8E0"/>
<path d="M181.162 202.712L184.253 204.497V202.311L181.162 200.511V202.712Z" fill="#42E8E0"/>
<path d="M169.243 205.866L174.222 208.737V206.55L169.243 203.665V205.866Z" fill="#42E8E0"/>
<path d="M157.561 199.113L167.311 204.75V202.549L157.561 196.911V199.113Z" fill="#42E8E0"/>
<path d="M175.752 234.666L185.502 240.303V238.117L175.752 232.479V234.666Z" fill="#42E8E0"/>
<path d="M170.729 231.765L173.82 233.55V231.363L170.729 229.563V231.765Z" fill="#42E8E0"/>
<path d="M175.693 224.624L185.457 230.262V228.076L175.693 222.438V224.624Z" fill="#42E8E0"/>
<path d="M170.669 221.724L173.761 223.509L173.776 221.322L170.684 219.537L170.669 221.724Z" fill="#42E8E0"/>
<path d="M175.812 277.984L157.427 267.363V269.549L175.812 280.171V277.984Z" fill="#42E8E0"/>
<path d="M182.277 281.718L177.729 279.1V281.286L182.277 283.919V281.718Z" fill="#42E8E0"/>
<path d="M212.062 283.845L193.677 273.224V275.425L212.062 286.047V283.845Z" fill="#42E8E0"/>
<path d="M218.541 287.594L213.993 284.961L213.979 287.162L218.526 289.795L218.541 287.594Z" fill="#42E8E0"/>
<path d="M162.406 265.22L157.427 262.349V264.536L162.406 267.422V265.22Z" fill="#42E8E0"/>
<path d="M191.031 271.721L186.052 268.835L186.037 271.037L191.016 273.908L191.031 271.721Z" fill="#42E8E0"/>
<path d="M174.102 271.974L164.338 266.336V268.538L174.102 274.176V271.974Z" fill="#42E8E0"/>
<path d="M179.126 274.875L176.02 273.09V275.291L179.111 277.076L179.126 274.875Z" fill="#42E8E0"/>
<path d="M190.897 281.673L181.133 276.035V278.237L190.897 283.875V281.673Z" fill="#42E8E0"/>
<path d="M195.906 284.574L192.829 282.789V284.99L195.906 286.776V284.574Z" fill="#42E8E0"/>
<path d="M191.016 276.734L186.037 273.863V276.05L191.016 278.921V276.734Z" fill="#42E8E0"/>
<path d="M202.713 283.488L192.948 277.85V280.037L202.713 285.69V283.488Z" fill="#42E8E0"/>
<path d="M207.721 286.389L204.63 284.604V286.805L207.721 288.59V286.389Z" fill="#42E8E0"/>
<path d="M167.623 263.227L157.442 257.336L157.427 259.523L167.623 265.414V263.227Z" fill="#42E8E0"/>
<path d="M176.926 268.597L169.555 264.343V266.53L176.926 270.799V268.597Z" fill="#42E8E0"/>
<path d="M183.838 272.599L178.859 269.713L178.844 271.9L183.838 274.786V272.599Z" fill="#42E8E0"/>
<path d="M217.531 228.715L227.712 234.606V232.419L217.531 226.529V228.715Z" fill="#42E8E0"/>
<path d="M208.227 223.345L215.598 227.6V225.413L208.227 221.158V223.345Z" fill="#42E8E0"/>
<path d="M201.316 219.358L206.295 222.229V220.043L201.316 217.157V219.358Z" fill="#42E8E0"/>
<path d="M213.295 221.248L223.491 227.138V224.937L213.295 219.046V221.248Z" fill="#42E8E0"/>
<path d="M204.006 215.877L211.363 220.132V217.93L204.006 213.676V215.877Z" fill="#42E8E0"/>
<path d="M197.095 211.876L202.074 214.762V212.56L197.095 209.689V211.876Z" fill="#42E8E0"/>
<path d="M177.209 230.515L180.657 232.509V230.322L177.209 228.328V230.515Z" fill="#42E8E0"/>
<path d="M170.729 226.781L175.277 229.4V227.213L170.729 224.58V226.781Z" fill="#42E8E0"/>
<path d="M167.697 258.244L157.501 252.353V254.555L167.697 260.43V258.244Z" fill="#42E8E0"/>
<path d="M176.986 263.614L169.629 259.359L169.614 261.546L176.986 265.815V263.614Z" fill="#42E8E0"/>
<path d="M183.897 267.615L178.918 264.729V266.931L183.897 269.802V267.615Z" fill="#42E8E0"/>
<path d="M160.95 249.333L157.516 247.34L157.501 249.541L160.95 251.52V249.333Z" fill="#42E8E0"/>
<path d="M167.429 253.082L162.881 250.449V252.635L167.429 255.268V253.082Z" fill="#42E8E0"/>
<path d="M176.689 258.422L169.362 254.198V256.384L176.689 260.624V258.422Z" fill="#42E8E0"/>
<path d="M179.364 216.71L182.812 218.689V216.502L179.364 214.509V216.71Z" fill="#42E8E0"/>
<path d="M172.884 212.962L177.432 215.595V213.393L172.884 210.76V212.962Z" fill="#42E8E0"/>
<path d="M163.625 207.606L170.952 211.846V209.644L163.625 205.42V207.606Z" fill="#42E8E0"/>
<path d="M185.383 224.833L192.71 229.072L192.725 226.886L185.383 222.646V224.833Z" fill="#42E8E0"/>
<path d="M173.464 218.302L183.347 224.015V221.813L173.464 216.115V218.302Z" fill="#42E8E0"/>
<path d="M168.44 215.401L171.531 217.186V215L168.44 213.215V215.401Z" fill="#42E8E0"/>
<path d="M163.625 212.62L166.716 214.405V212.218L163.625 210.418V212.62Z" fill="#42E8E0"/>
<path d="M168.559 240.943L178.324 246.581V244.379L168.559 238.742V240.943Z" fill="#42E8E0"/>
<path d="M163.536 238.042L166.627 239.827V237.626L163.536 235.841V238.042Z" fill="#42E8E0"/>
<path d="M170.075 246.834L173.508 248.812V246.626L170.075 244.632V246.834Z" fill="#42E8E0"/>
<path d="M180.538 242.817L183.971 244.796V242.609L180.538 240.616V242.817Z" fill="#42E8E0"/>
<path d="M185.443 245.644L193.692 250.419L193.706 248.217L185.443 243.457V245.644Z" fill="#42E8E0"/>
<path d="M195.163 251.252L200.067 254.093V251.907L195.163 249.065V251.252Z" fill="#42E8E0"/>
<path d="M163.595 243.085L168.143 245.718V243.517L163.595 240.899V243.085Z" fill="#42E8E0"/>
<path d="M163.996 248.232L167.429 250.226V248.039L163.996 246.046V248.232Z" fill="#42E8E0"/>
<path d="M157.516 244.498L162.064 247.117V244.93L157.516 242.297V244.498Z" fill="#42E8E0"/>
<path d="M175.544 239.932L178.636 241.717V239.515L175.544 237.73V239.932Z" fill="#42E8E0"/>
<path d="M170.729 237.15L173.82 238.935V236.733L170.729 234.948V237.15Z" fill="#42E8E0"/>
<path d="M188.504 211.95L199.057 218.049V215.848L188.504 209.763V211.95Z" fill="#42E8E0"/>
<path d="M176.704 205.137L186.587 210.835V208.648L176.704 202.936V205.137Z" fill="#42E8E0"/>
<path d="M171.68 202.236L174.772 204.021V201.82L171.68 200.035V202.236Z" fill="#42E8E0"/>
<path d="M166.865 199.44L169.956 201.24V199.038L166.865 197.253V199.44Z" fill="#42E8E0"/>
<path d="M164.234 197.922L157.561 194.07V191.883L164.234 195.736V197.922Z" fill="#42E8E0"/>
<path d="M241.682 117.31L140.187 58.6552L241.682 0L343.192 58.6552L241.682 117.31Z" fill="#BCBEFF"/>
<path d="M241.682 101.289L167.89 58.6553L241.682 16.0212L315.474 58.6553L241.682 101.289Z" fill="#453C9E"/>
<path d="M241.682 18.9071L312.977 60.0982L315.474 58.6553L241.682 16.0212L167.89 58.6553L170.402 60.0982L241.682 18.9071Z" fill="white"/>
<path d="M343.192 58.6553V91.9027L241.682 150.558V117.311L343.192 58.6553Z" fill="url(#paint21_linear_241_52)"/>
<path d="M140.187 58.6553V91.9027L241.682 150.558V117.311L140.187 58.6553Z" fill="#24126A"/>
<g opacity="0.51">
<path d="M147.053 73.5906V84.0631L234.816 134.775V124.302L147.053 73.5906Z" fill="#453C9E"/>
</g>
<path d="M241.682 115.406L141.836 57.7031L140.187 58.6552L241.682 117.31L343.192 58.6552L341.543 57.7031L241.682 115.406Z" fill="white"/>
<path d="M327.958 81.9507V87.901L256.916 128.958V123.008L327.958 81.9507Z" fill="#453C9E"/>
<path opacity="0.51" d="M140.187 58.6553V91.9027L241.682 150.558V117.311L140.187 58.6553Z" fill="#453C9E"/>
<path d="M212.062 115.54L193.677 104.919V107.121L212.062 117.742V115.54Z" fill="#42E8E0"/>
<path d="M191.031 103.416L186.052 100.531L186.037 102.732L191.016 105.603L191.031 103.416Z" fill="#42E8E0"/>
<path d="M167.697 89.9389L157.501 84.0481V86.2348L167.697 92.1256V89.9389Z" fill="#42E8E0"/>
<path d="M176.986 95.3092L169.629 91.0547L169.614 93.2414L176.986 97.5108V95.3092Z" fill="#42E8E0"/>
<path d="M183.897 99.2958L178.918 96.4248V98.6115L183.897 101.497V99.2958Z" fill="#42E8E0"/>
<path d="M241.786 30.6591L238.561 28.7996L241.786 26.9253L245.011 28.7996L241.786 30.6591Z" fill="#42E8E0"/>
<path opacity="0.1" d="M248.236 34.3779L245.011 32.5184L248.236 30.6589L251.462 32.5184L248.236 34.3779Z" fill="#42E8E0"/>
<path opacity="0.4" d="M254.687 38.1118L251.461 36.2374L254.687 34.3779L257.912 36.2374L254.687 38.1118Z" fill="#42E8E0"/>
<path d="M261.122 41.8308L257.912 39.9713L261.122 38.1118L264.348 39.9713L261.122 41.8308Z" fill="#42E8E0"/>
<path opacity="0.4" d="M267.572 45.5646L264.347 43.6903L267.572 41.8308L270.797 43.6903L267.572 45.5646Z" fill="#42E8E0"/>
<path d="M274.023 49.2834L270.797 47.4239L274.023 45.5645L277.248 47.4239L274.023 49.2834Z" fill="#42E8E0"/>
<path d="M280.473 53.0024L277.248 51.1429L280.473 49.2834L283.683 51.1429L280.473 53.0024Z" fill="#42E8E0"/>
<path d="M286.908 56.7363L283.683 54.8768L286.908 53.0024L290.133 54.8768L286.908 56.7363Z" fill="#42E8E0"/>
<path opacity="0.1" d="M293.359 60.4553L290.134 58.5958L293.359 56.7363L296.584 58.5958L293.359 60.4553Z" fill="#42E8E0"/>
<path d="M235.321 34.3928L232.096 32.5333L235.321 30.6738L238.546 32.5333L235.321 34.3928Z" fill="#42E8E0"/>
<path d="M241.771 38.1266L238.546 36.2672L241.771 34.3928L244.981 36.2672L241.771 38.1266Z" fill="#42E8E0"/>
<path d="M248.207 41.8457L244.981 39.9862L248.207 38.1267L251.432 39.9862L248.207 41.8457Z" fill="#42E8E0"/>
<path d="M254.657 45.5795L251.432 43.7052L254.657 41.8457L257.882 43.7052L254.657 45.5795Z" fill="#42E8E0"/>
<path d="M261.107 49.2983L257.882 47.4388L261.107 45.5793L264.333 47.4388L261.107 49.2983Z" fill="#42E8E0"/>
<path d="M267.543 53.0173L264.333 51.1578L267.543 49.2983L270.768 51.1578L267.543 53.0173Z" fill="#42E8E0"/>
<path d="M273.993 56.7512L270.768 54.8917L273.993 53.0173L277.218 54.8917L273.993 56.7512Z" fill="#42E8E0"/>
<path d="M280.443 60.4702L277.218 58.6107L280.443 56.7512L283.669 58.6107L280.443 60.4702Z" fill="#42E8E0"/>
<path d="M286.894 64.2038L283.668 62.3294L286.894 60.47L290.104 62.3294L286.894 64.2038Z" fill="#42E8E0"/>
<path d="M228.841 38.1415L225.616 36.2821L228.841 34.4077L232.066 36.2821L228.841 38.1415Z" fill="#42E8E0"/>
<path d="M235.291 41.8605L232.066 40.0011L235.291 38.1416L238.516 40.0011L235.291 41.8605Z" fill="#42E8E0"/>
<path d="M241.742 45.5793L238.517 43.7198L241.742 41.8604L244.967 43.7198L241.742 45.5793Z" fill="#42E8E0"/>
<path opacity="0.1" d="M248.192 49.3132L244.967 47.4537L248.192 45.5793L251.402 47.4537L248.192 49.3132Z" fill="#42E8E0"/>
<path opacity="0.4" d="M254.627 53.0322L251.402 51.1727L254.627 49.3132L257.853 51.1727L254.627 53.0322Z" fill="#42E8E0"/>
<path opacity="0.4" d="M261.078 56.766L257.853 54.9066L261.078 53.0322L264.303 54.9066L261.078 56.766Z" fill="#42E8E0"/>
<path d="M267.528 60.4851L264.303 58.6256L267.528 56.7661L270.753 58.6256L267.528 60.4851Z" fill="#42E8E0"/>
<path d="M273.963 64.2187L270.753 62.3443L273.963 60.4849L277.188 62.3443L273.963 64.2187Z" fill="#42E8E0"/>
<path d="M280.414 67.9377L277.188 66.0782L280.414 64.2188L283.639 66.0782L280.414 67.9377Z" fill="#42E8E0"/>
<path opacity="0.4" d="M222.376 41.8754L219.151 40.016L222.376 38.1565L225.601 40.016L222.376 41.8754Z" fill="#42E8E0"/>
<path opacity="0.4" d="M228.811 45.6091L225.601 43.7347L228.811 41.8752L232.037 43.7347L228.811 45.6091Z" fill="#42E8E0"/>
<path opacity="0.1" d="M235.261 49.3281L232.036 47.4686L235.261 45.6091L238.486 47.4686L235.261 49.3281Z" fill="#42E8E0"/>
<path d="M241.712 53.0471L238.487 51.1876L241.712 49.3281L244.937 51.1876L241.712 53.0471Z" fill="#42E8E0"/>
<path d="M248.162 56.7809L244.937 54.9215L248.162 53.0471L251.387 54.9215L248.162 56.7809Z" fill="#42E8E0"/>
<path d="M254.597 60.4997L251.387 58.6402L254.597 56.7808L257.823 58.6402L254.597 60.4997Z" fill="#42E8E0"/>
<path opacity="0.4" d="M261.048 64.2336L257.823 62.3592L261.048 60.4998L264.273 62.3592L261.048 64.2336Z" fill="#42E8E0"/>
<path d="M267.498 67.9526L264.273 66.0931L267.498 64.2336L270.723 66.0931L267.498 67.9526Z" fill="#42E8E0"/>
<path d="M273.948 71.6865L270.723 69.8121L273.948 67.9526L277.173 69.8121L273.948 71.6865Z" fill="#42E8E0"/>
<path d="M215.896 45.624L212.671 43.7496L215.896 41.8901L219.121 43.7496L215.896 45.624Z" fill="#42E8E0"/>
<path d="M222.346 49.343L219.121 47.4835L222.346 45.624L225.571 47.4835L222.346 49.343Z" fill="#42E8E0"/>
<path d="M228.796 53.062L225.571 51.2025L228.796 49.343L232.022 51.2025L228.796 53.062Z" fill="#42E8E0"/>
<path d="M235.247 56.7958L232.021 54.9364L235.247 53.062L238.457 54.9364L235.247 56.7958Z" fill="#42E8E0"/>
<path d="M241.682 60.5146L238.457 58.6551L241.682 56.7957L244.907 58.6551L241.682 60.5146Z" fill="#42E8E0"/>
<path d="M248.132 64.2485L244.907 62.389L248.132 60.5146L251.358 62.389L248.132 64.2485Z" fill="#42E8E0"/>
<path d="M254.583 67.9675L251.357 66.108L254.583 64.2485L257.808 66.108L254.583 67.9675Z" fill="#42E8E0"/>
<path d="M261.018 71.7014L257.808 69.827L261.018 67.9675L264.243 69.827L261.018 71.7014Z" fill="#42E8E0"/>
<path d="M267.468 75.4204L264.243 73.5609L267.468 71.7014L270.693 73.5609L267.468 75.4204Z" fill="#42E8E0"/>
<path d="M209.431 49.3579L206.206 47.4984L209.431 45.6389L212.656 47.4984L209.431 49.3579Z" fill="#42E8E0"/>
<path d="M215.866 53.0769L212.656 51.2174L215.866 49.3579L219.091 51.2174L215.866 53.0769Z" fill="#42E8E0"/>
<path opacity="0.4" d="M222.316 56.8107L219.091 54.9513L222.316 53.0769L225.542 54.9513L222.316 56.8107Z" fill="#42E8E0"/>
<path d="M228.767 60.5295L225.542 58.67L228.767 56.8105L231.992 58.67L228.767 60.5295Z" fill="#42E8E0"/>
<path opacity="0.1" d="M235.217 64.2634L231.992 62.4039L235.217 60.5295L238.442 62.4039L235.217 64.2634Z" fill="#42E8E0"/>
<path d="M241.667 67.9824L238.442 66.1229L241.667 64.2634L244.877 66.1229L241.667 67.9824Z" fill="#42E8E0"/>
<path d="M248.103 71.7014L244.877 69.8419L248.103 67.9824L251.328 69.8419L248.103 71.7014Z" fill="#42E8E0"/>
<path d="M254.553 75.4352L251.328 73.5758L254.553 71.7014L257.778 73.5758L254.553 75.4352Z" fill="#42E8E0"/>
<path d="M261.003 79.154L257.778 77.2945L261.003 75.4351L264.229 77.2945L261.003 79.154Z" fill="#42E8E0"/>
<path d="M202.951 53.0918L199.726 51.2323L202.951 49.3728L206.176 51.2323L202.951 53.0918Z" fill="#42E8E0"/>
<path d="M209.401 56.8256L206.176 54.9661L209.401 53.0918L212.626 54.9661L209.401 56.8256Z" fill="#42E8E0"/>
<path opacity="0.4" d="M215.851 60.5444L212.626 58.6849L215.851 56.8254L219.076 58.6849L215.851 60.5444Z" fill="#42E8E0"/>
<path d="M222.286 64.2783L219.076 62.4039L222.286 60.5444L225.512 62.4039L222.286 64.2783Z" fill="#42E8E0"/>
<path d="M228.737 67.9973L225.512 66.1378L228.737 64.2783L231.962 66.1378L228.737 67.9973Z" fill="#42E8E0"/>
<path opacity="0.1" d="M235.187 71.7311L231.962 69.8568L235.187 67.9973L238.412 69.8568L235.187 71.7311Z" fill="#42E8E0"/>
<path opacity="0.4" d="M241.637 75.4499L238.412 73.5904L241.637 71.731L244.862 73.5904L241.637 75.4499Z" fill="#42E8E0"/>
<path d="M248.088 79.1689L244.863 77.3094L248.073 75.45L251.298 77.3094L248.088 79.1689Z" fill="#42E8E0"/>
<path opacity="0.1" d="M254.523 82.9028L251.298 81.0433L254.523 79.1689L257.748 81.0433L254.523 82.9028Z" fill="#42E8E0"/>
<path d="M196.485 56.8403L193.26 54.9808L196.485 53.1064L199.711 54.9808L196.485 56.8403Z" fill="#42E8E0"/>
<path opacity="0.4" d="M202.936 60.5593L199.71 58.6998L202.936 56.8403L206.146 58.6998L202.936 60.5593Z" fill="#42E8E0"/>
<path d="M209.371 64.2932L206.146 62.4337L209.371 60.5593L212.596 62.4337L209.371 64.2932Z" fill="#42E8E0"/>
<path d="M215.821 68.0122L212.596 66.1527L215.821 64.2932L219.046 66.1527L215.821 68.0122Z" fill="#42E8E0"/>
<path d="M222.272 71.746L219.046 69.8717L222.272 68.0122L225.497 69.8717L222.272 71.746Z" fill="#42E8E0"/>
<path d="M228.707 75.4648L225.497 73.6053L228.707 71.7458L231.932 73.6053L228.707 75.4648Z" fill="#42E8E0"/>
<path d="M235.157 79.1838L231.932 77.3243L235.157 75.4648L238.382 77.3243L235.157 79.1838Z" fill="#42E8E0"/>
<path opacity="0.4" d="M241.608 82.9177L238.383 81.0582L241.608 79.1838L244.833 81.0582L241.608 82.9177Z" fill="#42E8E0"/>
<path d="M248.058 86.6367L244.833 84.7772L248.058 82.9177L251.283 84.7772L248.058 86.6367Z" fill="#42E8E0"/>
<path d="M190.006 60.5742L186.795 58.7147L190.006 56.8552L193.231 58.7147L190.006 60.5742Z" fill="#42E8E0"/>
<path opacity="0.1" d="M196.456 64.308L193.23 62.4486L196.456 60.5742L199.681 62.4486L196.456 64.308Z" fill="#42E8E0"/>
<path d="M202.906 68.0271L199.681 66.1676L202.906 64.3081L206.131 66.1676L202.906 68.0271Z" fill="#42E8E0"/>
<path d="M209.356 71.7458L206.131 69.8863L209.356 68.0269L212.567 69.8863L209.356 71.7458Z" fill="#42E8E0"/>
<path d="M215.792 75.4797L212.566 73.6202L215.792 71.7458L219.017 73.6202L215.792 75.4797Z" fill="#42E8E0"/>
<path d="M222.242 79.1987L219.017 77.3392L222.242 75.4797L225.467 77.3392L222.242 79.1987Z" fill="#42E8E0"/>
<path opacity="0.4" d="M228.692 82.9326L225.467 81.0731L228.692 79.1987L231.918 81.0731L228.692 82.9326Z" fill="#42E8E0"/>
<path d="M235.128 86.6516L231.917 84.7921L235.128 82.9326L238.353 84.7921L235.128 86.6516Z" fill="#42E8E0"/>
<path d="M241.578 90.3852L238.353 88.5108L241.578 86.6514L244.803 88.5108L241.578 90.3852Z" fill="#42E8E0"/>
<path d="M527.576 335.241C526.012 335.247 524.475 334.842 523.117 334.066L434.953 283.116C434.553 282.897 434.219 282.574 433.987 282.182C433.754 281.789 433.632 281.341 433.632 280.885C433.632 280.428 433.754 279.98 433.987 279.588C434.219 279.195 434.553 278.872 434.953 278.653L490.42 246.611L490.657 246.745L582.998 300.104C583.386 300.325 583.709 300.645 583.934 301.032C584.158 301.419 584.276 301.858 584.276 302.306C584.281 302.754 584.165 303.195 583.94 303.583C583.715 303.971 583.389 304.29 582.998 304.507L531.96 334.006C530.63 334.791 529.119 335.216 527.576 335.241ZM523.637 333.218C524.836 333.898 526.19 334.256 527.568 334.256C528.946 334.256 530.301 333.898 531.499 333.218L582.537 303.734C582.778 303.598 582.979 303.4 583.119 303.161C583.258 302.922 583.332 302.65 583.332 302.373C583.332 302.096 583.258 301.824 583.119 301.584C582.979 301.345 582.778 301.148 582.537 301.012L490.39 247.801L490.212 247.905L435.429 279.561C435.169 279.679 434.949 279.87 434.795 280.11C434.641 280.35 434.559 280.629 434.559 280.914C434.559 281.2 434.641 281.479 434.795 281.719C434.949 281.959 435.169 282.15 435.429 282.268L523.637 333.218Z" fill="#8686F2"/>
<path d="M490.33 226.112L502.607 153.221L501.626 152.804L503.112 151.956C503.292 151.863 503.495 151.821 503.697 151.837C503.899 151.853 504.093 151.925 504.256 152.046L602.423 208.767C602.835 209.034 603.169 209.407 603.391 209.846C603.613 210.285 603.715 210.775 603.686 211.266L591.305 284.782C591.291 284.941 591.238 285.093 591.149 285.226C591.061 285.359 590.941 285.467 590.8 285.541L589.314 286.374L589.061 285.02H589.15L491.638 228.671C491.203 228.409 490.85 228.03 490.619 227.578C490.388 227.126 490.288 226.618 490.33 226.112Z" fill="url(#paint22_linear_241_52)"/>
<path d="M601.873 210.775L603.478 210.061C603.672 210.436 603.745 210.862 603.686 211.281L591.306 284.797C591.292 284.956 591.238 285.108 591.15 285.241C591.061 285.373 590.941 285.482 590.8 285.556L589.314 286.389L589.061 285.035H589.151L584.216 282.179L601.873 210.775Z" fill="url(#paint23_linear_241_52)"/>
<path d="M490.063 229.563L588.244 286.284C589.002 286.731 589.656 286.478 589.73 285.689L602.11 212.158C602.135 211.668 602.03 211.18 601.806 210.744C601.581 210.308 601.245 209.939 600.832 209.674L502.666 152.938C501.908 152.506 501.254 152.759 501.18 153.548L488.799 227.064C488.775 227.554 488.879 228.043 489.1 228.481C489.322 228.919 489.653 229.292 490.063 229.563Z" fill="#24126A"/>
<g opacity="0.51">
<path d="M504.004 157.639L598.618 212.322L586.891 281.554L492.322 226.915L504.004 157.639Z" fill="#453C9E"/>
</g>
<path d="M428.354 264.372L433.704 267.169L487.432 236.123C487.987 235.869 488.594 235.75 489.204 235.776C489.813 235.802 490.408 235.972 490.94 236.272L583.592 289.825C584.469 289.334 588.511 287.385 588.511 287.385L586.564 292.503C586.464 292.768 586.268 292.985 586.014 293.113L529.433 325.839C528.878 326.09 528.271 326.207 527.662 326.181C527.053 326.155 526.458 325.987 525.926 325.691L431.118 270.903C430.764 270.723 430.485 270.422 430.331 270.055L428.354 264.372Z" fill="url(#paint24_linear_241_52)"/>
<path d="M429.216 265.25L526.386 321.391C526.929 321.699 527.536 321.873 528.159 321.899C528.782 321.925 529.402 321.802 529.968 321.54L587.932 288.04C588.853 287.504 588.734 286.552 587.679 285.957L490.508 229.816C489.963 229.508 489.353 229.334 488.728 229.308C488.103 229.282 487.48 229.405 486.912 229.667L428.948 263.168C427.997 263.703 428.116 264.625 429.216 265.25Z" fill="url(#paint25_linear_241_52)"/>
<path d="M429.216 264.685L526.387 320.841C526.93 321.145 527.538 321.317 528.16 321.343C528.782 321.369 529.402 321.248 529.969 320.99L587.932 287.475C588.19 287.342 588.391 287.12 588.497 286.85C588.567 287.083 588.548 287.334 588.443 287.554C588.339 287.774 588.157 287.947 587.932 288.04L529.969 321.54C529.403 321.802 528.783 321.925 528.16 321.899C527.537 321.873 526.929 321.699 526.387 321.391L429.216 265.25C428.503 264.834 428.22 264.283 428.384 263.763C428.54 264.161 428.836 264.489 429.216 264.685Z" fill="white"/>
<path d="M555.666 309.253V308.182C555.666 308.078 555.666 308.033 555.517 308.078L551.772 310.249C551.726 310.277 551.688 310.317 551.662 310.364C551.636 310.411 551.623 310.464 551.623 310.517V311.588C551.623 311.677 551.623 311.737 551.772 311.692L555.517 309.52C555.563 309.492 555.6 309.453 555.626 309.406C555.652 309.359 555.666 309.306 555.666 309.253Z" fill="#2842A2"/>
<path d="M550.047 312.496V311.439C550.047 311.335 549.973 311.291 549.899 311.335L546.139 313.507C546.098 313.536 546.064 313.573 546.041 313.617C546.018 313.661 546.005 313.71 546.005 313.76V314.831C546.005 314.935 546.005 314.98 546.139 314.935L549.899 312.763C549.942 312.733 549.978 312.693 550.003 312.646C550.029 312.6 550.044 312.549 550.047 312.496Z" fill="#2842A2"/>
<path d="M572.817 284.901L492.069 238.236C491.805 238.083 491.505 238.003 491.2 238.003C490.895 238.003 490.595 238.083 490.33 238.236L461.572 254.897C461.475 254.949 461.395 255.026 461.339 255.121C461.283 255.215 461.254 255.323 461.254 255.432C461.254 255.542 461.283 255.649 461.339 255.744C461.395 255.838 461.475 255.915 461.572 255.968L542.289 302.603C542.551 302.756 542.849 302.837 543.151 302.837C543.454 302.837 543.752 302.756 544.013 302.603L572.817 285.972C572.913 285.92 572.993 285.842 573.049 285.748C573.105 285.654 573.135 285.546 573.135 285.437C573.135 285.327 573.105 285.219 573.049 285.125C572.993 285.031 572.913 284.954 572.817 284.901Z" fill="#ADB1F2"/>
<path d="M572.817 285.972L572.52 286.136L492.069 239.649C491.805 239.496 491.505 239.416 491.2 239.416C490.895 239.416 490.595 239.496 490.331 239.649L461.914 256.131L461.631 255.968C461.535 255.915 461.455 255.838 461.399 255.744C461.343 255.649 461.313 255.542 461.313 255.432C461.313 255.323 461.343 255.215 461.399 255.121C461.455 255.026 461.535 254.949 461.631 254.897L490.39 238.236C490.654 238.083 490.954 238.003 491.259 238.003C491.565 238.003 491.865 238.083 492.129 238.236L572.876 284.901C572.97 284.959 573.046 285.04 573.097 285.138C573.148 285.235 573.172 285.345 573.165 285.454C573.159 285.564 573.124 285.67 573.062 285.761C573.001 285.852 572.916 285.925 572.817 285.972Z" fill="#9198DB"/>
<path d="M488.161 242.461L558.296 282.997L561.418 281.182L491.282 240.661L488.161 242.461Z" fill="#24126A"/>
<path d="M480.521 246.879L546.302 284.886L549.423 283.086L483.642 245.079L480.521 246.879Z" fill="#24126A"/>
<path d="M475.542 249.75L552.99 294.511L556.111 292.711L478.648 247.95L475.542 249.75Z" fill="#24126A"/>
<path d="M470.563 252.636L548.012 297.397L551.133 295.597L473.67 250.836L470.563 252.636Z" fill="#24126A"/>
<path d="M465.569 255.507L543.032 300.268L546.153 298.468L468.69 253.707L465.569 255.507Z" fill="#24126A"/>
<path d="M562.547 285.437L565.653 287.237L568.774 285.437L565.653 283.637L562.547 285.437Z" fill="#24126A"/>
<path d="M551.549 287.921L558.014 291.655L561.135 289.855L554.655 286.121L551.549 287.921Z" fill="#24126A"/>
<path d="M488.963 296.192L467.189 283.607C466.327 283.116 466.327 282.328 467.189 281.837L482.052 273.224C482.531 272.982 483.061 272.856 483.598 272.856C484.134 272.856 484.664 272.982 485.143 273.224L506.917 285.809C507.106 285.869 507.271 285.988 507.388 286.149C507.505 286.309 507.568 286.503 507.568 286.701C507.568 286.9 507.505 287.093 507.388 287.254C507.271 287.414 507.106 287.533 506.917 287.594L492.054 296.192C491.576 296.436 491.046 296.563 490.509 296.563C489.971 296.563 489.442 296.436 488.963 296.192Z" fill="url(#paint26_linear_241_52)"/>
<path d="M506.932 286.538L485.158 273.953C484.679 273.711 484.149 273.585 483.612 273.585C483.076 273.585 482.546 273.711 482.067 273.953L467.204 282.566C466.975 282.678 466.788 282.86 466.669 283.086C466.432 282.655 466.669 282.164 467.204 281.837L482.067 273.224C482.546 272.982 483.076 272.856 483.612 272.856C484.149 272.856 484.679 272.982 485.158 273.224L506.932 285.809C507.511 286.151 507.69 286.627 507.467 287.058C507.339 286.839 507.154 286.659 506.932 286.538Z" fill="#9198DB"/>
<g opacity="0.11">
<path d="M490.405 229.697L587.575 285.853C588.123 286.153 588.732 286.323 589.356 286.349C589.98 286.374 590.602 286.256 591.172 286.002L649.135 252.487C650.057 251.951 649.953 250.999 648.883 250.419L551.712 194.263C551.166 193.959 550.556 193.788 549.932 193.762C549.307 193.736 548.685 193.857 548.116 194.114L490.152 227.6C489.231 228.15 489.35 229.087 490.405 229.697Z" fill="url(#paint27_linear_241_52)"/>
<path d="M587.873 239.768L566.099 227.183C565.91 227.123 565.745 227.004 565.628 226.843C565.511 226.683 565.448 226.489 565.448 226.291C565.448 226.092 565.511 225.899 565.628 225.738C565.745 225.578 565.91 225.459 566.099 225.398L580.962 216.8C581.441 216.558 581.97 216.432 582.507 216.432C583.044 216.432 583.573 216.558 584.053 216.8L605.826 229.385C606.01 229.449 606.169 229.568 606.282 229.727C606.394 229.886 606.455 230.075 606.455 230.27C606.455 230.464 606.394 230.654 606.282 230.813C606.169 230.971 606.01 231.091 605.826 231.155L590.964 239.768C590.485 240.012 589.956 240.14 589.418 240.14C588.881 240.14 588.351 240.012 587.873 239.768Z" fill="url(#paint28_linear_241_52)"/>
<path d="M605.841 230.114L584.068 217.529C583.588 217.287 583.059 217.161 582.522 217.161C581.985 217.161 581.456 217.287 580.976 217.529L566.114 226.127C565.884 226.245 565.697 226.432 565.579 226.662C565.341 226.231 565.579 225.74 566.114 225.398L580.976 216.8C581.456 216.558 581.985 216.432 582.522 216.432C583.059 216.432 583.588 216.558 584.068 216.8L605.841 229.385C606.421 229.712 606.599 230.203 606.376 230.634C606.249 230.415 606.064 230.235 605.841 230.114Z" fill="#9198DB"/>
<path d="M615.412 259.419L534.739 212.724C534.475 212.571 534.175 212.49 533.87 212.49C533.565 212.49 533.265 212.571 533 212.724L504.242 229.37C504.145 229.422 504.065 229.5 504.009 229.594C503.953 229.688 503.924 229.796 503.924 229.905C503.924 230.015 503.953 230.122 504.009 230.217C504.065 230.311 504.145 230.388 504.242 230.441L584.945 277.091C585.209 277.244 585.509 277.324 585.814 277.324C586.119 277.324 586.419 277.244 586.683 277.091L615.487 260.46C615.566 260.395 615.628 260.312 615.668 260.218C615.709 260.124 615.726 260.022 615.719 259.92C615.711 259.818 615.68 259.719 615.626 259.632C615.573 259.545 615.5 259.472 615.412 259.419Z" fill="#ADB1F2"/>
<path d="M615.412 260.505L615.115 260.668L534.739 214.211C534.474 214.061 534.174 213.983 533.87 213.983C533.565 213.983 533.266 214.061 533 214.211L504.524 230.708L504.242 230.53C504.145 230.478 504.065 230.4 504.009 230.306C503.953 230.212 503.924 230.104 503.924 229.994C503.924 229.885 503.953 229.777 504.009 229.683C504.065 229.589 504.145 229.511 504.242 229.459L532.926 212.724C533.19 212.571 533.49 212.49 533.795 212.49C534.101 212.49 534.401 212.571 534.665 212.724L615.412 259.374C615.515 259.429 615.601 259.51 615.661 259.61C615.721 259.709 615.752 259.823 615.752 259.939C615.752 260.056 615.721 260.17 615.661 260.269C615.601 260.369 615.515 260.45 615.412 260.505Z" fill="#9198DB"/>
<path d="M511.703 228.284L582.047 268.924L579.253 270.546L508.909 229.89L511.703 228.284Z" fill="#24126A"/>
<path d="M519.104 224L585.97 262.632L583.191 264.239L516.325 225.606L519.104 224Z" fill="#24126A"/>
<path d="M590.964 265.518L597.206 269.133L594.427 270.739L588.17 267.125L590.964 265.518Z" fill="#24126A"/>
<path d="M585.45 270.903L589.79 273.417L587.01 275.024L582.656 272.51L585.45 270.903Z" fill="#24126A"/>
<path d="M523.756 221.307L601.858 266.44L599.064 268.047L520.962 222.929L523.756 221.307Z" fill="#24126A"/>
<path d="M528.393 218.629L606.495 263.763L603.716 265.369L525.614 220.236L528.393 218.629Z" fill="#24126A"/>
<path d="M533.045 215.952L611.147 261.07L608.353 262.692L530.251 217.558L533.045 215.952Z" fill="#24126A"/>
</g>
<path d="M524.826 183.642L532.48 188.075L532.718 186.736L525.049 182.318L524.826 183.642Z" fill="#42E8E0"/>
<path d="M533.714 188.774L537.89 191.198L538.113 189.86L533.937 187.45L533.714 188.774Z" fill="#42E8E0"/>
<path d="M544.385 194.947L547.402 196.688L547.625 195.349L544.608 193.608L544.385 194.947Z" fill="#42E8E0"/>
<path d="M542.185 193.668L543.211 194.263L543.433 192.939L542.408 192.344L542.185 193.668Z" fill="#42E8E0"/>
<path d="M539.139 191.913L541.011 192.998L541.234 191.66L539.362 190.574L539.139 191.913Z" fill="#42E8E0"/>
<path d="M530.89 193.817L533.907 195.572L534.13 194.233L531.113 192.493L530.89 193.817Z" fill="#42E8E0"/>
<path d="M523.8 189.726L529.716 193.147L529.938 191.808L524.023 188.387L523.8 189.726Z" fill="#42E8E0"/>
<path d="M532.287 211.281L538.202 214.702L538.425 213.378L532.51 209.957L532.287 211.281Z" fill="#42E8E0"/>
<path d="M529.24 209.526L531.113 210.612L531.336 209.288L529.463 208.202L529.24 209.526Z" fill="#42E8E0"/>
<path d="M533.268 205.197L539.183 208.618L539.406 207.294L533.491 203.873L533.268 205.197Z" fill="#42E8E0"/>
<path d="M530.221 203.441L532.094 204.527L532.332 203.188L530.459 202.117L530.221 203.441Z" fill="#42E8E0"/>
<path d="M527.918 237.551L516.771 231.11L516.548 232.449L527.695 238.89L527.918 237.551Z" fill="#42E8E0"/>
<path d="M531.841 239.827L529.092 238.236L528.869 239.56L531.618 241.151L531.841 239.827Z" fill="#42E8E0"/>
<path d="M551.415 241.122L540.283 234.68L540.06 236.004L551.192 242.446L551.415 241.122Z" fill="#42E8E0"/>
<path d="M555.354 243.398L552.589 241.791L552.366 243.13L555.116 244.722L555.354 243.398Z" fill="#42E8E0"/>
<path d="M520.308 229.816L517.291 228.076L517.068 229.4L520.085 231.155L520.308 229.816Z" fill="#42E8E0"/>
<path d="M538.678 233.758L535.661 232.018L535.423 233.342L538.455 235.097L538.678 233.758Z" fill="#42E8E0"/>
<path d="M527.397 233.922L521.482 230.5L521.259 231.824L527.159 235.246L527.397 233.922Z" fill="#42E8E0"/>
<path d="M530.429 235.677L528.556 234.591L528.333 235.915L530.206 237.001L530.429 235.677Z" fill="#42E8E0"/>
<path d="M537.578 239.798L531.663 236.376L531.44 237.7L537.355 241.122L537.578 239.798Z" fill="#42E8E0"/>
<path d="M540.61 241.553L538.737 240.482L538.514 241.806L540.387 242.892L540.61 241.553Z" fill="#42E8E0"/>
<path d="M538.158 236.808L535.14 235.052L534.917 236.391L537.935 238.132L538.158 236.808Z" fill="#42E8E0"/>
<path d="M545.247 240.898L539.332 237.477L539.109 238.801L545.009 242.237L545.247 240.898Z" fill="#42E8E0"/>
<path d="M548.279 242.654L546.406 241.583L546.183 242.907L548.056 243.993L548.279 242.654Z" fill="#42E8E0"/>
<path d="M523.979 228.611L517.811 225.041L517.573 226.365L523.756 229.935L523.979 228.611Z" fill="#42E8E0"/>
<path d="M529.612 231.869L525.153 229.281L524.93 230.619L529.389 233.193L529.612 231.869Z" fill="#42E8E0"/>
<path d="M533.803 234.294L530.786 232.538L530.563 233.877L533.58 235.618L533.803 234.294Z" fill="#42E8E0"/>
<path d="M563.067 247.846L556.899 244.275L556.676 245.599L562.844 249.184L563.067 247.846Z" fill="#42E8E0"/>
<path d="M568.715 251.103L564.241 248.53L564.018 249.854L568.477 252.442L568.715 251.103Z" fill="#42E8E0"/>
<path d="M572.891 253.528L569.874 251.788L569.651 253.112L572.668 254.867L572.891 253.528Z" fill="#42E8E0"/>
<path d="M560.659 207.681L566.842 211.251L567.065 209.927L560.882 206.357L560.659 207.681Z" fill="#42E8E0"/>
<path d="M555.026 204.423L559.485 207.011L559.723 205.673L555.249 203.099L555.026 204.423Z" fill="#42E8E0"/>
<path d="M550.835 201.998L553.853 203.754L554.075 202.415L551.058 200.674L550.835 201.998Z" fill="#42E8E0"/>
<path d="M558.608 203.159L564.791 206.729L565.014 205.39L558.831 201.82L558.608 203.159Z" fill="#42E8E0"/>
<path d="M552.976 199.886L557.434 202.474L557.672 201.15L553.199 198.562L552.976 199.886Z" fill="#42E8E0"/>
<path d="M548.784 197.476L551.801 199.216L552.024 197.893L549.007 196.137L548.784 197.476Z" fill="#42E8E0"/>
<path d="M533.669 208.767L535.765 209.987L535.987 208.648L533.907 207.443L533.669 208.767Z" fill="#42E8E0"/>
<path d="M529.746 206.506L532.51 208.098L532.733 206.774L529.983 205.167L529.746 206.506Z" fill="#42E8E0"/>
<path d="M524.529 225.591L518.361 222.006L518.138 223.345L524.306 226.915L524.529 225.591Z" fill="#42E8E0"/>
<path d="M530.162 228.849L525.703 226.261L525.48 227.585L529.939 230.173L530.162 228.849Z" fill="#42E8E0"/>
<path d="M534.353 231.274L531.336 229.519L531.113 230.857L534.13 232.598L534.353 231.274Z" fill="#42E8E0"/>
<path d="M520.947 220.177L518.866 218.972L518.643 220.296L520.724 221.515L520.947 220.177Z" fill="#42E8E0"/>
<path d="M524.885 222.453L522.121 220.861L521.898 222.185L524.662 223.776L524.885 222.453Z" fill="#42E8E0"/>
<path d="M530.489 225.696L526.045 223.122L525.822 224.461L530.266 227.034L530.489 225.696Z" fill="#42E8E0"/>
<path d="M536.508 200.392L538.603 201.597L538.826 200.273L536.731 199.068L536.508 200.392Z" fill="#42E8E0"/>
<path d="M532.584 198.116L535.348 199.722L535.571 198.383L532.807 196.792L532.584 198.116Z" fill="#42E8E0"/>
<path d="M526.981 194.873L531.425 197.446L531.648 196.122L527.204 193.549L526.981 194.873Z" fill="#42E8E0"/>
<path d="M539.688 205.331L544.132 207.889L544.355 206.565L539.911 203.992L539.688 205.331Z" fill="#42E8E0"/>
<path d="M532.421 201.359L538.41 204.825L538.633 203.501L532.644 200.035L532.421 201.359Z" fill="#42E8E0"/>
<path d="M529.389 199.603L531.261 200.689L531.484 199.35L529.612 198.279L529.389 199.603Z" fill="#42E8E0"/>
<path d="M526.461 197.907L528.334 198.993L528.556 197.669L526.684 196.583L526.461 197.907Z" fill="#42E8E0"/>
<path d="M526.862 215.089L532.778 218.511L533 217.187L527.085 213.765L526.862 215.089Z" fill="#42E8E0"/>
<path d="M523.815 213.334L525.688 214.405L525.926 213.081L524.053 211.995L523.815 213.334Z" fill="#42E8E0"/>
<path d="M527.278 218.659L529.359 219.864L529.582 218.54L527.501 217.335L527.278 218.659Z" fill="#42E8E0"/>
<path d="M534.635 216.235L536.716 217.439L536.954 216.101L534.858 214.896L534.635 216.235Z" fill="#42E8E0"/>
<path d="M537.607 217.945L542.616 220.846L542.839 219.507L537.83 216.621L537.607 217.945Z" fill="#42E8E0"/>
<path d="M543.508 221.352L546.48 223.077L546.703 221.739L543.731 220.028L543.508 221.352Z" fill="#42E8E0"/>
<path d="M523.34 216.398L526.104 217.99L526.327 216.651L523.578 215.059L523.34 216.398Z" fill="#42E8E0"/>
<path d="M523.087 219.507L525.168 220.727L525.391 219.388L523.31 218.183L523.087 219.507Z" fill="#42E8E0"/>
<path d="M519.164 217.246L521.913 218.838L522.136 217.514L519.387 215.907L519.164 217.246Z" fill="#42E8E0"/>
<path d="M531.603 214.479L533.476 215.565L533.713 214.226L531.841 213.155L531.603 214.479Z" fill="#42E8E0"/>
<path d="M528.69 212.783L530.563 213.869L530.786 212.545L528.913 211.459L528.69 212.783Z" fill="#42E8E0"/>
<path d="M543.077 197.521L549.468 201.21L549.691 199.886L543.3 196.182L543.077 197.521Z" fill="#42E8E0"/>
<path d="M535.928 193.37L541.903 196.836L542.126 195.512L536.151 192.046L535.928 193.37Z" fill="#42E8E0"/>
<path d="M532.881 191.615L534.754 192.701L534.977 191.362L533.104 190.291L532.881 191.615Z" fill="#42E8E0"/>
<path d="M529.954 189.919L531.826 191.005L532.049 189.681L530.177 188.595L529.954 189.919Z" fill="#42E8E0"/>
<path d="M528.363 188.997L524.321 186.661L524.544 185.337L528.586 187.673L528.363 188.997Z" fill="#42E8E0"/>
<path d="M114.98 399.995C113.68 400 112.402 399.655 111.279 398.998L1.17846 335.36C0.820309 335.154 0.522771 334.857 0.315863 334.499C0.108955 334.141 0 333.735 0 333.322C0 332.908 0.108955 332.502 0.315863 332.144C0.522771 331.787 0.820309 331.49 1.17846 331.284L97.9774 275.351L98.4679 276.199L1.62434 332.132C1.41473 332.251 1.24081 332.424 1.1206 332.634C1.00039 332.843 0.938268 333.08 0.94066 333.322C0.936683 333.563 0.998146 333.802 1.11851 334.011C1.23888 334.221 1.41367 334.394 1.62434 334.512L111.755 398.165C112.734 398.728 113.844 399.024 114.973 399.024C116.102 399.024 117.211 398.728 118.19 398.165L175.262 365.171L175.752 366.019L118.681 398.998C117.557 399.653 116.28 399.997 114.98 399.995Z" fill="#8686F2"/>
<path style="mix-blend-mode:lighten" d="M62.2479 379.585C69.3284 376.557 72.6165 368.358 69.592 361.272C66.5675 354.185 58.3759 350.894 51.2954 353.921C44.2149 356.948 40.9269 365.147 43.9514 372.234C46.9758 379.321 55.1675 382.612 62.2479 379.585Z" fill="url(#paint29_radial_241_52)"/>
<path d="M60.0186 364.873C59.6411 364.224 59.0797 363.702 58.4053 363.372C57.7309 363.043 56.974 362.921 56.2305 363.023C55.487 363.124 54.7904 363.445 54.2289 363.943C53.6673 364.441 53.2663 365.095 53.0764 365.822C52.8866 366.548 52.9165 367.315 53.1625 368.025C53.4084 368.734 53.8593 369.355 54.4579 369.808C55.0566 370.26 55.7761 370.525 56.5252 370.568C57.2744 370.612 58.0195 370.431 58.6661 370.05C59.5294 369.541 60.1562 368.711 60.4097 367.741C60.6631 366.771 60.5225 365.74 60.0186 364.873Z" fill="url(#paint30_radial_241_52)"/>
<path style="mix-blend-mode:lighten" d="M161.162 389.256C168.242 386.229 171.53 378.03 168.506 370.943C165.481 363.856 157.289 360.565 150.209 363.592C143.129 366.62 139.84 374.819 142.865 381.905C145.889 388.992 154.081 392.283 161.162 389.256Z" fill="url(#paint31_radial_241_52)"/>
<path d="M158.958 374.543C158.582 373.893 158.022 373.37 157.348 373.039C156.675 372.708 155.918 372.585 155.175 372.685C154.431 372.784 153.734 373.103 153.172 373.599C152.609 374.096 152.206 374.749 152.015 375.475C151.823 376.201 151.851 376.967 152.094 377.677C152.338 378.387 152.787 379.009 153.384 379.463C153.981 379.918 154.7 380.185 155.449 380.231C156.197 380.276 156.943 380.098 157.591 379.719C158.456 379.213 159.086 378.384 159.343 377.414C159.599 376.443 159.461 375.411 158.958 374.543Z" fill="url(#paint32_radial_241_52)"/>
<path style="mix-blend-mode:lighten" d="M330.885 388.132C337.966 385.105 341.254 376.906 338.229 369.819C335.205 362.732 327.013 359.441 319.933 362.468C312.852 365.495 309.564 373.694 312.589 380.781C315.613 387.868 323.805 391.159 330.885 388.132Z" fill="url(#paint33_radial_241_52)"/>
<path d="M328.657 373.382C328.279 372.733 327.718 372.211 327.043 371.881C326.369 371.552 325.612 371.43 324.869 371.532C324.125 371.633 323.429 371.954 322.867 372.452C322.306 372.95 321.904 373.604 321.715 374.331C321.525 375.057 321.555 375.824 321.801 376.534C322.047 377.243 322.497 377.864 323.096 378.317C323.695 378.77 324.414 379.034 325.163 379.077C325.913 379.121 326.658 378.94 327.304 378.559C328.168 378.05 328.794 377.22 329.048 376.25C329.301 375.28 329.161 374.249 328.657 373.382Z" fill="url(#paint34_radial_241_52)"/>
<path style="mix-blend-mode:lighten" d="M355.662 378.99C354.273 376.605 352.209 374.686 349.73 373.475C347.251 372.265 344.47 371.817 341.737 372.189C339.004 372.562 336.442 373.737 334.377 375.567C332.312 377.396 330.835 379.798 330.134 382.468C329.433 385.138 329.538 387.956 330.438 390.566C331.337 393.175 332.99 395.459 335.187 397.129C337.383 398.798 340.026 399.778 342.779 399.944C345.532 400.11 348.272 399.455 350.653 398.061C353.842 396.195 356.161 393.139 357.1 389.563C358.039 385.987 357.522 382.185 355.662 378.99Z" fill="url(#paint35_radial_241_52)"/>
<path d="M343.638 389.82C345.731 389.82 347.428 388.122 347.428 386.027C347.428 383.932 345.731 382.233 343.638 382.233C341.545 382.233 339.848 383.932 339.848 386.027C339.848 388.122 341.545 389.82 343.638 389.82Z" fill="url(#paint36_radial_241_52)"/>
<path style="mix-blend-mode:lighten" d="M449.204 369.769C456.121 366.385 458.988 358.029 455.607 351.106C452.225 344.182 443.877 341.313 436.96 344.697C430.043 348.082 427.176 356.438 430.557 363.361C433.939 370.285 442.287 373.154 449.204 369.769Z" fill="url(#paint37_radial_241_52)"/>
<path d="M446.352 355.293C445.976 354.644 445.416 354.12 444.743 353.79C444.069 353.459 443.313 353.335 442.569 353.435C441.826 353.535 441.129 353.853 440.566 354.35C440.003 354.847 439.601 355.499 439.409 356.225C439.217 356.951 439.245 357.718 439.489 358.428C439.733 359.138 440.182 359.76 440.779 360.214C441.376 360.669 442.094 360.936 442.843 360.981C443.592 361.027 444.337 360.849 444.985 360.47C445.851 359.964 446.481 359.135 446.737 358.164C446.993 357.194 446.855 356.162 446.352 355.293Z" fill="url(#paint38_radial_241_52)"/>
<path style="mix-blend-mode:lighten" d="M478.574 315.694C477.182 313.311 475.116 311.395 472.636 310.188C470.156 308.981 467.374 308.537 464.643 308.913C461.911 309.288 459.351 310.466 457.288 312.298C455.226 314.129 453.752 316.532 453.053 319.202C452.354 321.872 452.463 324.689 453.364 327.297C454.265 329.906 455.919 332.188 458.116 333.856C460.314 335.523 462.956 336.501 465.708 336.665C468.461 336.83 471.2 336.174 473.58 334.78C475.161 333.856 476.545 332.629 477.652 331.169C478.759 329.71 479.567 328.046 480.031 326.273C480.495 324.501 480.605 322.654 480.355 320.838C480.105 319.023 479.5 317.275 478.574 315.694Z" fill="url(#paint39_radial_241_52)"/>
<path d="M469.82 320.826C469.442 320.178 468.881 319.657 468.208 319.329C467.534 319 466.778 318.879 466.036 318.98C465.293 319.081 464.598 319.401 464.036 319.897C463.475 320.394 463.074 321.047 462.883 321.772C462.692 322.497 462.72 323.263 462.963 323.972C463.207 324.681 463.655 325.302 464.251 325.757C464.847 326.211 465.564 326.478 466.312 326.525C467.06 326.571 467.805 326.395 468.453 326.018C468.883 325.767 469.26 325.434 469.562 325.037C469.864 324.64 470.085 324.188 470.212 323.706C470.339 323.223 470.37 322.721 470.302 322.227C470.235 321.733 470.071 321.257 469.82 320.826Z" fill="url(#paint40_radial_241_52)"/>
<path style="mix-blend-mode:lighten" d="M457.113 303.035C455.722 300.655 453.658 298.742 451.181 297.536C448.704 296.331 445.926 295.888 443.197 296.263C440.469 296.638 437.913 297.814 435.852 299.643C433.791 301.472 432.319 303.871 431.621 306.538C430.922 309.204 431.03 312.018 431.929 314.624C432.829 317.229 434.48 319.509 436.674 321.176C438.868 322.842 441.506 323.82 444.255 323.985C447.005 324.151 449.741 323.497 452.119 322.106C453.7 321.183 455.083 319.958 456.19 318.499C457.296 317.041 458.105 315.379 458.569 313.607C459.033 311.836 459.143 309.99 458.893 308.176C458.643 306.362 458.038 304.615 457.113 303.035Z" fill="url(#paint41_radial_241_52)"/>
<path d="M448.359 308.152C447.98 307.505 447.417 306.985 446.743 306.658C446.068 306.33 445.312 306.211 444.57 306.314C443.827 306.417 443.132 306.738 442.572 307.236C442.011 307.735 441.612 308.388 441.422 309.114C441.233 309.84 441.264 310.606 441.509 311.315C441.755 312.023 442.205 312.643 442.803 313.096C443.4 313.549 444.119 313.814 444.867 313.858C445.615 313.902 446.36 313.723 447.006 313.344C447.871 312.832 448.498 311.999 448.751 311.027C449.004 310.054 448.863 309.021 448.359 308.152Z" fill="url(#paint42_radial_241_52)"/>
<path style="mix-blend-mode:lighten" d="M435.667 291.238C434.272 288.857 432.203 286.943 429.721 285.738C427.24 284.534 424.457 284.093 421.725 284.472C418.993 284.851 416.435 286.033 414.374 287.868C412.314 289.702 410.843 292.107 410.148 294.779C409.453 297.45 409.566 300.268 410.471 302.875C411.376 305.482 413.034 307.762 415.235 309.427C417.435 311.091 420.079 312.064 422.833 312.224C425.586 312.384 428.325 311.722 430.702 310.324C433.888 308.45 436.2 305.388 437.13 301.809C438.061 298.231 437.535 294.428 435.667 291.238Z" fill="url(#paint43_radial_241_52)"/>
<path d="M426.897 296.37C426.518 295.723 425.956 295.203 425.281 294.876C424.607 294.549 423.851 294.429 423.108 294.532C422.366 294.635 421.67 294.956 421.11 295.454C420.55 295.953 420.15 296.606 419.961 297.332C419.772 298.058 419.802 298.824 420.048 299.533C420.293 300.242 420.744 300.862 421.341 301.314C421.939 301.767 422.657 302.032 423.406 302.076C424.154 302.12 424.898 301.941 425.545 301.562C426.409 301.05 427.036 300.217 427.29 299.245C427.543 298.272 427.402 297.239 426.897 296.37Z" fill="url(#paint44_radial_241_52)"/>
<path style="mix-blend-mode:lighten" d="M51.4432 349.581C50.0514 347.198 47.9849 345.282 45.5051 344.075C43.0253 342.868 40.2435 342.424 37.5117 342.8C34.7798 343.175 32.2206 344.353 30.1576 346.185C28.0947 348.016 26.6207 350.419 25.9221 353.089C25.2235 355.759 25.3317 358.576 26.233 361.184C27.1342 363.793 28.7881 366.075 30.9854 367.743C33.1827 369.41 35.8248 370.388 38.5774 370.552C41.33 370.717 44.0695 370.061 46.4494 368.667C49.6397 366.798 51.9579 363.738 52.8944 360.159C53.8308 356.58 53.3088 352.775 51.4432 349.581Z" fill="url(#paint45_radial_241_52)"/>
<path d="M39.4193 360.47C41.5124 360.47 43.2092 358.772 43.2092 356.677C43.2092 354.582 41.5124 352.884 39.4193 352.884C37.3262 352.884 35.6294 354.582 35.6294 356.677C35.6294 358.772 37.3262 360.47 39.4193 360.47Z" fill="url(#paint46_radial_241_52)"/>
<path style="mix-blend-mode:lighten" d="M35.5678 350.113C37.5202 342.659 33.0655 335.032 25.6178 333.078C18.1701 331.123 10.5498 335.582 8.59728 343.037C6.64481 350.491 11.0995 358.118 18.5472 360.072C25.9949 362.027 33.6153 357.568 35.5678 350.113Z" fill="url(#paint47_radial_241_52)"/>
<path d="M25.3448 344.672C24.9673 344.023 24.4058 343.501 23.7315 343.171C23.0571 342.842 22.3002 342.72 21.5567 342.822C20.8132 342.923 20.1165 343.243 19.555 343.742C18.9935 344.24 18.5924 344.894 18.4026 345.621C18.2127 346.347 18.2427 347.114 18.4886 347.823C18.7346 348.533 19.1854 349.154 19.7841 349.606C20.3828 350.059 21.1023 350.324 21.8514 350.367C22.6006 350.41 23.3457 350.23 23.9923 349.849C24.8555 349.34 25.4824 348.51 25.7358 347.54C25.9893 346.57 25.8487 345.539 25.3448 344.672Z" fill="url(#paint48_radial_241_52)"/>
<path style="mix-blend-mode:lighten" d="M76.219 287.475C74.8268 285.097 72.7617 283.186 70.2847 281.983C67.8078 280.78 65.03 280.338 62.3025 280.715C59.575 281.091 57.0202 282.268 54.9609 284.097C52.9016 285.926 51.4302 288.325 50.7326 290.991C50.0351 293.657 50.1428 296.47 51.042 299.075C51.9412 301.68 53.5916 303.959 55.7847 305.625C57.9777 307.291 60.615 308.269 63.3633 308.436C66.1116 308.602 68.8475 307.95 71.2252 306.56C72.8064 305.636 74.19 304.41 75.2969 302.95C76.4038 301.49 77.2124 299.827 77.6762 298.054C78.14 296.281 78.25 294.434 78 292.619C77.75 290.804 77.1448 289.056 76.219 287.475Z" fill="url(#paint49_radial_241_52)"/>
<path d="M67.4649 292.607C67.0874 291.958 66.5259 291.435 65.8516 291.106C65.1772 290.776 64.4203 290.655 63.6768 290.756C62.9333 290.858 62.2366 291.178 61.6751 291.676C61.1136 292.175 60.7125 292.829 60.5227 293.555C60.3329 294.282 60.3628 295.049 60.6088 295.758C60.8547 296.468 61.3056 297.088 61.9042 297.541C62.5029 297.994 63.2224 298.259 63.9715 298.302C64.7207 298.345 65.4658 298.165 66.1124 297.784C66.9757 297.275 67.6025 296.445 67.856 295.475C68.1094 294.504 67.9688 293.473 67.4649 292.607Z" fill="url(#paint50_radial_241_52)"/>
<path style="mix-blend-mode:lighten" d="M94.8118 277.731C93.4232 275.346 91.3589 273.426 88.8801 272.216C86.4013 271.005 83.6194 270.558 80.8865 270.93C78.1536 271.302 75.5924 272.478 73.527 274.307C71.4617 276.137 69.985 278.539 69.2837 281.209C68.5825 283.879 68.6883 286.697 69.5878 289.306C70.4872 291.916 72.1398 294.2 74.3366 295.869C76.5333 297.539 79.1754 298.518 81.9285 298.684C84.6817 298.85 87.4222 298.195 89.8032 296.802C92.9919 294.936 95.3104 291.879 96.2495 288.304C97.1886 284.728 96.6715 280.925 94.8118 277.731Z" fill="url(#paint51_radial_241_52)"/>
<path d="M85.9833 282.848C85.6041 282.201 85.0417 281.681 84.3672 281.354C83.6927 281.027 82.9365 280.907 82.194 281.01C81.4516 281.113 80.7563 281.434 80.1962 281.932C79.636 282.431 79.236 283.084 79.0469 283.81C78.8578 284.536 78.888 285.302 79.1337 286.011C79.3794 286.72 79.8295 287.34 80.4272 287.792C81.0249 288.245 81.7432 288.51 82.4915 288.554C83.2397 288.598 83.9842 288.419 84.6308 288.04C85.4951 287.528 86.1223 286.695 86.3756 285.723C86.629 284.75 86.4879 283.717 85.9833 282.848Z" fill="url(#paint52_radial_241_52)"/>
<defs>
<linearGradient id="paint0_linear_241_52" x1="333.372" y1="226.591" x2="303.342" y2="174.862" gradientUnits="userSpaceOnUse">
<stop stop-color="#42E8E0"/>
<stop offset="0.02" stop-color="#40DEDA"/>
<stop offset="0.11" stop-color="#37ADBC"/>
<stop offset="0.22" stop-color="#2E82A2"/>
<stop offset="0.32" stop-color="#285E8C"/>
<stop offset="0.43" stop-color="#22417A"/>
<stop offset="0.55" stop-color="#1E2A6C"/>
<stop offset="0.67" stop-color="#1A1A63"/>
<stop offset="0.81" stop-color="#19105D"/>
<stop offset="1" stop-color="#180D5B"/>
</linearGradient>
<linearGradient id="paint1_linear_241_52" x1="330.348" y1="245.563" x2="300.599" y2="297.279" gradientUnits="userSpaceOnUse">
<stop stop-color="#42E8E0"/>
<stop offset="0.02" stop-color="#40DEDA"/>
<stop offset="0.11" stop-color="#37ADBC"/>
<stop offset="0.22" stop-color="#2E82A2"/>
<stop offset="0.32" stop-color="#285E8C"/>
<stop offset="0.43" stop-color="#22417A"/>
<stop offset="0.55" stop-color="#1E2A6C"/>
<stop offset="0.67" stop-color="#1A1A63"/>
<stop offset="0.81" stop-color="#19105D"/>
<stop offset="1" stop-color="#180D5B"/>
</linearGradient>
<linearGradient id="paint2_linear_241_52" x1="364.208" y1="246.479" x2="394.231" y2="298.197" gradientUnits="userSpaceOnUse">
<stop stop-color="#42E8E0"/>
<stop offset="0.02" stop-color="#40DEDA"/>
<stop offset="0.11" stop-color="#37ADBC"/>
<stop offset="0.22" stop-color="#2E82A2"/>
<stop offset="0.32" stop-color="#285E8C"/>
<stop offset="0.43" stop-color="#22417A"/>
<stop offset="0.55" stop-color="#1E2A6C"/>
<stop offset="0.67" stop-color="#1A1A63"/>
<stop offset="0.81" stop-color="#19105D"/>
<stop offset="1" stop-color="#180D5B"/>
</linearGradient>
<linearGradient id="paint3_linear_241_52" x1="137.441" y1="227.804" x2="167.19" y2="176.088" gradientUnits="userSpaceOnUse">
<stop stop-color="#42E8E0"/>
<stop offset="0.02" stop-color="#40DEDA"/>
<stop offset="0.11" stop-color="#37ADBC"/>
<stop offset="0.22" stop-color="#2E82A2"/>
<stop offset="0.32" stop-color="#285E8C"/>
<stop offset="0.43" stop-color="#22417A"/>
<stop offset="0.55" stop-color="#1E2A6C"/>
<stop offset="0.67" stop-color="#1A1A63"/>
<stop offset="0.81" stop-color="#19105D"/>
<stop offset="1" stop-color="#180D5B"/>
</linearGradient>
<linearGradient id="paint4_linear_241_52" x1="100.572" y1="245.86" x2="70.8228" y2="297.576" gradientUnits="userSpaceOnUse">
<stop stop-color="#42E8E0"/>
<stop offset="0.02" stop-color="#40DEDA"/>
<stop offset="0.11" stop-color="#37ADBC"/>
<stop offset="0.22" stop-color="#2E82A2"/>
<stop offset="0.32" stop-color="#285E8C"/>
<stop offset="0.43" stop-color="#22417A"/>
<stop offset="0.55" stop-color="#1E2A6C"/>
<stop offset="0.67" stop-color="#1A1A63"/>
<stop offset="0.81" stop-color="#19105D"/>
<stop offset="1" stop-color="#180D5B"/>
</linearGradient>
<linearGradient id="paint5_linear_241_52" x1="134.447" y1="246.767" x2="164.476" y2="298.496" gradientUnits="userSpaceOnUse">
<stop stop-color="#42E8E0"/>
<stop offset="0.02" stop-color="#40DEDA"/>
<stop offset="0.11" stop-color="#37ADBC"/>
<stop offset="0.22" stop-color="#2E82A2"/>
<stop offset="0.32" stop-color="#285E8C"/>
<stop offset="0.43" stop-color="#22417A"/>
<stop offset="0.55" stop-color="#1E2A6C"/>
<stop offset="0.67" stop-color="#1A1A63"/>
<stop offset="0.81" stop-color="#19105D"/>
<stop offset="1" stop-color="#180D5B"/>
</linearGradient>
<linearGradient id="paint6_linear_241_52" x1="41.738" y1="255.849" x2="188.103" y2="255.849" gradientUnits="userSpaceOnUse">
<stop stop-color="#5761D7"/>
<stop offset="0.16" stop-color="#5E67DA"/>
<stop offset="0.41" stop-color="#727AE2"/>
<stop offset="0.69" stop-color="#9297EE"/>
<stop offset="1" stop-color="#BCBEFF"/>
</linearGradient>
<linearGradient id="paint7_linear_241_52" x1="83.1597" y1="236.049" x2="171.011" y2="236.049" gradientUnits="userSpaceOnUse">
<stop stop-color="#42E8E0"/>
<stop offset="0.15" stop-color="#43E3E0"/>
<stop offset="0.33" stop-color="#45D5DF"/>
<stop offset="0.52" stop-color="#49BDDD"/>
<stop offset="0.72" stop-color="#4E9CDB"/>
<stop offset="0.93" stop-color="#5472D8"/>
<stop offset="1" stop-color="#5761D7"/>
</linearGradient>
<linearGradient id="paint8_linear_241_52" x1="127.078" y1="220.162" x2="171.011" y2="220.162" gradientUnits="userSpaceOnUse">
<stop stop-color="#42E8E0"/>
<stop offset="0.15" stop-color="#43E3E0"/>
<stop offset="0.33" stop-color="#45D5DF"/>
<stop offset="0.52" stop-color="#49BDDD"/>
<stop offset="0.72" stop-color="#4E9CDB"/>
<stop offset="0.93" stop-color="#5472D8"/>
<stop offset="1" stop-color="#5761D7"/>
</linearGradient>
<linearGradient id="paint9_linear_241_52" x1="83.1597" y1="220.162" x2="127.078" y2="220.162" gradientUnits="userSpaceOnUse">
<stop stop-color="#42E8E0"/>
<stop offset="0.15" stop-color="#43E3E0"/>
<stop offset="0.33" stop-color="#45D5DF"/>
<stop offset="0.52" stop-color="#49BDDD"/>
<stop offset="0.72" stop-color="#4E9CDB"/>
<stop offset="0.93" stop-color="#5472D8"/>
<stop offset="1" stop-color="#5761D7"/>
</linearGradient>
<linearGradient id="paint10_linear_241_52" x1="83.1597" y1="229.653" x2="171.011" y2="229.653" gradientUnits="userSpaceOnUse">
<stop stop-color="#42E8E0"/>
<stop offset="0.15" stop-color="#43E3E0"/>
<stop offset="0.33" stop-color="#45D5DF"/>
<stop offset="0.52" stop-color="#49BDDD"/>
<stop offset="0.72" stop-color="#4E9CDB"/>
<stop offset="0.93" stop-color="#5472D8"/>
<stop offset="1" stop-color="#5761D7"/>
</linearGradient>
<linearGradient id="paint11_linear_241_52" x1="127.078" y1="245.54" x2="171.011" y2="245.54" gradientUnits="userSpaceOnUse">
<stop stop-color="#42E8E0"/>
<stop offset="0.15" stop-color="#43E3E0"/>
<stop offset="0.33" stop-color="#45D5DF"/>
<stop offset="0.52" stop-color="#49BDDD"/>
<stop offset="0.72" stop-color="#4E9CDB"/>
<stop offset="0.93" stop-color="#5472D8"/>
<stop offset="1" stop-color="#5761D7"/>
</linearGradient>
<linearGradient id="paint12_linear_241_52" x1="83.1597" y1="245.54" x2="127.078" y2="245.54" gradientUnits="userSpaceOnUse">
<stop stop-color="#42E8E0"/>
<stop offset="0.15" stop-color="#43E3E0"/>
<stop offset="0.33" stop-color="#45D5DF"/>
<stop offset="0.52" stop-color="#49BDDD"/>
<stop offset="0.72" stop-color="#4E9CDB"/>
<stop offset="0.93" stop-color="#5472D8"/>
<stop offset="1" stop-color="#5761D7"/>
</linearGradient>
<linearGradient id="paint13_linear_241_52" x1="270.664" y1="255.849" x2="417.029" y2="255.849" gradientUnits="userSpaceOnUse">
<stop stop-color="#5761D7"/>
<stop offset="0.16" stop-color="#5E67DA"/>
<stop offset="0.41" stop-color="#727AE2"/>
<stop offset="0.69" stop-color="#9297EE"/>
<stop offset="1" stop-color="#BCBEFF"/>
</linearGradient>
<linearGradient id="paint14_linear_241_52" x1="312.085" y1="236.049" x2="399.937" y2="236.049" gradientUnits="userSpaceOnUse">
<stop stop-color="#42E8E0"/>
<stop offset="0.15" stop-color="#43E3E0"/>
<stop offset="0.33" stop-color="#45D5DF"/>
<stop offset="0.52" stop-color="#49BDDD"/>
<stop offset="0.72" stop-color="#4E9CDB"/>
<stop offset="0.93" stop-color="#5472D8"/>
<stop offset="1" stop-color="#5761D7"/>
</linearGradient>
<linearGradient id="paint15_linear_241_52" x1="356.004" y1="220.162" x2="399.937" y2="220.162" gradientUnits="userSpaceOnUse">
<stop stop-color="#42E8E0"/>
<stop offset="0.15" stop-color="#43E3E0"/>
<stop offset="0.33" stop-color="#45D5DF"/>
<stop offset="0.52" stop-color="#49BDDD"/>
<stop offset="0.72" stop-color="#4E9CDB"/>
<stop offset="0.93" stop-color="#5472D8"/>
<stop offset="1" stop-color="#5761D7"/>
</linearGradient>
<linearGradient id="paint16_linear_241_52" x1="312.085" y1="220.162" x2="356.004" y2="220.162" gradientUnits="userSpaceOnUse">
<stop stop-color="#42E8E0"/>
<stop offset="0.15" stop-color="#43E3E0"/>
<stop offset="0.33" stop-color="#45D5DF"/>
<stop offset="0.52" stop-color="#49BDDD"/>
<stop offset="0.72" stop-color="#4E9CDB"/>
<stop offset="0.93" stop-color="#5472D8"/>
<stop offset="1" stop-color="#5761D7"/>
</linearGradient>
<linearGradient id="paint17_linear_241_52" x1="312.085" y1="229.653" x2="399.937" y2="229.653" gradientUnits="userSpaceOnUse">
<stop stop-color="#42E8E0"/>
<stop offset="0.15" stop-color="#43E3E0"/>
<stop offset="0.33" stop-color="#45D5DF"/>
<stop offset="0.52" stop-color="#49BDDD"/>
<stop offset="0.72" stop-color="#4E9CDB"/>
<stop offset="0.93" stop-color="#5472D8"/>
<stop offset="1" stop-color="#5761D7"/>
</linearGradient>
<linearGradient id="paint18_linear_241_52" x1="356.004" y1="245.54" x2="399.937" y2="245.54" gradientUnits="userSpaceOnUse">
<stop stop-color="#42E8E0"/>
<stop offset="0.15" stop-color="#43E3E0"/>
<stop offset="0.33" stop-color="#45D5DF"/>
<stop offset="0.52" stop-color="#49BDDD"/>
<stop offset="0.72" stop-color="#4E9CDB"/>
<stop offset="0.93" stop-color="#5472D8"/>
<stop offset="1" stop-color="#5761D7"/>
</linearGradient>
<linearGradient id="paint19_linear_241_52" x1="312.085" y1="245.54" x2="356.004" y2="245.54" gradientUnits="userSpaceOnUse">
<stop stop-color="#42E8E0"/>
<stop offset="0.15" stop-color="#43E3E0"/>
<stop offset="0.33" stop-color="#45D5DF"/>
<stop offset="0.52" stop-color="#49BDDD"/>
<stop offset="0.72" stop-color="#4E9CDB"/>
<stop offset="0.93" stop-color="#5472D8"/>
<stop offset="1" stop-color="#5761D7"/>
</linearGradient>
<linearGradient id="paint20_linear_241_52" x1="292.437" y1="322.894" x2="292.437" y2="108.504" gradientUnits="userSpaceOnUse">
<stop stop-color="#C0BFF6"/>
<stop offset="0.29" stop-color="#C5C4F7"/>
<stop offset="0.64" stop-color="#D3D2F9"/>
<stop offset="1" stop-color="#E9E9FD"/>
</linearGradient>
<linearGradient id="paint21_linear_241_52" x1="292.437" y1="130.029" x2="292.437" y2="60.604" gradientUnits="userSpaceOnUse">
<stop stop-color="#C0BFF6"/>
<stop offset="0.29" stop-color="#C5C4F7"/>
<stop offset="0.64" stop-color="#D3D2F9"/>
<stop offset="1" stop-color="#E9E9FD"/>
</linearGradient>
<linearGradient id="paint22_linear_241_52" x1="603.716" y1="219.12" x2="490.315" y2="219.12" gradientUnits="userSpaceOnUse">
<stop stop-color="#C0BFF6"/>
<stop offset="0.29" stop-color="#C5C4F7"/>
<stop offset="0.64" stop-color="#D3D2F9"/>
<stop offset="1" stop-color="#E9E9FD"/>
</linearGradient>
<linearGradient id="paint23_linear_241_52" x1="603.716" y1="248.232" x2="584.246" y2="248.232" gradientUnits="userSpaceOnUse">
<stop stop-color="#5761D7"/>
<stop offset="0.18" stop-color="#5C66D9"/>
<stop offset="0.39" stop-color="#6A73DF"/>
<stop offset="0.61" stop-color="#8289E8"/>
<stop offset="0.85" stop-color="#A3A7F5"/>
<stop offset="1" stop-color="#BCBEFF"/>
</linearGradient>
<linearGradient id="paint24_linear_241_52" x1="588.526" y1="280.944" x2="428.354" y2="280.944" gradientUnits="userSpaceOnUse">
<stop stop-color="#5761D7"/>
<stop offset="0.18" stop-color="#5C66D9"/>
<stop offset="0.39" stop-color="#6A73DF"/>
<stop offset="0.61" stop-color="#8289E8"/>
<stop offset="0.85" stop-color="#A3A7F5"/>
<stop offset="1" stop-color="#BCBEFF"/>
</linearGradient>
<linearGradient id="paint25_linear_241_52" x1="534.709" y1="275.604" x2="374.463" y2="275.604" gradientUnits="userSpaceOnUse">
<stop stop-color="#C0BFF6"/>
<stop offset="0.29" stop-color="#C5C4F7"/>
<stop offset="0.64" stop-color="#D3D2F9"/>
<stop offset="1" stop-color="#E9E9FD"/>
</linearGradient>
<linearGradient id="paint26_linear_241_52" x1="507.571" y1="284.708" x2="466.55" y2="284.708" gradientUnits="userSpaceOnUse">
<stop stop-color="#C0BFF6"/>
<stop offset="0.29" stop-color="#C5C4F7"/>
<stop offset="0.64" stop-color="#D3D2F9"/>
<stop offset="1" stop-color="#E9E9FD"/>
</linearGradient>
<linearGradient id="paint27_linear_241_52" x1="595.928" y1="240.051" x2="435.681" y2="240.051" gradientUnits="userSpaceOnUse">
<stop stop-color="#C0BFF6"/>
<stop offset="0.29" stop-color="#C5C4F7"/>
<stop offset="0.64" stop-color="#D3D2F9"/>
<stop offset="1" stop-color="#E9E9FD"/>
</linearGradient>
<linearGradient id="paint28_linear_241_52" x1="606.48" y1="228.284" x2="565.46" y2="228.284" gradientUnits="userSpaceOnUse">
<stop stop-color="#C0BFF6"/>
<stop offset="0.29" stop-color="#C5C4F7"/>
<stop offset="0.64" stop-color="#D3D2F9"/>
<stop offset="1" stop-color="#E9E9FD"/>
</linearGradient>
<radialGradient id="paint29_radial_241_52" cx="0" cy="0" r="1" gradientUnits="userSpaceOnUse" gradientTransform="translate(52.277 366.548) rotate(-30.6335) scale(13.9233 13.9293)">
<stop stop-color="#41E5DE"/>
<stop offset="0.06" stop-color="#39B8C3"/>
<stop offset="0.13" stop-color="#3190AA"/>
<stop offset="0.2" stop-color="#2A6C95"/>
<stop offset="0.27" stop-color="#254E83"/>
<stop offset="0.36" stop-color="#203674"/>
<stop offset="0.45" stop-color="#1C2469"/>
<stop offset="0.56" stop-color="#1A1761"/>
<stop offset="0.7" stop-color="#180F5C"/>
<stop offset="1" stop-color="#180D5B"/>
</radialGradient>
<radialGradient id="paint30_radial_241_52" cx="0" cy="0" r="1" gradientUnits="userSpaceOnUse" gradientTransform="translate(57.2147 371.553) rotate(-30.196) scale(3.77102 3.7727)">
<stop stop-color="#42E8E0"/>
<stop offset="1" stop-color="#42E8E0"/>
</radialGradient>
<radialGradient id="paint31_radial_241_52" cx="0" cy="0" r="1" gradientUnits="userSpaceOnUse" gradientTransform="translate(151.106 375.697) rotate(-30.6335) scale(13.9233 13.9293)">
<stop stop-color="#41E5DE"/>
<stop offset="0.06" stop-color="#39B8C3"/>
<stop offset="0.13" stop-color="#3190AA"/>
<stop offset="0.2" stop-color="#2A6C95"/>
<stop offset="0.27" stop-color="#254E83"/>
<stop offset="0.36" stop-color="#203674"/>
<stop offset="0.45" stop-color="#1C2469"/>
<stop offset="0.56" stop-color="#1A1761"/>
<stop offset="0.7" stop-color="#180F5C"/>
<stop offset="1" stop-color="#180D5B"/>
</radialGradient>
<radialGradient id="paint32_radial_241_52" cx="0" cy="0" r="1" gradientUnits="userSpaceOnUse" gradientTransform="translate(155.604 381.417) rotate(-30.1959) scale(3.77101 3.77269)">
<stop stop-color="#42E8E0"/>
<stop offset="1" stop-color="#42E8E0"/>
</radialGradient>
<radialGradient id="paint33_radial_241_52" cx="0" cy="0" r="1" gradientUnits="userSpaceOnUse" gradientTransform="translate(320.563 373.693) rotate(-30.6335) scale(13.9233 13.9293)">
<stop stop-color="#41E5DE"/>
<stop offset="0.06" stop-color="#39B8C3"/>
<stop offset="0.13" stop-color="#3190AA"/>
<stop offset="0.2" stop-color="#2A6C95"/>
<stop offset="0.27" stop-color="#254E83"/>
<stop offset="0.36" stop-color="#203674"/>
<stop offset="0.45" stop-color="#1C2469"/>
<stop offset="0.56" stop-color="#1A1761"/>
<stop offset="0.7" stop-color="#180F5C"/>
<stop offset="1" stop-color="#180D5B"/>
</radialGradient>
<radialGradient id="paint34_radial_241_52" cx="0" cy="0" r="1" gradientUnits="userSpaceOnUse" gradientTransform="translate(324.434 380.707) rotate(-30.196) scale(3.77101 3.7727)">
<stop stop-color="#42E8E0"/>
<stop offset="1" stop-color="#42E8E0"/>
</radialGradient>
<radialGradient id="paint35_radial_241_52" cx="0" cy="0" r="1" gradientUnits="userSpaceOnUse" gradientTransform="translate(342.558 391.386) rotate(-30.1959) scale(13.8714 13.8776)">
<stop stop-color="#41E5DE"/>
<stop offset="0.06" stop-color="#39B8C3"/>
<stop offset="0.13" stop-color="#3190AA"/>
<stop offset="0.2" stop-color="#2A6C95"/>
<stop offset="0.27" stop-color="#254E83"/>
<stop offset="0.36" stop-color="#203674"/>
<stop offset="0.45" stop-color="#1C2469"/>
<stop offset="0.56" stop-color="#1A1761"/>
<stop offset="0.7" stop-color="#180F5C"/>
<stop offset="1" stop-color="#180D5B"/>
</radialGradient>
<radialGradient id="paint36_radial_241_52" cx="0" cy="0" r="1" gradientUnits="userSpaceOnUse" gradientTransform="translate(342.558 391.386) rotate(-30.1958) scale(3.77101 3.77268)">
<stop stop-color="#42E8E0"/>
<stop offset="1" stop-color="#42E8E0"/>
</radialGradient>
<radialGradient id="paint37_radial_241_52" cx="0" cy="0" r="1" gradientUnits="userSpaceOnUse" gradientTransform="translate(448.23 358.235) rotate(-30.0765) scale(13.9782 13.9845)">
<stop stop-color="#41E5DE"/>
<stop offset="0.06" stop-color="#39B8C3"/>
<stop offset="0.13" stop-color="#3190AA"/>
<stop offset="0.2" stop-color="#2A6C95"/>
<stop offset="0.27" stop-color="#254E83"/>
<stop offset="0.36" stop-color="#203674"/>
<stop offset="0.45" stop-color="#1C2469"/>
<stop offset="0.56" stop-color="#1A1761"/>
<stop offset="0.7" stop-color="#180F5C"/>
<stop offset="1" stop-color="#180D5B"/>
</radialGradient>
<radialGradient id="paint38_radial_241_52" cx="0" cy="0" r="1" gradientUnits="userSpaceOnUse" gradientTransform="translate(441.548 362.951) rotate(-30.1959) scale(3.77101 3.77268)">
<stop stop-color="#42E8E0"/>
<stop offset="1" stop-color="#42E8E0"/>
</radialGradient>
<radialGradient id="paint39_radial_241_52" cx="0" cy="0" r="1" gradientUnits="userSpaceOnUse" gradientTransform="translate(464.984 328.72) rotate(-30.1959) scale(13.8714 13.8776)">
<stop stop-color="#41E5DE"/>
<stop offset="0.06" stop-color="#39B8C3"/>
<stop offset="0.13" stop-color="#3190AA"/>
<stop offset="0.2" stop-color="#2A6C95"/>
<stop offset="0.27" stop-color="#254E83"/>
<stop offset="0.36" stop-color="#203674"/>
<stop offset="0.45" stop-color="#1C2469"/>
<stop offset="0.56" stop-color="#1A1761"/>
<stop offset="0.7" stop-color="#180F5C"/>
<stop offset="1" stop-color="#180D5B"/>
</radialGradient>
<radialGradient id="paint40_radial_241_52" cx="0" cy="0" r="1" gradientUnits="userSpaceOnUse" gradientTransform="translate(464.984 328.72) rotate(-30.1959) scale(3.77101 3.77269)">
<stop stop-color="#42E8E0"/>
<stop offset="1" stop-color="#42E8E0"/>
</radialGradient>
<radialGradient id="paint41_radial_241_52" cx="0" cy="0" r="1" gradientUnits="userSpaceOnUse" gradientTransform="translate(443.662 316.068) rotate(-30.1959) scale(13.8714 13.8776)">
<stop stop-color="#41E5DE"/>
<stop offset="0.06" stop-color="#39B8C3"/>
<stop offset="0.13" stop-color="#3190AA"/>
<stop offset="0.2" stop-color="#2A6C95"/>
<stop offset="0.27" stop-color="#254E83"/>
<stop offset="0.36" stop-color="#203674"/>
<stop offset="0.45" stop-color="#1C2469"/>
<stop offset="0.56" stop-color="#1A1761"/>
<stop offset="0.7" stop-color="#180F5C"/>
<stop offset="1" stop-color="#180D5B"/>
</radialGradient>
<radialGradient id="paint42_radial_241_52" cx="0" cy="0" r="1" gradientUnits="userSpaceOnUse" gradientTransform="translate(443.662 316.068) rotate(-30.1958) scale(3.77102 3.77269)">
<stop stop-color="#42E8E0"/>
<stop offset="1" stop-color="#42E8E0"/>
</radialGradient>
<radialGradient id="paint43_radial_241_52" cx="0" cy="0" r="1" gradientUnits="userSpaceOnUse" gradientTransform="translate(422.349 304.283) rotate(-30.1959) scale(13.8714 13.8776)">
<stop stop-color="#41E5DE"/>
<stop offset="0.06" stop-color="#39B8C3"/>
<stop offset="0.13" stop-color="#3190AA"/>
<stop offset="0.2" stop-color="#2A6C95"/>
<stop offset="0.27" stop-color="#254E83"/>
<stop offset="0.36" stop-color="#203674"/>
<stop offset="0.45" stop-color="#1C2469"/>
<stop offset="0.56" stop-color="#1A1761"/>
<stop offset="0.7" stop-color="#180F5C"/>
<stop offset="1" stop-color="#180D5B"/>
</radialGradient>
<radialGradient id="paint44_radial_241_52" cx="0" cy="0" r="1" gradientUnits="userSpaceOnUse" gradientTransform="translate(422.349 304.283) rotate(-30.1958) scale(3.77102 3.77269)">
<stop stop-color="#42E8E0"/>
<stop offset="1" stop-color="#42E8E0"/>
</radialGradient>
<radialGradient id="paint45_radial_241_52" cx="0" cy="0" r="1" gradientUnits="userSpaceOnUse" gradientTransform="translate(39.9961 361.46) rotate(-30.1959) scale(13.8714 13.8776)">
<stop stop-color="#41E5DE"/>
<stop offset="0.06" stop-color="#39B8C3"/>
<stop offset="0.13" stop-color="#3190AA"/>
<stop offset="0.2" stop-color="#2A6C95"/>
<stop offset="0.27" stop-color="#254E83"/>
<stop offset="0.36" stop-color="#203674"/>
<stop offset="0.45" stop-color="#1C2469"/>
<stop offset="0.56" stop-color="#1A1761"/>
<stop offset="0.7" stop-color="#180F5C"/>
<stop offset="1" stop-color="#180D5B"/>
</radialGradient>
<radialGradient id="paint46_radial_241_52" cx="0" cy="0" r="1" gradientUnits="userSpaceOnUse" gradientTransform="translate(39.996 361.46) rotate(-30.1959) scale(3.77102 3.7727)">
<stop stop-color="#42E8E0"/>
<stop offset="1" stop-color="#42E8E0"/>
</radialGradient>
<radialGradient id="paint47_radial_241_52" cx="0" cy="0" r="1" gradientUnits="userSpaceOnUse" gradientTransform="translate(23.0809 343.265) rotate(-30.3325) scale(14.0012 14.0074)">
<stop stop-color="#41E5DE"/>
<stop offset="0.06" stop-color="#39B8C3"/>
<stop offset="0.13" stop-color="#3190AA"/>
<stop offset="0.2" stop-color="#2A6C95"/>
<stop offset="0.27" stop-color="#254E83"/>
<stop offset="0.36" stop-color="#203674"/>
<stop offset="0.45" stop-color="#1C2469"/>
<stop offset="0.56" stop-color="#1A1761"/>
<stop offset="0.7" stop-color="#180F5C"/>
<stop offset="1" stop-color="#180D5B"/>
</radialGradient>
<radialGradient id="paint48_radial_241_52" cx="0" cy="0" r="1" gradientUnits="userSpaceOnUse" gradientTransform="translate(22.7647 351.375) rotate(-30.1959) scale(3.77101 3.77269)">
<stop stop-color="#42E8E0"/>
<stop offset="1" stop-color="#42E8E0"/>
</radialGradient>
<radialGradient id="paint49_radial_241_52" cx="0" cy="0" r="1" gradientUnits="userSpaceOnUse" gradientTransform="translate(64.791 299.685) rotate(-30.1959) scale(13.8714 13.8776)">
<stop stop-color="#41E5DE"/>
<stop offset="0.06" stop-color="#39B8C3"/>
<stop offset="0.13" stop-color="#3190AA"/>
<stop offset="0.2" stop-color="#2A6C95"/>
<stop offset="0.27" stop-color="#254E83"/>
<stop offset="0.36" stop-color="#203674"/>
<stop offset="0.45" stop-color="#1C2469"/>
<stop offset="0.56" stop-color="#1A1761"/>
<stop offset="0.7" stop-color="#180F5C"/>
<stop offset="1" stop-color="#180D5B"/>
</radialGradient>
<radialGradient id="paint50_radial_241_52" cx="0" cy="0" r="1" gradientUnits="userSpaceOnUse" gradientTransform="translate(64.7908 299.685) rotate(-30.1959) scale(3.77102 3.77269)">
<stop stop-color="#42E8E0"/>
<stop offset="1" stop-color="#42E8E0"/>
</radialGradient>
<radialGradient id="paint51_radial_241_52" cx="0" cy="0" r="1" gradientUnits="userSpaceOnUse" gradientTransform="translate(83.2429 290.026) rotate(-30.1959) scale(13.8714 13.8776)">
<stop stop-color="#41E5DE"/>
<stop offset="0.06" stop-color="#39B8C3"/>
<stop offset="0.13" stop-color="#3190AA"/>
<stop offset="0.2" stop-color="#2A6C95"/>
<stop offset="0.27" stop-color="#254E83"/>
<stop offset="0.36" stop-color="#203674"/>
<stop offset="0.45" stop-color="#1C2469"/>
<stop offset="0.56" stop-color="#1A1761"/>
<stop offset="0.7" stop-color="#180F5C"/>
<stop offset="1" stop-color="#180D5B"/>
</radialGradient>
<radialGradient id="paint52_radial_241_52" cx="0" cy="0" r="1" gradientUnits="userSpaceOnUse" gradientTransform="translate(83.2427 290.026) rotate(-30.1959) scale(3.77101 3.77269)">
<stop stop-color="#42E8E0"/>
<stop offset="1" stop-color="#42E8E0"/>
</radialGradient>
</defs>
</svg>
