<svg width="180" height="49" viewBox="0 0 180 49" fill="none" xmlns="http://www.w3.org/2000/svg">
<path d="M50.2263 5.88235H58.5069C60.6109 5.88235 62.1494 6.44796 63.1449 7.42081C64.1177 8.25791 64.5476 9.38913 64.5476 10.4977C64.5476 10.9276 64.5476 11.4706 64.4118 11.9004C64.1403 12.6018 63.7105 13.3032 63.1449 13.8688C62.8734 14.1403 62.5793 14.2986 62.3078 14.4344C63.2806 14.7059 64.1403 15.2715 64.8417 15.9728C65.4073 16.6742 65.6788 17.5113 65.6788 18.7783C65.6788 19.4796 65.5431 20.3167 65.2489 20.8823C64.9774 21.448 64.4118 22.0136 63.8462 22.4208C63.1449 22.8507 62.4435 23.1222 61.7422 23.3937C60.9051 23.6652 59.9096 23.6652 58.9367 23.6652H50.3621V5.8371H50.2263V5.88235ZM57.8055 13.1674C58.5069 13.1674 59.2082 13.0317 59.9096 12.7375C60.4752 12.4661 60.7467 11.9004 60.7467 11.3348C60.7467 10.7692 60.4752 10.2036 60.0453 9.93212C59.4797 9.50226 58.7784 9.36651 58.077 9.50226H54.1403V13.2805H57.7829V13.1674H57.8055ZM58.7784 20.3394C59.4797 20.3394 60.1811 20.2036 60.8824 19.9095C61.448 19.638 61.7195 19.0724 61.5838 18.371C61.5838 17.8054 61.3123 17.2398 60.8824 16.9683C60.4526 16.6968 59.6155 16.4027 58.6426 16.4027H54.0046V20.3394H58.7784Z" fill="white"/>
<path d="M70.5654 5.88239H74.5021V23.8462H70.5654V5.88239Z" fill="white"/>
<path d="M80.543 5.88239H84.1855L92.6018 16.9684V5.88239H96.5158V23.8462H93.1674L84.3212 12.4661V23.8462H80.543V5.88239Z" fill="white"/>
<path d="M108.462 5.74664H112.104L119.819 23.8462H115.747L114.072 19.7738H106.493L104.819 23.8462H100.747L108.462 5.74664ZM112.67 16.4028L110.294 10.5204L107.919 16.4028H112.67Z" fill="white"/>
<path d="M124.027 5.88239H127.67L136.086 16.9684V5.88239H140.023V23.8462H136.652L127.941 12.4661V23.8462H124.027V5.88239Z" fill="white"/>
<path d="M154.321 24.1176C153.054 24.1176 151.787 23.8461 150.679 23.4163C148.439 22.4434 146.742 20.7466 145.769 18.5068C145.339 17.3755 145.068 16.1312 145.068 14.8642C145.068 12.4887 146.041 10.0905 147.738 8.28053C148.575 7.44342 149.57 6.74206 150.679 6.3122C151.946 5.74659 153.213 5.61084 154.457 5.61084C155.158 5.61084 155.995 5.61084 156.697 5.74659C157.398 5.88233 157.964 6.01808 158.529 6.3122C159.095 6.58369 159.661 6.87781 160.068 7.14931C160.498 7.4208 161.041 7.85066 161.471 8.28053L159.095 11.2217C158.394 10.6561 157.692 10.0905 156.991 9.68324C156.29 9.276 155.452 9.11763 154.615 9.11763C153.914 9.11763 153.213 9.25337 152.511 9.54749C151.81 9.81898 151.244 10.2488 150.837 10.8145C150.43 11.3801 150 11.9457 149.706 12.647C149.434 13.3484 149.276 14.0498 149.276 14.7511C149.276 15.4525 149.412 16.2896 149.706 16.9909C150 17.6923 150.271 18.2579 150.837 18.8235C151.81 19.9547 153.213 20.4977 154.615 20.4977C155.452 20.4977 156.448 20.362 157.285 19.9321C157.986 19.5022 158.824 18.9593 159.389 18.3936L161.9 20.905C161.471 21.3348 160.928 21.8778 160.498 22.3077C159.932 22.7375 159.367 23.009 158.824 23.2805C158.258 23.552 157.557 23.8461 156.855 23.9819C155.86 24.1176 155.023 24.1176 154.321 24.1176Z" fill="white"/>
<path d="M166.403 5.88239H179.864V9.38917H170.181V13.0317H178.733V16.5385H170.181V20.3394H180V23.8462H166.403V5.88239Z" fill="white"/>
<path d="M55.2715 41.5158C54.2986 41.5158 53.3032 41.3801 52.4661 40.9502C51.629 40.6787 50.7919 40.1131 49.9321 39.4118L51.3348 37.8733C51.9005 38.4389 52.4661 38.7104 53.1674 39.1403C53.8688 39.4118 54.5701 39.5701 55.2715 39.5701C55.8371 39.5701 56.4027 39.4344 56.9457 39.1403C57.3756 38.8688 57.5113 38.4389 57.5113 38.0091C57.5113 37.8733 57.5113 37.5792 57.3756 37.4434C57.2398 37.3077 57.1041 37.0136 56.9457 36.8778C56.6742 36.7421 56.3801 36.6063 56.1086 36.448C55.6787 36.3122 55.1358 36.1765 54.7059 36.0181C54.1403 35.8824 53.4389 35.7466 52.8733 35.4525C52.4434 35.3167 51.9005 35.0226 51.6063 34.7511C51.3348 34.4796 51.0407 34.1855 50.7692 33.7783C50.4977 33.2127 50.4977 32.6471 50.4977 32.2398C50.4977 31.6742 50.6335 31.267 50.7692 30.7014C50.905 30.2715 51.3348 29.8643 51.6063 29.5701C52.0362 29.2986 52.4434 29.0045 53.0091 28.8688C53.5747 28.733 54.1403 28.5973 54.6833 28.5973C55.5204 28.5973 56.3575 28.733 57.2172 29.0272C57.9186 29.2986 58.6199 29.7285 59.3213 30.1584L58.19 31.8326C57.6244 31.4027 57.0588 31.1312 56.5158 30.8597C55.9502 30.5882 55.3846 30.5882 54.8416 30.5882C54.276 30.5882 53.7104 30.724 53.3032 31.0181C53.0317 31.2896 52.7376 31.7195 52.7376 32.1493C52.7376 32.4208 52.7376 32.5792 52.8733 32.8507C53.0091 32.9864 53.1448 33.2805 53.3032 33.4163C53.5747 33.552 53.8688 33.6878 54.276 33.8462C54.7059 33.9819 55.1131 34.1177 55.8145 34.276C56.3801 34.4118 56.9457 34.5475 57.6471 34.8416C58.0769 34.9774 58.4842 35.2715 58.914 35.543C59.1855 35.8145 59.4796 36.2443 59.6154 36.5158C59.7511 36.9457 59.8869 37.3529 59.8869 37.9186C59.8869 38.4842 59.7511 39.0498 59.6154 39.457C59.3439 39.8869 59.0498 40.2941 58.6425 40.724C58.2127 40.9955 57.8054 41.2896 57.2398 41.4253C56.5385 41.3801 55.8371 41.5158 55.2715 41.5158Z" fill="white"/>
<path d="M62.2852 28.7557H64.6833L68.4616 34.638L72.3983 28.7557H74.7738V41.3801H72.534V32.2625L68.5974 38.1448H68.4616L64.5476 32.2625V41.3801H62.2852V28.7557Z" fill="white"/>
<path d="M82.3529 28.6199H84.457L89.9321 41.2444H87.5565L86.2895 38.1674H80.4072L79.1402 41.2444H76.9004L82.3529 28.6199ZM85.5882 36.3349L83.3484 31.2896L81.2443 36.3349H85.5882Z" fill="white"/>
<path d="M92.1719 28.7557H97.7827C98.4841 28.7557 99.1855 28.8914 99.8868 29.0272C100.452 29.1629 101.018 29.5928 101.425 30C101.697 30.2715 101.991 30.7014 102.262 31.267C102.398 31.6968 102.534 32.2398 102.534 32.8054C102.534 33.2353 102.398 33.7783 102.262 34.2082C102.127 34.638 101.833 34.9095 101.697 35.3394C101.425 35.6109 101.131 35.905 100.724 36.1765C100.294 36.448 99.8868 36.6064 99.4569 36.7421L102.828 41.5159H100.158L97.0814 37.172H94.2759V41.5159H92.0361L92.1719 28.7557ZM97.647 34.9321C98.3483 34.9321 99.0497 34.7964 99.4796 34.3665C99.9094 33.9367 100.181 33.3937 100.181 32.8281C100.181 32.2625 99.9094 31.6968 99.4796 31.2896C98.914 30.8597 98.2126 30.724 97.5112 30.724H94.2759V34.9321H97.647Z" fill="white"/>
<path d="M108.303 30.724H104.231V28.7557H114.48V30.724H110.407V41.3801H108.167L108.303 30.724Z" fill="white"/>
<path d="M128.1 41.5158C127.262 41.5158 126.425 41.3801 125.566 40.9502C124.027 40.2489 122.76 39.1176 122.195 37.5792C121.923 36.7421 121.629 35.905 121.765 35.0452C121.765 34.2081 121.9 33.371 122.195 32.5113C122.76 30.9728 124.027 29.7059 125.566 29.0045C126.403 28.733 127.24 28.4389 128.235 28.4389C128.801 28.4389 129.366 28.4389 129.774 28.5747C130.204 28.7104 130.611 28.8461 131.041 29.0045C131.471 29.1403 131.742 29.4344 132.172 29.5701C132.443 29.8416 132.873 30.1357 133.145 30.4072L131.742 32.0814C131.312 31.6516 130.769 31.2443 130.204 30.9502C129.638 30.6787 128.937 30.5204 128.235 30.5204C127.67 30.5204 127.104 30.6561 126.561 30.7919C125.995 31.0633 125.588 31.3575 125.158 31.7647C124.728 32.1946 124.457 32.6018 124.321 33.1674C124.185 33.733 124.05 34.2986 124.05 34.8416C124.05 35.4072 124.185 35.9728 124.321 36.5158C124.457 37.0588 124.751 37.4887 125.158 37.9185C125.588 38.3484 125.995 38.6199 126.561 38.8914C127.127 39.1629 127.692 39.3213 128.235 39.1629C128.937 39.1629 129.638 39.0271 130.204 38.733C130.769 38.4615 131.335 38.0317 131.878 37.4661L133.281 38.8688C133.009 39.1403 132.579 39.5701 132.308 39.8416C131.878 40.1131 131.606 40.4072 131.176 40.543C130.747 40.6787 130.339 40.9728 129.774 40.9728C129.208 41.5158 128.642 41.5158 128.1 41.5158Z" fill="white"/>
<path d="M135.521 28.7557H137.625V33.9367H143.665V28.7557H145.905V41.3801H143.665V36.0407H137.625V41.3801H135.521V28.7557Z" fill="white"/>
<path d="M153.62 28.6199H155.724L161.199 41.2444H158.824L157.557 38.1674H151.674L150.407 41.2444H148.167L153.62 28.6199ZM156.72 36.3349L154.615 31.2896L152.511 36.3349H156.72Z" fill="white"/>
<path d="M163.439 28.7557H165.701V41.3801H163.439V28.7557Z" fill="white"/>
<path d="M169.05 28.7557H171.018L177.76 37.4435V28.7557H180V41.3801H178.167L171.312 32.3982V41.3801H169.05V28.7557Z" fill="white"/>
<path d="M25.543 40.543V46.0181L20.7692 48.8235L16.1312 46.0181V40.543L20.7692 43.3484L25.543 40.543ZM0 21.6063L4.63801 24.4118V33.8009L12.6244 38.5747V44.0498L0 36.6063V21.6063ZM41.5385 21.6063V36.629L28.7783 44.0724V38.5973L36.7647 33.8235V24.4344L41.5385 21.6063ZM28.7557 14.1629L33.5294 16.9683V22.4434L25.543 27.2172V36.7421L20.905 39.5475L16.2896 36.7421V27.1946L8.00905 22.4208V16.9457L12.7828 14.1403L20.7692 18.914L28.7557 14.1629ZM8.00905 26.3575L12.6471 29.1629V34.638L8.00905 31.8326V26.3575ZM33.5294 26.3575V31.8326L28.8914 34.638V29.1629L33.5294 26.3575ZM4.63801 9.38914L9.41177 12.1946L4.63801 15V20.4751L0 17.6697V12.1946L4.63801 9.38914ZM36.9005 9.38914L41.6742 12.1946V17.6697L36.9005 20.4751V15L32.2624 12.1946L36.9005 9.38914ZM20.7692 9.38914L25.543 12.1946L20.7692 15L16.1312 12.1946L20.7692 9.38914ZM20.7692 0L33.5294 7.44344L28.8914 10.2489L20.905 5.47511L12.7602 10.2489L8.12217 7.44344L20.7692 0Z" fill="white"/>
</svg>
