<svg width="43" height="42" viewBox="0 0 43 42" fill="none" xmlns="http://www.w3.org/2000/svg">
<path fill-rule="evenodd" clip-rule="evenodd" d="M6.95444 26.0574C8.15249 23.6109 8.00128 20.734 5.88046 17.8766C8.5751 15.9612 10.0911 13.5884 9.80029 10.2463C9.76928 9.89344 10.4051 9.36614 10.8433 9.118C12.9137 7.94322 14.0032 6.17522 14.3521 3.84891C14.5498 2.53842 14.0303 1.94134 12.6966 1.86379C9.46686 1.67381 6.48918 4.1397 5.81843 7.46632C5.63272 8.29382 5.19035 9.04151 4.55447 9.60265C2.0343 11.6963 1.06112 14.2785 1.66596 17.5121C1.78356 18.237 1.71006 18.98 1.45272 19.6678C0.305071 22.7347 0.712177 25.4603 2.8834 27.9611C3.39651 28.5603 3.7322 29.2907 3.8527 30.0703C4.01592 31.6874 4.69698 33.2086 5.79449 34.4074C6.89201 35.6062 8.34729 36.4186 9.94375 36.7236C10.7094 36.9156 11.4004 37.3314 11.9289 37.9177C13.9062 40.1471 16.3411 40.9187 19.2296 40.5658C20.4819 40.4146 20.8115 39.7129 20.6564 38.5497C20.2493 35.5216 17.3414 32.7378 14.2397 32.4819C13.7285 32.4402 13.2226 32.423 12.7102 32.4056H12.7101C12.4607 32.3972 12.2098 32.3887 11.956 32.3772L12.3825 31.8732L6.95444 26.0574ZM12.3282 34.2422C12.9524 37.6541 15.9844 39.7361 18.7178 38.635C18.0781 35.3588 15.5191 33.5985 12.3282 34.2422ZM3.60843 16.5932C7.00485 16.0388 8.92793 12.8634 7.68335 10.064C4.33734 11.1186 2.83299 13.4953 3.60843 16.5932ZM4.30508 18.9245C1.89484 21.278 1.98566 24.8335 4.47692 26.5963C6.77666 24.0953 6.71037 20.9834 4.30508 18.9245ZM10.188 34.7268C7.13279 34.6648 5.22909 32.0593 5.69048 28.3992L5.67497 28.3954C9.12954 29.1902 10.6223 31.3304 10.188 34.7268ZM12.526 3.9187C9.71112 3.562 7.87334 5.18654 7.77253 7.97811C10.316 8.1332 11.8397 6.86536 12.526 3.9187ZM36.8902 26.6857C34.1529 27.8488 32.3539 29.6633 31.5785 32.5014C31.2027 32.5014 30.8506 32.4911 30.5095 32.4811C30.1889 32.4718 29.878 32.4627 29.5662 32.4627C26.5032 32.6643 23.6923 35.0604 23.0797 37.9721C22.692 39.9301 23.0797 40.438 25.0183 40.5854C26.3089 40.727 27.6142 40.5371 28.811 40.0337C30.0077 39.5303 31.0563 38.73 31.8576 37.7085C32.3038 37.2047 32.9032 36.8614 33.5636 36.7314C35.1712 36.4835 36.6516 35.7105 37.7738 34.5329C38.896 33.3553 39.5969 31.8394 39.7671 30.2216C39.8869 29.3687 40.2367 28.5645 40.779 27.8953C42.896 25.3868 43.3302 22.6456 42.2756 19.571C42.0214 18.8836 41.9544 18.141 42.0818 17.4192C42.8184 14.1507 41.7367 11.6228 39.2282 9.52136C38.6416 9.01348 38.2271 8.33616 38.0417 7.58277C37.402 4.55081 35.2347 2.3951 32.1639 1.94147C29.7562 1.58476 28.8722 2.50366 29.477 4.89588C30.0819 7.2881 31.7142 8.73429 33.9591 9.72297C33.424 13.2667 34.8004 15.9265 37.7587 17.8651C35.5332 20.6411 35.4246 23.5839 36.8902 26.6857ZM33.5752 34.9751C37.088 34.1996 38.8908 31.3383 37.8401 28.3606C34.4864 29.1244 32.8269 31.6252 33.5752 34.9751ZM25.0066 38.7786C28.279 39.5036 31.2101 37.313 31.3924 34.1531C27.9649 33.7034 25.5495 35.4093 25.0066 38.7786ZM39.5034 26.7244C41.9267 24.1616 41.8918 21.1258 39.5034 18.9003C37.1228 21.1219 37.088 24.212 39.5034 26.7244ZM35.983 10.1766C35.2734 13.5381 37.2004 16.3258 40.3642 16.5274C40.9729 13.2357 39.3561 10.89 35.983 10.1766ZM36.1768 7.95886C35.6146 4.98118 33.614 3.44581 31.2179 4.04678C31.8731 6.95079 33.3969 8.19924 36.1768 7.95886ZM31.5241 11.4017L28.089 14.2049C28.0137 14.0986 27.9133 13.9697 27.8124 13.8402C27.5861 13.5495 27.3571 13.2556 27.4027 13.2046C28.1441 12.3558 28.9547 11.57 29.8259 10.8551C29.9348 10.7704 30.1959 10.8788 30.6094 11.0505L30.6094 11.0505C30.8589 11.1541 31.1638 11.2806 31.5241 11.4017ZM16.41 13.5735L16.4101 13.5735C16.5646 13.3731 16.7741 13.1016 17.0894 12.7391C16.8266 12.5603 16.5679 12.38 16.3103 12.2004L16.3102 12.2004C15.6517 11.7414 15.0006 11.2877 14.3094 10.878C14.1045 10.7556 13.8155 10.7611 13.5289 10.7665C13.3981 10.769 13.2678 10.7714 13.1463 10.7617C13.1451 10.8938 13.128 11.0353 13.111 11.1752C13.0738 11.4832 13.0375 11.7838 13.1734 11.9598C13.7415 12.6655 14.3764 13.3147 15.0694 13.8984C15.1912 13.9873 15.3314 14.0477 15.4797 14.0752C15.628 14.1027 15.7806 14.0966 15.9262 14.0573C16.0758 14.0067 16.1844 13.866 16.41 13.5735L16.41 13.5735ZM22.6376 9.45891C22.6908 9.77282 22.6829 10.094 22.6144 10.4049C22.3949 10.7848 22.1349 11.1397 21.8389 11.4634C21.5757 11.0994 21.3386 10.7172 21.1294 10.3196C21.0478 10.0756 21.0478 9.81156 21.1294 9.56747C21.2746 9.03972 21.443 8.52992 21.6116 8.01975L21.6117 8.01943C21.6908 7.78011 21.77 7.5407 21.8467 7.29932L22.9943 9.27668L22.6376 9.45891ZM15.8254 27.2243C15.779 27.3966 15.7504 27.5733 15.7401 27.7516C15.713 29.4381 16.9692 30.2136 18.4968 29.2326C20.5827 27.8679 22.4593 27.4142 24.615 29.062C25.1423 29.4614 26.4683 29.6087 26.8133 29.2598C27.3174 28.7751 27.5112 27.6352 27.3174 26.9141C26.7358 24.7467 27.0537 23.0253 29.0233 21.7613C29.3082 21.603 29.5442 21.3697 29.7057 21.0867C29.7615 20.9657 29.8261 20.8384 29.8921 20.7084C30.1516 20.1968 30.4334 19.6415 30.2912 19.2489C30.1128 18.7565 29.2521 18.2059 28.6821 18.2059C26.0999 18.1594 24.3591 17.1785 23.5294 14.5924C23.3239 13.9759 22.3778 13.2238 21.773 13.2315C21.1682 13.2393 20.2376 14.0108 20.0399 14.635C19.2451 17.1475 17.5391 18.078 15.0577 18.2021C14.4141 18.2331 13.3828 18.7953 13.2781 19.2722C13.2329 19.6605 13.2795 20.054 13.4142 20.421C13.5489 20.788 13.7679 21.1183 14.0535 21.3852C16.2131 22.9283 16.7016 24.832 15.8254 27.2243ZM28.6473 19.7839C26.0573 21.8001 24.4676 24.0411 25.9875 27.5616C23.2425 25.5881 20.7068 25.4446 17.9075 27.6159C19.1171 24.2388 18.0974 21.7962 15.2865 19.8305C18.7876 19.846 21.1061 18.5665 21.9669 14.9452C22.8974 18.5239 25.1384 19.8886 28.6473 19.7839Z" fill="#EE2970"/>
</svg>
