<svg width="41" height="39" viewBox="0 0 41 39" fill="none" xmlns="http://www.w3.org/2000/svg">
<path d="M5.75488 38.7441L1.7832 33.6377C3.29622 32.2327 4.75521 30.0713 6.16016 27.1533C7.51107 24.2894 8.24056 20.6689 8.34863 16.292L0 15.2383V0H16.2109V7.21387C16.2109 7.8623 16.1839 9.21322 16.1299 11.2666C16.0758 13.374 16.0218 14.779 15.9678 15.4814C15.9137 16.238 15.8327 17.5078 15.7246 19.291C15.6165 21.0742 15.4544 22.3711 15.2383 23.1816C15.0221 23.9922 14.752 25.127 14.4277 26.5859C14.1035 28.0449 13.6982 29.2067 13.2119 30.0713C12.6715 30.9359 12.0771 31.9355 11.4287 33.0703C10.7262 34.2051 9.91569 35.2048 8.99707 36.0693C8.02441 36.988 6.94368 37.8796 5.75488 38.7441ZM29.585 38.7441L25.6133 33.6377C27.1263 32.2327 28.5853 30.0713 29.9902 27.1533C31.3411 24.2894 32.0706 20.696 32.1787 16.373L24.3164 15.2383V0H40.5273V7.21387C40.5273 10.5101 40.5003 13.0228 40.4463 14.752C40.3923 16.4811 40.1761 18.6966 39.7979 21.3984C39.4196 24.1543 38.8792 26.3968 38.1768 28.126C37.4202 29.8551 36.3395 31.6924 34.9346 33.6377C33.4756 35.583 31.6924 37.2852 29.585 38.7441Z" fill="white" fill-opacity="0.2"/>
</svg>
