<svg width="180" height="46" viewBox="0 0 180 46" fill="none" xmlns="http://www.w3.org/2000/svg">
<path d="M51.0334 25.95C51.0308 26.1068 50.9662 26.2561 50.8537 26.3654C50.7413 26.4747 50.5902 26.5351 50.4334 26.5333H39.3834C39.6667 29.2666 41.7167 31.7666 44.6167 31.7666C46.6001 31.7666 48.0667 31.0166 49.1667 29.4333C49.2179 29.3501 49.2888 29.2808 49.3731 29.2314C49.4574 29.182 49.5525 29.154 49.6501 29.15C49.7229 29.1479 49.7953 29.1607 49.863 29.1876C49.9306 29.2145 49.9921 29.255 50.0436 29.3065C50.0951 29.3579 50.1355 29.4194 50.1624 29.4871C50.1893 29.5547 50.2021 29.6272 50.2001 29.7C50.2005 29.8005 50.1715 29.899 50.1167 29.9833C49.0001 31.9166 46.7834 32.8666 44.6167 32.8666C40.9001 32.8666 38.2334 29.5333 38.2334 25.9833C38.2334 22.4333 40.8834 19.1 44.6167 19.1C48.3501 19.1 51.0167 22.4 51.0334 25.95ZM49.8501 25.4333C49.6167 22.7 47.5167 20.2 44.6167 20.2C41.7167 20.2 39.6667 22.7 39.3834 25.4333H49.8501Z" fill="white"/>
<path d="M64.4666 19.3666C64.6112 19.3708 64.7487 19.4301 64.8509 19.5324C64.9532 19.6346 65.0124 19.7721 65.0166 19.9166C65.0187 19.9894 65.0059 20.0619 64.979 20.1295C64.9521 20.1972 64.9116 20.2587 64.8602 20.3102C64.8087 20.3617 64.7472 20.4021 64.6795 20.429C64.6119 20.4559 64.5394 20.4687 64.4666 20.4666H61.5V32.1166C61.4987 32.2621 61.4403 32.4012 61.3374 32.5041C61.2346 32.607 61.0954 32.6653 60.95 32.6666C60.8054 32.6625 60.668 32.6032 60.5657 32.5009C60.4635 32.3987 60.4042 32.2612 60.4 32.1166V20.4666H57.55C57.4772 20.4687 57.4047 20.4559 57.3371 20.429C57.2694 20.4021 57.2079 20.3617 57.1565 20.3102C57.105 20.2587 57.0645 20.1972 57.0376 20.1295C57.0107 20.0619 56.9979 19.9894 57 19.9166C57.0013 19.7712 57.0596 19.632 57.1625 19.5292C57.2654 19.4263 57.4045 19.3679 57.55 19.3666H60.4V15.1166C60.4003 14.9758 60.4508 14.8397 60.5424 14.7328C60.6341 14.6259 60.7608 14.5551 60.9 14.5333C60.9777 14.523 61.0568 14.5296 61.1318 14.5526C61.2068 14.5757 61.2759 14.6146 61.3345 14.6668C61.393 14.7191 61.4396 14.7833 61.4711 14.8552C61.5025 14.9271 61.518 15.0049 61.5166 15.0833V19.3666H64.4666Z" fill="white"/>
<path d="M82.55 25V32.05C82.5458 32.1945 82.4866 32.332 82.3843 32.4342C82.2821 32.5365 82.1446 32.5958 82 32.6C81.9272 32.6021 81.8548 32.5892 81.7871 32.5623C81.7195 32.5354 81.658 32.495 81.6065 32.4435C81.555 32.392 81.5146 32.3305 81.4877 32.2629C81.4608 32.1952 81.448 32.1228 81.45 32.05V25C81.45 22.6166 80.1 20.25 77.45 20.25C74.05 20.25 72.5834 23.2166 72.7834 26.2666C72.7834 26.35 72.8167 26.7 72.8167 26.75V32.0333C72.8164 32.1741 72.7659 32.3102 72.6743 32.4172C72.5826 32.5241 72.4558 32.5948 72.3167 32.6166C72.2389 32.627 72.1599 32.6204 72.0849 32.5973C72.0099 32.5743 71.9407 32.5353 71.8822 32.4831C71.8236 32.4309 71.7771 32.3667 71.7456 32.2948C71.7142 32.2229 71.6986 32.1451 71.7 32.0666V8.88331C71.7013 8.73785 71.7597 8.59871 71.8626 8.49585C71.9654 8.39298 72.1046 8.33462 72.25 8.33331C72.3946 8.33751 72.5321 8.3968 72.6343 8.49905C72.7366 8.6013 72.7958 8.73877 72.8 8.88331V21.9833C73.75 20.2833 75.45 19.1333 77.4334 19.1333C80.7 19.1333 82.55 21.9833 82.55 25Z" fill="white"/>
<path d="M102.4 25.95C102.397 26.1068 102.333 26.2561 102.22 26.3654C102.108 26.4747 101.957 26.5351 101.8 26.5333H90.7501C91.0334 29.2666 93.0834 31.7666 95.9834 31.7666C97.9668 31.7666 99.4334 31.0166 100.533 29.4333C100.585 29.3501 100.656 29.2808 100.74 29.2314C100.824 29.182 100.919 29.154 101.017 29.15C101.09 29.1479 101.162 29.1607 101.23 29.1876C101.297 29.2145 101.359 29.255 101.41 29.3065C101.462 29.3579 101.502 29.4194 101.529 29.4871C101.556 29.5547 101.569 29.6272 101.567 29.7C101.567 29.8005 101.538 29.899 101.483 29.9833C100.367 31.9166 98.1501 32.8666 95.9834 32.8666C92.2668 32.8666 89.6001 29.5333 89.6001 25.9833C89.6001 22.4333 92.2501 19.1 95.9834 19.1C99.6834 19.1 102.383 22.4 102.4 25.95ZM101.2 25.4333C100.967 22.7 98.8668 20.2 95.9668 20.2C93.0668 20.2 91.0168 22.7 90.7334 25.4333H101.2Z" fill="white"/>
<path d="M115.983 19.8834C115.994 20.0313 115.945 20.1775 115.849 20.2899C115.752 20.4023 115.614 20.4719 115.466 20.4834C112.216 20.9667 110.75 23.6167 110.75 26.7V31.9834C110.75 32.1242 110.699 32.2603 110.607 32.3672C110.516 32.4742 110.389 32.5449 110.25 32.5667C110.172 32.577 110.093 32.5704 110.018 32.5474C109.943 32.5244 109.874 32.4854 109.815 32.4332C109.757 32.381 109.71 32.3167 109.679 32.2448C109.647 32.173 109.632 32.0951 109.633 32.0167V19.9667C109.633 19.8259 109.684 19.6898 109.776 19.5828C109.867 19.4759 109.994 19.4052 110.133 19.3834C110.211 19.373 110.29 19.3796 110.365 19.4027C110.44 19.4257 110.509 19.4647 110.568 19.5169C110.626 19.5691 110.673 19.6334 110.704 19.7052C110.736 19.7771 110.751 19.8549 110.75 19.9334V22.3834C111.666 20.8334 113.483 19.3667 115.383 19.3667C115.666 19.3667 115.983 19.5667 115.983 19.8834Z" fill="white"/>
<path d="M134.15 25.95C134.147 26.1068 134.083 26.2561 133.97 26.3654C133.858 26.4747 133.707 26.5351 133.55 26.5333H122.5C122.783 29.2666 124.833 31.7666 127.733 31.7666C129.717 31.7666 131.183 31.0166 132.283 29.4333C132.335 29.3501 132.406 29.2808 132.49 29.2314C132.574 29.182 132.669 29.154 132.767 29.15C132.84 29.1479 132.912 29.1607 132.98 29.1876C133.047 29.2145 133.109 29.255 133.16 29.3065C133.212 29.3579 133.252 29.4194 133.279 29.4871C133.306 29.5547 133.319 29.6272 133.317 29.7C133.317 29.8005 133.288 29.899 133.233 29.9833C132.117 31.9166 129.9 32.8666 127.733 32.8666C124.017 32.8666 121.35 29.5333 121.35 25.9833C121.35 22.4333 124 19.1 127.733 19.1C131.467 19.1 134.133 22.4 134.15 25.95ZM132.967 25.4333C132.733 22.7 130.633 20.2 127.733 20.2C124.833 20.2 122.783 22.7 122.5 25.4333H132.967Z" fill="white"/>
<path d="M152.017 20.0166V32.1166C152.013 32.2612 151.953 32.3986 151.851 32.5009C151.749 32.6031 151.611 32.6624 151.467 32.6666C151.394 32.6687 151.322 32.6559 151.254 32.629C151.186 32.6021 151.125 32.5616 151.073 32.5101C151.022 32.4587 150.981 32.3972 150.954 32.3295C150.928 32.2619 150.915 32.1894 150.917 32.1166V29.8166C150 31.6333 148.383 32.95 146.317 32.95C143.033 32.95 141.217 30.1 141.217 27.0833V20C141.218 19.8545 141.276 19.7154 141.379 19.6125C141.482 19.5096 141.621 19.4513 141.767 19.45C141.911 19.4542 142.049 19.5134 142.151 19.6157C142.253 19.7179 142.313 19.8554 142.317 20V27.0833C142.317 29.4666 143.667 31.8333 146.317 31.8333C150.033 31.8333 150.917 28.35 150.917 24.5V19.9833C150.918 19.8941 150.941 19.8066 150.983 19.7279C151.025 19.6493 151.085 19.5818 151.158 19.5312C151.232 19.4806 151.316 19.4484 151.405 19.4371C151.493 19.4259 151.583 19.436 151.667 19.4666C151.772 19.5153 151.86 19.593 151.922 19.6905C151.984 19.7879 152.017 19.9011 152.017 20.0166Z" fill="white"/>
<path d="M180 24.95V32.0334C179.996 32.1779 179.937 32.3154 179.834 32.4176C179.732 32.5199 179.595 32.5792 179.45 32.5834C179.377 32.5854 179.305 32.5726 179.237 32.5457C179.169 32.5188 179.108 32.4784 179.057 32.4269C179.005 32.3754 178.965 32.3139 178.938 32.2463C178.911 32.1786 178.898 32.1062 178.9 32.0334V24.95C178.9 22.5667 177.55 20.2334 174.9 20.2334C171.567 20.2334 170.3 23.8 170.3 26.5667V32.0334C170.296 32.1779 170.237 32.3154 170.134 32.4176C170.032 32.5199 169.895 32.5792 169.75 32.5834C169.677 32.5854 169.605 32.5726 169.537 32.5457C169.469 32.5188 169.408 32.4784 169.357 32.4269C169.305 32.3754 169.265 32.3139 169.238 32.2463C169.211 32.1786 169.198 32.1062 169.2 32.0334V24.95C169.2 22.5667 167.85 20.2334 165.2 20.2334C161.833 20.2334 160.45 22.8834 160.567 26.4167C160.567 26.5 160.6 26.65 160.567 26.7V32.0167C160.566 32.1575 160.516 32.2936 160.424 32.4006C160.333 32.5075 160.206 32.5782 160.067 32.6C159.989 32.6104 159.91 32.6038 159.835 32.5807C159.76 32.5577 159.691 32.5187 159.632 32.4665C159.574 32.4143 159.527 32.35 159.496 32.2782C159.464 32.2063 159.449 32.1285 159.45 32.05V19.9667C159.45 19.8259 159.501 19.6898 159.592 19.5828C159.684 19.4759 159.811 19.4052 159.95 19.3834C160.028 19.373 160.107 19.3796 160.182 19.4027C160.257 19.4257 160.326 19.4647 160.385 19.5169C160.443 19.5691 160.49 19.6333 160.521 19.7052C160.553 19.7771 160.568 19.8549 160.567 19.9334V21.95C161.517 20.25 163.217 19.1334 165.2 19.1334C167.45 19.1334 169.2 20.5667 169.917 22.65C170.833 20.5834 172.617 19.1334 174.9 19.1334C178.15 19.1334 180 21.95 180 24.95Z" fill="white"/>
<path opacity="0.6" d="M13.8333 16.6833L0 22.9666L13.8333 31.15L27.6833 22.9666L13.8333 16.6833Z" fill="white"/>
<path opacity="0.45" d="M0 22.9667L13.8333 31.15V0L0 22.9667Z" fill="white"/>
<path opacity="0.8" d="M13.8333 0V31.15L27.6833 22.9667L13.8333 0Z" fill="white"/>
<path opacity="0.45" d="M0 25.6L13.8333 45.1V33.7667L0 25.6Z" fill="white"/>
<path opacity="0.8" d="M13.8333 33.7667V45.1L27.6833 25.6L13.8333 33.7667Z" fill="white"/>
</svg>
