<svg width="211" height="41" viewBox="0 0 211 41" fill="none" xmlns="http://www.w3.org/2000/svg">
<path fill-rule="evenodd" clip-rule="evenodd" d="M49.4075 33.5522C48.5605 33.876 47.6692 34.1024 46.7422 34.2158C43.6039 34.5998 42.9593 34.6856 42.3147 34.6859C41.6649 34.6862 41.015 34.5996 37.8097 34.6442C37.8049 34.6442 37.8003 34.644 37.7956 34.6434C37.4879 34.6083 37.3971 34.175 37.3971 33.8653V30.7835C37.3971 30.2525 36.9666 29.8219 36.4356 29.8219H32.5452C32.0142 29.8219 31.5837 30.2525 31.5837 30.7835V39.6833C31.5837 40.2144 32.0142 40.6449 32.5452 40.6449H33.2687C36.5477 40.6513 37.2762 40.6544 38.0047 40.6544C38.7331 40.6544 39.4616 40.6513 42.7406 40.6449C43.2952 40.6624 43.8501 40.6613 44.4042 40.6417C44.4596 40.6514 44.5167 40.6561 44.5753 40.6553C48.5638 40.5979 52.0752 39.2988 55.272 37.0478C60.8611 33.1032 64.0329 26.7852 63.9997 20.3272C64.032 13.8702 60.8603 7.55353 55.272 3.60944C52.0752 1.35843 48.5638 0.059425 44.5753 0.00197311C44.5167 0.0011301 44.4596 0.00583305 44.4042 0.0155863C43.8501 -0.00404685 43.2952 -0.00513859 42.7406 0.0123487C39.4616 0.00600215 38.7331 0.00282886 38.0047 0.00282886C37.2762 0.00282886 36.5478 0.00600215 33.2687 0.0123487H32.5453C32.0142 0.0123487 31.5837 0.442861 31.5837 0.973924V9.63336C31.5837 10.1644 32.0142 10.5949 32.5453 10.5949H36.4356C36.9666 10.5949 37.3971 10.1644 37.3971 9.63336V6.792C37.3971 6.48228 37.4879 6.04897 37.7956 6.01384C37.8003 6.01331 37.8049 6.01304 37.8097 6.01304C41.015 6.05765 41.6649 5.97109 42.3148 5.97139C42.9594 5.97169 43.6039 6.05745 46.7422 6.44143C47.6692 6.55484 48.5603 6.78122 49.4073 7.10499C54.2033 9.24859 57.6915 14.0016 58.0391 19.4949C58.0571 19.7738 58.0663 20.0528 58.067 20.3317C58.0662 20.6085 58.057 20.8855 58.0391 21.1623C57.6915 26.6556 54.2034 31.4085 49.4075 33.5522Z" fill="white"/>
<path fill-rule="evenodd" clip-rule="evenodd" d="M27.6453 0.964381C27.6453 0.578613 27.3832 0.235891 27.0009 0.184771H22.5424C22.2447 0.184771 21.9468 0.182768 21.649 0.180765C20.9309 0.175937 20.2128 0.171107 19.4955 0.194326C19.4412 0.183479 19.385 0.177593 19.3273 0.17717C16.5673 0.156911 14.0064 0.924117 11.5563 2.08802C8.12461 3.73739 5.23481 6.30906 3.20007 9.49877C1.74506 11.7367 0.73038 14.2633 0.289023 16.9475C0.0930795 18.099 -0.00259527 19.259 6.25749e-05 20.4152C-0.00280484 21.5726 0.092865 22.7339 0.289014 23.8865C0.730466 26.5714 1.74549 29.0985 3.20101 31.3367C5.2357 34.5258 8.12514 37.0969 11.5563 38.746C14.0064 39.9099 16.5673 40.6772 19.3273 40.6569C19.385 40.6565 19.4412 40.6506 19.4955 40.6397C20.2128 40.663 20.9309 40.6581 21.6489 40.6533C21.9468 40.6513 22.2447 40.6493 22.5424 40.6493H27.0009C27.3832 40.5982 27.6452 40.2555 27.6452 39.8697V35.3556C27.6452 34.8246 27.208 34.3937 26.677 34.3966C23.0027 34.4164 22.2725 34.55 21.7951 34.6374C21.4685 34.6971 21.2602 34.7352 20.3092 34.7005C14.333 34.6261 9.24745 31.078 7.05995 26.0293C6.32323 24.3044 5.91726 22.4072 5.91237 20.4153C5.91771 18.4258 6.32319 16.5308 7.05873 14.8076C9.24555 9.75741 14.3319 6.20801 20.3092 6.13356C21.2602 6.09884 21.4685 6.13696 21.7951 6.19671C22.2725 6.28408 23.0027 6.4177 26.677 6.43751C27.208 6.44038 27.6453 6.00949 27.6453 5.47843V0.964381Z" fill="white"/>
<path d="M42.7238 23.1608C43.4993 23.4943 43.4993 24.5939 42.7238 24.9274L35.2449 28.144C35.0024 28.2483 34.7276 28.2483 34.4851 28.144L27.0062 24.9274C26.2307 24.5939 26.2307 23.4943 27.0062 23.1608L34.4851 19.944C34.7276 19.8396 35.0024 19.8396 35.245 19.944L42.7238 23.1608Z" fill="#ABBD81"/>
<path d="M42.7238 19.5167C43.4993 19.8503 43.4993 20.9498 42.7238 21.2834L35.2449 24.5C35.0024 24.6043 34.7276 24.6043 34.4851 24.5L27.0062 21.2834C26.2307 20.9498 26.2307 19.8503 27.0062 19.5167L34.4851 16.2999C34.7276 16.1956 35.0024 16.1956 35.245 16.2999L42.7238 19.5167Z" fill="#F8B26A"/>
<path d="M42.7238 15.8722C43.4993 16.2057 43.4993 17.3053 42.7238 17.6388L35.2449 20.8555C35.0024 20.9598 34.7276 20.9598 34.4851 20.8555L27.0062 17.6389C26.2307 17.3053 26.2307 16.2057 27.0062 15.8722L34.4851 12.6554C34.7276 12.5511 35.0024 12.5511 35.2449 12.6554L42.7238 15.8722Z" fill="#EE2970"/>
<path d="M72 25.2151V15.5215C72 14.4093 72.4123 13.3258 73.2369 12.2711C74.3299 10.8713 75.8065 10.1618 77.6666 10.1426V14.1984C76.8612 14.2175 76.3434 14.5915 76.1133 15.3202C76.075 15.3969 76.0558 15.464 76.0558 15.5215V25.2151C76.0558 25.5219 76.2188 25.8192 76.5448 26.1068C76.8516 26.3753 77.2255 26.5095 77.6666 26.5095V30.5653C75.5188 30.5653 73.8984 29.664 72.8054 27.8614C72.2685 26.941 72 26.0589 72 25.2151ZM79.2199 30.5653V26.5095C79.2199 26.5095 79.4404 26.4232 79.8814 26.2506C80.1499 26.0589 80.3321 25.8575 80.428 25.6466C80.5238 25.3973 80.5718 25.0425 80.5718 24.5823V24.2371L84.5413 25.1863C84.5413 26.8547 83.8701 28.2354 82.5278 29.3284C81.5114 30.153 80.4088 30.5653 79.2199 30.5653ZM79.2199 14.1984V10.1426C80.6197 10.1426 81.8854 10.7562 83.0168 11.9835C84.0331 13.0957 84.5413 14.2942 84.5413 15.579L80.5718 16.6146V16.1831C80.5718 15.7037 80.5238 15.3489 80.428 15.1188C80.3513 14.9271 80.2074 14.7545 79.9965 14.6011C79.8047 14.4476 79.6321 14.3422 79.4787 14.2846L79.2199 14.1984Z" fill="white"/>
<path d="M88.9181 30.4215V10.2864H92.9738V18.3117H94.0956V22.2811H92.9738V30.4215H88.9181ZM95.6777 22.2811V18.3117H96.7995V10.2864H100.855V30.4215H96.7995V22.2811H95.6777Z" fill="white"/>
<path d="M105.577 30.4215L109.288 13.6806H109.719L111.445 21.7346L109.547 30.4215H105.577ZM111.704 27.9765L112.567 24.007H113.602L110.553 10.2864H114.552L119.298 30.4215H115.271L114.696 27.9765H111.704Z" fill="white"/>
<path d="M123.703 30.4215V10.2864H127.759V30.4215H123.703Z" fill="white"/>
<path d="M132.826 30.4215V16.2694H133.056L136.882 22.425V30.4215H132.826ZM132.826 12.9327V10.2864H136.134L145.626 25.589V30.4215H143.699L132.826 12.9327ZM141.571 16.0968V10.2864H145.626V22.2524H145.396L141.571 16.0968Z" fill="white"/>
<path d="M149.715 30.3707V10.2356H153.77V30.3707H149.715ZM155.324 30.3707V26.3149C155.746 26.3149 156.139 26.1423 156.503 25.7971C156.772 25.4903 156.915 25.126 156.935 24.7041V15.9022C156.935 15.5187 156.772 15.1447 156.446 14.7804C156.139 14.4736 155.765 14.3106 155.324 14.2914V10.2356C157.452 10.2356 159.063 11.1848 160.156 13.0833C160.712 14.0613 160.99 15.0009 160.99 15.9022V24.7041C160.99 26.8902 160.022 28.5202 158.085 29.594C157.126 30.1118 156.206 30.3707 155.324 30.3707Z" fill="#EE2970"/>
<path d="M165.942 30.3707V10.2356H176.413V14.2626H169.998V18.3472H173.709V22.403H169.998V26.3149H176.413V30.3707H165.942Z" fill="#EE2970"/>
<path d="M181.25 25.1643V15.4707C181.25 14.3585 181.662 13.2751 182.487 12.2204C183.58 10.8205 185.056 10.111 186.916 10.0918V14.1476C186.111 14.1667 185.593 14.5407 185.363 15.2694C185.325 15.3461 185.305 15.4132 185.305 15.4707V25.1643C185.305 25.4712 185.468 25.7684 185.794 26.056C186.101 26.3245 186.475 26.4587 186.916 26.4587V30.5145C184.768 30.5145 183.148 29.6132 182.055 27.8107C181.518 26.8902 181.25 26.0081 181.25 25.1643ZM188.47 30.5145V26.4587C188.47 26.4587 188.69 26.3724 189.131 26.1998C189.4 26.0081 189.582 25.8067 189.678 25.5958C189.773 25.3465 189.821 24.9917 189.821 24.5315V24.1863L193.791 25.1356C193.791 26.8039 193.12 28.1846 191.777 29.2776C190.761 30.1022 189.658 30.5145 188.47 30.5145ZM188.47 14.1476V10.0918C189.869 10.0918 191.135 10.7054 192.266 11.9327C193.283 13.0449 193.791 14.2435 193.791 15.5283L189.821 16.5638V16.1323C189.821 15.6529 189.773 15.2981 189.678 15.068C189.601 14.8763 189.457 14.7037 189.246 14.5503C189.054 14.3969 188.882 14.2914 188.728 14.2339L188.47 14.1476Z" fill="#EE2970"/>
<path d="M198.225 30.3707V10.2356H202.281V30.3707H198.225ZM203.432 20.562L206.509 10.2356H210.508L207.459 20.562L210.623 30.3707H206.653L203.432 20.562Z" fill="#EE2970"/>
</svg>
