<svg width="144" height="92" viewBox="0 0 144 92" fill="none" xmlns="http://www.w3.org/2000/svg">
<path fill-rule="evenodd" clip-rule="evenodd" d="M111.167 75.4924C109.261 76.221 107.256 76.7305 105.17 76.9856C98.1087 77.8496 96.6584 78.0426 95.2081 78.0433C93.7459 78.0439 92.2836 77.8492 85.0717 77.9495C85.061 77.9495 85.0505 77.9489 85.0401 77.9477C84.3477 77.8687 84.1435 76.8937 84.1435 76.1969V69.2629C84.1435 68.068 83.1748 67.0994 81.9799 67.0994H73.2267C72.0318 67.0994 71.0632 68.068 71.0632 69.2629V89.2875C71.0632 90.4824 72.0318 91.4511 73.2267 91.4511H74.8545C82.2324 91.4654 83.8714 91.4725 85.5104 91.4725C87.1494 91.4725 88.7884 91.4654 96.1663 91.4511C97.4142 91.4904 98.6626 91.488 99.9094 91.4438C100.034 91.4657 100.163 91.4763 100.294 91.4744C109.268 91.3452 117.169 88.4224 124.362 83.3576C136.937 74.4821 144.074 60.2667 143.999 45.7361C144.072 31.2079 136.936 16.9954 124.362 8.12124C117.169 3.05648 109.268 0.133706 100.294 0.0044395C100.163 0.00254272 100.034 0.0131244 99.9094 0.0350691C98.6626 -0.00910542 97.4142 -0.0115618 96.1664 0.0277847C88.7885 0.0135048 87.1495 0.00636494 85.5104 0.00636494C83.8714 0.00636494 82.2324 0.0135048 74.8545 0.0277847H73.2268C72.0319 0.0277847 71.0632 0.996437 71.0632 2.19133V21.6751C71.0632 22.8699 72.0319 23.8386 73.2268 23.8386H81.98C83.1749 23.8386 84.1435 22.8699 84.1435 21.6751V15.282C84.1435 14.5851 84.3477 13.6102 85.0401 13.5311C85.0505 13.5299 85.061 13.5293 85.0717 13.5293C92.2837 13.6297 93.7459 13.4349 95.2081 13.4356C96.6585 13.4363 98.1087 13.6293 105.17 14.4932C107.256 14.7484 109.261 15.2578 111.166 15.9862C121.957 20.8093 129.806 31.5037 130.588 43.8636C130.628 44.491 130.649 45.1189 130.651 45.7463C130.649 46.3691 130.628 46.9924 130.588 47.6153C129.806 59.975 121.958 70.6692 111.167 75.4924Z" fill="white"/>
<path fill-rule="evenodd" clip-rule="evenodd" d="M62.2018 2.16961C62.2018 1.30163 61.6123 0.53051 60.7519 0.415492H50.7205C50.0505 0.415492 49.3804 0.410985 48.7101 0.406478C47.0946 0.395613 45.4787 0.384746 43.8648 0.43699C43.7426 0.412583 43.6162 0.39934 43.4863 0.398387C37.2764 0.352807 31.5144 2.07902 26.0016 4.6978C18.2804 8.40889 11.7783 14.1951 7.20016 21.372C3.92638 26.4072 1.64335 32.0922 0.650302 38.1317C0.209429 40.7225 -0.00583936 43.3326 0.000140794 45.934C-0.00631089 48.5381 0.208946 51.1509 0.650282 53.7445C1.64355 59.7853 3.92735 65.4714 7.20226 70.5074C11.7803 77.6828 18.2816 83.4678 26.0016 87.1784C31.5144 89.7971 37.2764 91.5234 43.4864 91.4778C43.6162 91.4768 43.7427 91.4636 43.8649 91.4392C45.4787 91.4914 47.0946 91.4805 48.7101 91.4697C49.3803 91.4652 50.0505 91.4607 50.7204 91.4607H60.7519C61.6122 91.3457 62.2018 90.5745 62.2018 89.7066V79.5499C62.2018 78.3551 61.218 77.3856 60.0231 77.392C51.7561 77.4366 50.1132 77.7372 49.0389 77.9338C48.3042 78.0682 47.8354 78.154 45.6957 78.0759C32.2492 77.9084 20.8068 69.9252 15.8849 58.5656C14.2273 54.6846 13.3138 50.416 13.3028 45.9343C13.3148 41.4577 14.2272 37.1941 15.8821 33.3169C20.8025 21.9539 32.2467 13.9678 45.6957 13.8003C47.8355 13.7222 48.3042 13.8079 49.0389 13.9424C50.1132 14.1389 51.7562 14.4396 60.0231 14.4842C61.218 14.4906 62.2018 13.5211 62.2018 12.3262V2.16961Z" fill="white"/>
<path d="M96.1285 52.1116C97.8735 52.8621 97.8735 55.3361 96.1285 56.0866L79.3011 63.3239C78.7554 63.5587 78.1372 63.5587 77.5915 63.3239L60.7641 56.0866C59.0191 55.3361 59.0191 52.8621 60.764 52.1116L77.5914 44.8738C78.1372 44.6391 78.7554 44.6391 79.3011 44.8738L96.1285 52.1116Z" fill="#ABBD81"/>
<path d="M96.1285 43.9128C97.8735 44.6634 97.8735 47.1374 96.1285 47.8878L79.3011 55.1252C78.7554 55.3599 78.1372 55.3599 77.5915 55.1252L60.7641 47.8879C59.0191 47.1374 59.0191 44.6634 60.764 43.9128L77.5914 36.6751C78.1372 36.4403 78.7554 36.4403 79.3011 36.6751L96.1285 43.9128Z" fill="#F8B26A"/>
<path d="M96.1285 35.7126C97.8735 36.4632 97.8735 38.9372 96.1285 39.6877L79.3011 46.925C78.7554 47.1597 78.1372 47.1597 77.5915 46.925L60.7641 39.6877C59.0191 38.9372 59.0191 36.4632 60.764 35.7126L77.5914 28.4749C78.1372 28.2401 78.7554 28.2401 79.3011 28.4749L96.1285 35.7126Z" fill="#EE2970"/>
</svg>
