<svg width="33" height="32" viewBox="0 0 33 32" fill="none" xmlns="http://www.w3.org/2000/svg">
<path opacity="0.4" d="M2.14613 6.64368H20.709C21.5678 6.64368 22.2648 7.34064 22.2648 8.1994C22.2648 9.05815 21.5678 9.75514 20.709 9.75514H2.14613C1.28737 9.75514 0.590408 9.05815 0.590408 8.1994C0.590408 7.34064 1.28737 6.64368 2.14613 6.64368Z" fill="white"/>
<mask id="mask0_252_17688" style="mask-type:alpha" maskUnits="userSpaceOnUse" x="19" y="0" width="14" height="17">
<path fill-rule="evenodd" clip-rule="evenodd" d="M19.1537 16.7534V0H32.5401V16.7534H19.1537Z" fill="white"/>
</mask>
<g mask="url(#mask0_252_17688)">
<path d="M20.2044 0.143066C20.4005 0.143066 20.5938 0.1977 20.7647 0.304167L31.8821 7.30998C32.1874 7.50329 32.3738 7.83813 32.3738 8.1995C32.3738 8.56095 32.1874 8.8958 31.8821 9.0891L20.7647 16.0949C20.4411 16.298 20.032 16.3107 19.6972 16.1243C19.361 15.9394 19.1537 15.5878 19.1537 15.2054V1.19373C19.1537 0.811282 19.361 0.459665 19.6972 0.274749C19.8555 0.186493 20.0306 0.143066 20.2044 0.143066Z" fill="white"/>
</g>
<path opacity="0.4" d="M30.6705 25.0216H12.1076C11.2488 25.0216 10.5518 24.3246 10.5518 23.4659C10.5518 22.6071 11.2488 21.9102 12.1076 21.9102H30.6705C31.5292 21.9102 32.2262 22.6071 32.2262 23.4659C32.2262 24.3246 31.5292 25.0216 30.6705 25.0216Z" fill="white"/>
<mask id="mask1_252_17688" style="mask-type:alpha" maskUnits="userSpaceOnUse" x="0" y="14" width="14" height="18">
<path fill-rule="evenodd" clip-rule="evenodd" d="M13.6629 14.9119V31.6652H0.276474V14.9119H13.6629Z" fill="white"/>
</mask>
<g mask="url(#mask1_252_17688)">
<path d="M12.6123 31.5222C12.4161 31.5222 12.2229 31.4676 12.052 31.3611L0.934536 24.3553C0.629144 24.162 0.442825 23.8272 0.442825 23.4657C0.442825 23.1044 0.629144 22.7695 0.934536 22.5762L12.052 15.5704C12.3755 15.3672 12.7846 15.3546 13.1194 15.5409C13.4556 15.7258 13.6629 16.0775 13.6629 16.4599V30.4716C13.6629 30.854 13.4556 31.2056 13.1194 31.3905C12.9611 31.4788 12.786 31.5222 12.6123 31.5222Z" fill="white"/>
</g>
</svg>
