<svg width="32" height="32" viewBox="0 0 32 32" fill="none" xmlns="http://www.w3.org/2000/svg">
<path d="M17.7994 15.9523C17.7994 20.3411 14.2708 23.9047 9.89969 23.9047C5.52853 23.9047 2 20.3411 2 15.9523C2 11.5636 5.52853 8 9.89969 8C14.2708 8 17.7994 11.5636 17.7994 15.9523ZM26.4539 15.9523C26.4539 20.0777 24.6809 23.4307 22.5041 23.4307C20.3273 23.4307 18.5542 20.0777 18.5542 15.9523C18.5542 11.827 20.3273 8.47398 22.5041 8.47398C24.6809 8.47398 26.4539 11.8094 26.4539 15.9523ZM30 15.9523C30 19.6564 29.3856 22.6583 28.6132 22.6583C27.8408 22.6583 27.2263 19.6564 27.2263 15.9523C27.2263 12.2483 27.8408 9.24639 28.6132 9.24639C29.3856 9.24639 30 12.2483 30 15.9523Z" fill="#EBEBEB"/>
</svg>
