<svg width="180" height="38" viewBox="0 0 180 38" fill="none" xmlns="http://www.w3.org/2000/svg">
<path d="M31.8866 11.5589C31.1027 11.0806 30.093 11.0806 29.2427 11.5589L23.1577 15.2392L19.0257 17.6439L12.9407 21.3242C12.1568 21.8025 11.147 21.8025 10.2967 21.3242L5.46058 18.4411C4.67671 17.9628 4.13198 17.0859 4.13198 16.116V10.4429C4.13198 9.48627 4.59699 8.60939 5.46058 8.1178L10.217 5.31444C11.0009 4.83614 12.0106 4.83614 12.8609 5.31444L17.6174 8.1178C18.4012 8.5961 18.946 9.47299 18.946 10.4429V14.1231L23.0779 11.6386V7.95837C23.0779 7.00177 22.6129 6.12489 21.7493 5.6333L12.9407 0.358725C12.1568 -0.119575 11.147 -0.119575 10.2967 0.358725L1.32861 5.6333C0.465013 6.1116 0 6.98849 0 7.95837V18.6005C0 19.5571 0.465013 20.434 1.32861 20.9256L10.2967 26.2002C11.0806 26.6785 12.0903 26.6785 12.9407 26.2002L19.0257 22.5996L23.1577 20.1151L29.2427 16.5146C30.0266 16.0363 31.0363 16.0363 31.8866 16.5146L36.643 19.318C37.4269 19.7963 37.9717 20.6732 37.9717 21.643V27.3295C37.9717 28.2861 37.5066 29.163 36.643 29.6546L31.8866 32.5376C31.1027 33.0159 30.093 33.0159 29.2427 32.5376L24.4863 29.7343C23.7024 29.256 23.1577 28.3791 23.1577 27.4092V23.729L19.0257 26.2135V29.8937C19.0257 30.8503 19.4907 31.7272 20.3543 32.2188L29.3224 37.4934C30.1063 37.9717 31.116 37.9717 31.9663 37.4934L40.9345 32.2188C41.7183 31.7405 42.2631 30.8636 42.2631 29.8937V19.2516C42.2631 18.295 41.7981 17.4181 40.9345 16.9265L31.8999 11.5722L31.8866 11.5589Z" fill="#794FDD"/>
<path d="M58.7113 34.4375V25.6023C59.6679 26.8113 61.3818 27.4889 63.388 27.4889C68.4899 27.4889 71.9443 23.8352 71.9443 18.2683C71.9443 12.7015 68.7822 9.04779 63.8132 9.04779C61.528 9.04779 59.7609 9.8981 58.7113 11.2799V9.3268H53.822V34.4375H58.7113ZM62.7901 23.2241C60.1462 23.2241 58.419 21.2311 58.419 18.2551C58.419 15.2391 60.1462 13.2595 62.7901 13.2595C65.3544 13.2595 67.1214 15.2524 67.1214 18.2551C67.1214 21.2311 65.3676 23.2241 62.7901 23.2241Z" fill="white"/>
<path d="M83.0647 27.4889C88.5253 27.4889 92.4314 23.5828 92.4314 18.2683C92.4314 12.9539 88.5253 9.04779 83.0647 9.04779C77.6041 9.04779 73.698 12.9539 73.698 18.2683C73.698 23.5828 77.6041 27.4889 83.0647 27.4889ZM83.0647 23.2373C80.4208 23.2373 78.6271 21.2179 78.6271 18.2683C78.6271 15.2923 80.4208 13.2728 83.0647 13.2728C85.7086 13.2728 87.5022 15.2923 87.5022 18.2683C87.5022 21.2179 85.7086 23.2373 83.0647 23.2373Z" fill="white"/>
<path d="M100.27 27.2099V1.55444H95.3809V27.2099H100.27Z" fill="white"/>
<path d="M114.978 9.32684L111.284 20.8592L107.551 9.32684H102.555L108.999 27.0638L106.395 34.4376H111.072L113.57 27.1302L120.013 9.32684H114.978Z" fill="white"/>
<path d="M133.764 11.0939C132.781 9.85828 131.014 9.03455 128.875 9.03455C123.694 9.03455 120.571 12.6882 120.571 18.2551C120.571 23.822 123.707 27.4756 128.955 27.4756C131.027 27.4756 132.901 26.6918 133.818 25.3764V27.7148C133.818 29.3888 132.728 30.558 131.253 30.558H123.082V34.4243H132.024C136.036 34.4243 138.707 31.9796 138.707 28.2462V9.30027H133.778V11.0806L133.764 11.0939ZM129.712 23.2241C127.108 23.2241 125.381 21.271 125.381 18.2551C125.381 15.2392 127.108 13.2595 129.712 13.2595C132.356 13.2595 134.083 15.2524 134.083 18.2551C134.083 21.271 132.356 23.2241 129.712 23.2241Z" fill="white"/>
<path d="M151.023 27.4889C156.484 27.4889 160.39 23.5828 160.39 18.2683C160.39 12.9539 156.484 9.04779 151.023 9.04779C145.562 9.04779 141.656 12.9539 141.656 18.2683C141.656 23.5828 145.562 27.4889 151.023 27.4889ZM151.023 23.2373C148.379 23.2373 146.585 21.2179 146.585 18.2683C146.585 15.2923 148.379 13.2728 151.023 13.2728C153.667 13.2728 155.461 15.2923 155.461 18.2683C155.461 21.2179 153.667 23.2373 151.023 23.2373Z" fill="white"/>
<path d="M167.989 27.2099V17.418C167.989 15.1062 169.504 13.4455 171.656 13.4455C173.702 13.4455 175.071 15 175.071 17.1656V27.2099H180V16.0761C180 11.9574 177.396 9.04779 173.383 9.04779C170.952 9.04779 168.986 10.0708 168.003 11.8113V9.3268H163.073V27.2099H168.003H167.989Z" fill="white"/>
</svg>
