<svg width="41" height="35" viewBox="0 0 41 35" fill="none" xmlns="http://www.w3.org/2000/svg">
<path d="M31.0113 7.6678C29.2066 5.4818 26.7712 3.90599 24.0376 3.15548C21.3041 2.40497 18.4055 2.51633 15.7375 3.47435C13.0696 4.43238 10.7623 6.19039 9.13058 8.50839C7.49887 10.8265 6.62233 13.5915 6.62048 16.4262V20.1871" stroke="white" stroke-opacity="0.4" stroke-width="5" stroke-linecap="round" stroke-linejoin="round"/>
<path d="M10.9984 28.1722C12.8909 30.1776 15.342 31.5687 18.0341 32.1654C20.7262 32.762 23.5355 32.5367 26.0981 31.5187C28.6607 30.5006 30.8587 28.7367 32.4075 26.4554C33.9562 24.174 34.7845 21.4802 34.785 18.7227V16.2189" stroke="white" stroke-opacity="0.4" stroke-width="5" stroke-linecap="round" stroke-linejoin="round"/>
<path d="M12.8553 14.0271C12.8474 14.1779 12.7976 14.3244 12.7089 14.4515L6.87452 22.7168C6.71356 22.9438 6.44864 23.0736 6.17075 23.059C5.89287 23.0444 5.64296 22.8877 5.50663 22.6451L0.568184 13.8152C0.425052 13.5583 0.431838 13.2433 0.588578 12.9933C0.744302 12.7423 1.023 12.597 1.31703 12.6124L12.0898 13.177C12.3839 13.1924 12.6459 13.366 12.7745 13.632C12.836 13.7572 12.8623 13.8936 12.8553 14.0271Z" fill="white"/>
<path d="M28.2316 21.553C28.2368 21.4041 28.2834 21.2588 28.3687 21.1319L33.9826 12.8767C34.1375 12.65 34.3967 12.5174 34.6711 12.527C34.9455 12.5366 35.1948 12.6869 35.3334 12.9239L40.3578 21.5505C40.5035 21.8016 40.5022 22.1125 40.3518 22.3618C40.2025 22.6121 39.9301 22.7602 39.6397 22.7501L29.0014 22.3786C28.7111 22.3685 28.4496 22.2017 28.3181 21.9415C28.2553 21.819 28.2269 21.6849 28.2316 21.553Z" fill="white"/>
</svg>
