<svg width="42" height="42" viewBox="0 0 42 42" fill="none" xmlns="http://www.w3.org/2000/svg">
<path fill-rule="evenodd" clip-rule="evenodd" d="M22.6524 41.5139C34.2548 35.4813 42.082 20.7913 40.5252 7.53256C33.7306 6.8792 27.2591 4.31875 21.8567 0.146446C21.4502 -0.173561 20.3345 0.0815801 19.7204 0.397263C18.4589 1.03934 17.2184 1.72896 15.9792 2.41785C13.8966 3.57558 11.8178 4.73125 9.64885 5.65576C7.88595 6.39618 5.97932 6.80322 3.95066 7.23631C2.99351 7.44064 2.0092 7.65078 1 7.90447C1.10278 8.84845 1.18357 9.80765 1.26499 10.7743C1.4439 12.8985 1.62584 15.0586 2.05084 17.1717C4.16548 27.8141 9.47587 36.2554 19.2793 41.5139C19.7848 41.8309 20.3693 41.999 20.9659 41.999C21.5625 41.999 22.147 41.8309 22.6524 41.5139ZM37.4843 10.7604C37.6157 10.8968 37.7345 11.0201 37.8398 11.1045C36.603 22.4864 32.737 31.7537 23.1929 37.8943C21.5497 38.9452 20.3042 38.8544 18.7258 37.8425C10.0035 32.2337 5.92552 23.9005 4.45522 13.9846C4.41558 13.7216 4.39621 13.4518 4.37678 13.1812C4.34957 12.8023 4.32225 12.4217 4.23899 12.0559C3.93196 10.724 4.3817 10.0624 5.75687 9.81586C10.7138 8.86898 15.4201 6.90312 19.5777 4.04275C20.5205 3.40274 21.221 3.27733 22.2502 3.96924C26.4768 6.85842 31.2395 8.87142 36.257 9.88938C36.7376 9.98548 37.1514 10.415 37.4843 10.7604ZM29.4029 13.4269L18.7561 24.1644L14.622 19.0919L12.676 21.1892L19.0502 27.6759L31.098 15.814L29.4029 13.4269Z" fill="#EE2970"/>
</svg>
