<svg width="20" height="19" viewBox="0 0 20 19" fill="none" xmlns="http://www.w3.org/2000/svg">
<path d="M19.2838 6.69698L13.333 5.83214L10.6728 0.439169C10.6002 0.291513 10.4806 0.171981 10.333 0.0993251C9.96268 -0.0834874 9.51268 0.0688563 9.32752 0.439169L6.66737 5.83214L0.716588 6.69698C0.552525 6.72042 0.402525 6.79776 0.287681 6.91495C0.148842 7.05765 0.0723345 7.24964 0.0749714 7.44872C0.0776082 7.6478 0.159173 7.83769 0.301744 7.97667L4.60721 12.1743L3.59003 18.1017C3.56617 18.2396 3.58143 18.3814 3.63407 18.511C3.68671 18.6407 3.77462 18.753 3.88784 18.8352C4.00106 18.9174 4.13506 18.9663 4.27463 18.9763C4.41421 18.9862 4.55378 18.9568 4.67753 18.8915L10.0002 16.0931L15.3228 18.8915C15.4682 18.9689 15.6369 18.9946 15.7986 18.9665C16.2064 18.8962 16.4806 18.5095 16.4103 18.1017L15.3932 12.1743L19.6986 7.97667C19.8158 7.86183 19.8932 7.71182 19.9166 7.54776C19.9799 7.13761 19.6939 6.75792 19.2838 6.69698Z" fill="#FADB14"/>
</svg>
