<svg width="43" height="43" viewBox="0 0 43 43" fill="none" xmlns="http://www.w3.org/2000/svg">
<path opacity="0.4" d="M31.4491 0H11.6416C4.42341 0 0.33374 4.08967 0.33374 11.3078V31.0965C0.33374 38.3147 4.42341 42.4044 11.6416 42.4044H31.4491C38.6673 42.4044 42.7381 38.3147 42.7381 31.0965V11.3078C42.7381 4.08967 38.6673 0 31.4491 0Z" fill="white"/>
<path d="M11.7163 15.6238C10.7552 15.6238 9.96362 16.4153 9.96362 17.3953V31.9636C9.96362 32.9248 10.7552 33.7163 11.7163 33.7163C12.6963 33.7163 13.4879 32.9248 13.4879 31.9636V17.3953C13.4879 16.4153 12.6963 15.6238 11.7163 15.6238Z" fill="white"/>
<path d="M21.6109 8.66919C20.6497 8.66919 19.8582 9.46074 19.8582 10.4408V31.9633C19.8582 32.9245 20.6497 33.7161 21.6109 33.7161C22.5909 33.7161 23.3824 32.9245 23.3824 31.9633V10.4408C23.3824 9.46074 22.5909 8.66919 21.6109 8.66919Z" fill="white"/>
<path d="M31.3734 23.313C30.3934 23.313 29.6018 24.1046 29.6018 25.0846V31.9635C29.6018 32.9247 30.3934 33.7162 31.3545 33.7162C32.3345 33.7162 33.1261 32.9247 33.1261 31.9635V25.0846C33.1261 24.1046 32.3345 23.313 31.3734 23.313Z" fill="white"/>
</svg>
