<svg width="32" height="32" viewBox="0 0 32 32" fill="none" xmlns="http://www.w3.org/2000/svg">
<path d="M27.1227 10.082C27.134 10.3414 27.134 10.589 27.134 10.8484C27.1454 18.712 21.368 27.7899 10.8026 27.7899C7.68643 27.7899 4.62713 26.8585 2 25.1137C2.45491 25.1726 2.90983 25.1962 3.36474 25.1962C5.94639 25.1962 8.45979 24.3002 10.4955 22.6379C8.03899 22.5907 5.87815 20.9284 5.12754 18.4997C5.99188 18.6766 6.87896 18.6412 7.72055 18.3936C5.04793 17.8513 3.12591 15.4109 3.11454 12.5696C3.11454 12.546 3.11454 12.5225 3.11454 12.4989C3.91064 12.9587 4.8091 13.218 5.71893 13.2416C3.20552 11.4968 2.4208 8.01887 3.94476 5.2955C6.86759 9.02098 11.1665 11.2728 15.7839 11.5204C15.3176 9.45719 15.9545 7.28792 17.4444 5.82602C19.753 3.57423 23.3924 3.69212 25.576 6.08539C26.8611 5.82602 28.1007 5.33087 29.2266 4.63528C28.7945 6.01466 27.896 7.18182 26.7019 7.92456C27.8392 7.78308 28.9537 7.46477 30 6.99319C29.2266 8.19572 28.2486 9.23319 27.1227 10.082Z" fill="#EBEBEB"/>
</svg>
