<svg width="77" height="106" viewBox="0 0 77 106" fill="none" xmlns="http://www.w3.org/2000/svg">
<path fill-rule="evenodd" clip-rule="evenodd" d="M69.4611 42.783L75.8923 54.5312C76.9541 56.4707 76.9125 58.7627 75.7807 60.6624C74.6542 62.5537 72.6711 63.6801 70.4718 63.6801H70.4422L69.4608 63.6756V70.8353C69.4608 78.0558 63.5865 83.9301 56.3659 83.9301H50.1506C49.6132 83.9301 49.1759 84.3673 49.1759 84.9048V103.93C49.1759 104.632 48.8198 105.287 48.2302 105.668C47.8901 105.888 47.499 106 47.1056 106C46.8172 106 46.5282 105.94 46.257 105.818L15.1938 91.8562C14.151 91.3875 13.6856 90.1621 14.1543 89.1191C14.623 88.0761 15.8482 87.6107 16.8915 88.0796L45.0355 100.729V84.905C45.0355 82.0844 47.3302 79.7896 50.1508 79.7896H56.3661C61.3036 79.7896 65.3204 75.7728 65.3204 70.8355V61.5959C65.3204 61.0452 65.5399 60.5173 65.9301 60.1287C66.3181 59.7424 66.8433 59.5256 67.3907 59.5256H67.4003L70.4614 59.5397H70.4722C71.5171 59.5397 72.045 58.8437 72.2237 58.5437C72.403 58.2424 72.7657 57.4427 72.2605 56.5197L65.5749 44.307C65.408 44.0022 65.3204 43.6602 65.3204 43.3128V34.7303C65.3204 17.8631 51.598 4.14062 34.7307 4.14062C17.8633 4.14062 4.14083 17.8631 4.14083 34.7303V40.6943C4.14083 47.4507 6.23371 53.9039 10.1934 59.3563C10.4501 59.7099 10.5884 60.1357 10.5884 60.5728V78.3303C10.5884 79.4737 9.66132 80.4006 8.51809 80.4006C7.37487 80.4006 6.44778 79.4737 6.44778 78.3303V61.2345C2.22724 55.1894 0 48.1027 0 40.6943V34.7303C0.000207031 15.5799 15.5801 0 34.7305 0C53.8809 0 69.4611 15.5799 69.4611 34.7303V42.783ZM53.576 27.4211L54.9658 27.5855C57.5785 27.8946 59.549 29.9237 59.5488 32.3056V37.4373C59.5488 39.819 57.5785 41.8483 54.966 42.1574L53.5764 42.3218C53.4874 42.5474 53.3946 42.7716 53.2977 42.994L54.1644 44.0929C55.7933 46.1589 55.7517 48.9871 54.0675 50.6713L50.439 54.2998C48.7544 55.984 45.9266 56.0256 43.861 54.3969L42.7619 53.5304C42.5393 53.6273 42.3149 53.7203 42.0888 53.8095L41.9245 55.1989C41.6154 57.8118 39.586 59.7819 37.2042 59.7819H32.0727C29.691 59.7819 27.6617 57.8116 27.3526 55.1989L27.1882 53.8093C26.9625 53.7205 26.7385 53.6275 26.5162 53.5306L25.417 54.3973C23.3511 56.0262 20.523 55.9844 18.8392 54.3002L15.2106 50.6715C13.5264 48.9873 13.4848 46.1593 15.1137 44.0933L15.9803 42.9942C15.8835 42.7718 15.7907 42.5476 15.7017 42.322L14.3121 42.1576C11.6996 41.8485 9.72924 39.8194 9.72924 37.4375V32.3058C9.72924 29.9239 11.6996 27.8948 14.3123 27.5857L15.7021 27.4213C15.7909 27.1956 15.8839 26.9716 15.9808 26.7491L15.1143 25.6501C13.4854 23.5846 13.527 20.7566 15.211 19.0724L18.8399 15.4435C20.5245 13.7591 23.3521 13.7177 25.4181 15.3466L26.517 16.2133C26.7391 16.1166 26.9629 16.0238 27.1884 15.935L27.3526 14.5456C27.6617 11.9327 29.691 9.96236 32.0727 9.96236H37.2042C39.586 9.96236 41.6154 11.9325 41.9245 14.545L42.0888 15.9346C42.3145 16.0234 42.5387 16.1164 42.7609 16.213L43.86 15.3464C45.9258 13.7175 48.7538 13.7589 50.4382 15.4433L54.0668 19.0719C55.7508 20.7563 55.7925 23.5842 54.1637 25.6499L53.2973 26.7491C53.3942 26.9714 53.4869 27.1954 53.576 27.4211ZM54.4795 38.0457C55.0548 37.9776 55.408 37.6455 55.408 37.4375V32.3058C55.408 32.0977 55.0546 31.7659 54.4795 31.6975L51.8143 31.3824C51.0075 31.2872 50.331 30.7286 50.0846 29.9543C49.8084 29.0865 49.4563 28.2368 49.0376 27.429C48.6635 26.7073 48.7468 25.8332 49.2501 25.1947L50.9121 23.0865C51.2707 22.6316 51.2858 22.147 51.1386 21.9998L47.5102 18.3713C47.3634 18.2241 46.8783 18.2393 46.4235 18.598L44.3153 20.2603C43.677 20.7638 42.8027 20.8468 42.0812 20.4729C41.2731 20.0543 40.4235 19.7021 39.556 19.4262C38.7817 19.1798 38.2232 18.5032 38.1277 17.6964L37.8126 15.0313C37.7445 14.4562 37.4122 14.1028 37.2044 14.1028H32.0729C31.8648 14.1028 31.5329 14.4562 31.4646 15.0315L31.1497 17.6964C31.0543 18.5034 30.4957 19.18 29.7212 19.4264C28.8542 19.7021 28.0047 20.0543 27.1973 20.4727C26.475 20.8468 25.6013 20.7636 24.963 20.2603L22.8546 18.598C22.3996 18.2395 21.9153 18.2241 21.7681 18.3713L18.1395 22C17.9925 22.147 18.0074 22.6314 18.3662 23.0865L20.0282 25.1949C20.5317 25.8334 20.6147 26.7073 20.2406 27.4292C19.8218 28.2378 19.4694 29.0873 19.1937 29.9541C18.9475 30.7286 18.2709 31.2872 17.4639 31.3826L14.7988 31.6977C14.2237 31.7659 13.8703 32.0979 13.8703 32.306V37.4377C13.8703 37.6457 14.2235 37.9776 14.7988 38.0459L17.4639 38.361C18.2707 38.4565 18.9473 39.0153 19.1935 39.7896C19.4694 40.6572 19.8216 41.5067 20.2402 42.3147C20.6143 43.0366 20.5311 43.9105 20.0278 44.549L18.3655 46.6572C18.007 47.112 17.9917 47.5967 18.1389 47.7439L21.7673 51.3725C21.9145 51.5195 22.3989 51.5044 22.8538 51.1458L24.962 49.4836C25.3346 49.1896 25.7878 49.0389 26.2441 49.0389C26.569 49.0389 26.8956 49.1153 27.1961 49.271C28.0045 49.6898 28.8544 50.042 29.7212 50.3177C30.4957 50.5639 31.0543 51.2407 31.1497 52.0477L31.4646 54.7128C31.5327 55.2879 31.8648 55.6413 32.0729 55.6413H37.2044C37.4124 55.6413 37.7445 55.2879 37.8126 54.7126L38.1277 52.0477C38.2232 51.2407 38.7817 50.5641 39.556 50.3179C40.4237 50.042 41.2738 49.6896 42.0818 49.271C42.8039 48.8973 43.6776 48.9801 44.3161 49.4834L46.4245 51.1454C46.8789 51.5038 47.3638 51.5191 47.5112 51.3721L51.1394 47.7437C51.2866 47.5965 51.2715 47.1118 50.9127 46.6568L49.2505 44.5488C48.747 43.9105 48.6639 43.0364 49.0381 42.3145C49.4565 41.5067 49.8088 40.657 50.0848 39.7893C50.331 39.0151 51.0075 38.4563 51.8143 38.3608L54.4795 38.0457ZM34.6392 24.3986C28.8639 24.3986 24.1655 29.097 24.1655 34.8723C24.1655 40.6477 28.8639 45.3461 34.6392 45.3461C40.4144 45.3461 45.1132 40.6475 45.1132 34.8723C45.1132 29.0972 40.4146 24.3986 34.6392 24.3986ZM34.6392 41.2054C31.1472 41.2054 28.3061 38.3643 28.3061 34.8723C28.3061 31.3804 31.1472 28.5393 34.6392 28.5393C38.1314 28.5393 40.9723 31.3801 40.9725 34.8723C40.9725 38.3643 38.1314 41.2054 34.6392 41.2054ZM41 74C41 79.5229 36.5229 84 31 84C25.4772 84 21 79.5229 21 74C21 68.4771 25.4772 64 31 64C36.5229 64 41 68.4771 41 74Z" fill="#EE2970"/>
</svg>
