<svg width="60" height="60" viewBox="0 0 60 60" fill="none" xmlns="http://www.w3.org/2000/svg">
<rect width="60" height="60" rx="14" fill="#EE2970"/>
<path opacity="0.4" d="M16.1461 20.6437H34.709C35.5678 20.6437 36.2648 21.3406 36.2648 22.1994C36.2648 23.0581 35.5678 23.7551 34.709 23.7551H16.1461C15.2874 23.7551 14.5904 23.0581 14.5904 22.1994C14.5904 21.3406 15.2874 20.6437 16.1461 20.6437Z" fill="white"/>
<mask id="mask0_385_810" style="mask-type:alpha" maskUnits="userSpaceOnUse" x="33" y="14" width="14" height="17">
<path fill-rule="evenodd" clip-rule="evenodd" d="M33.1537 30.7534V14H46.5401V30.7534H33.1537Z" fill="white"/>
</mask>
<g mask="url(#mask0_385_810)">
<path d="M34.2044 14.1431C34.4005 14.1431 34.5938 14.1977 34.7647 14.3042L45.8821 21.31C46.1874 21.5033 46.3738 21.8381 46.3738 22.1995C46.3738 22.5609 46.1874 22.8958 45.8821 23.0891L34.7647 30.0949C34.4411 30.298 34.032 30.3107 33.6972 30.1243C33.361 29.9394 33.1537 29.5878 33.1537 29.2054V15.1937C33.1537 14.8113 33.361 14.4597 33.6972 14.2747C33.8555 14.1865 34.0306 14.1431 34.2044 14.1431Z" fill="white"/>
</g>
<path opacity="0.4" d="M44.6705 39.0216H26.1076C25.2488 39.0216 24.5518 38.3246 24.5518 37.4659C24.5518 36.6071 25.2488 35.9102 26.1076 35.9102H44.6705C45.5292 35.9102 46.2262 36.6071 46.2262 37.4659C46.2262 38.3246 45.5292 39.0216 44.6705 39.0216Z" fill="white"/>
<mask id="mask1_385_810" style="mask-type:alpha" maskUnits="userSpaceOnUse" x="14" y="28" width="14" height="18">
<path fill-rule="evenodd" clip-rule="evenodd" d="M27.6629 28.9119V45.6652H14.2765V28.9119H27.6629Z" fill="white"/>
</mask>
<g mask="url(#mask1_385_810)">
<path d="M26.6123 45.5222C26.4161 45.5222 26.2229 45.4676 26.052 45.3611L14.9345 38.3553C14.6291 38.162 14.4428 37.8272 14.4428 37.4657C14.4428 37.1044 14.6291 36.7695 14.9345 36.5762L26.052 29.5704C26.3755 29.3672 26.7846 29.3546 27.1194 29.5409C27.4556 29.7258 27.6629 30.0775 27.6629 30.4599V44.4716C27.6629 44.854 27.4556 45.2056 27.1194 45.3905C26.9611 45.4788 26.786 45.5222 26.6123 45.5222Z" fill="white"/>
</g>
</svg>
