<svg width="60" height="60" viewBox="0 0 60 60" fill="none" xmlns="http://www.w3.org/2000/svg">
<rect width="60" height="60" rx="14" fill="#EE2970"/>
<path fill-rule="evenodd" clip-rule="evenodd" d="M47.4514 23.2607H40.1556C36.7604 23.2666 34.0099 25.9484 34.0038 29.2588C33.9992 32.5766 36.7527 35.2703 40.1556 35.2748H47.4575V35.8019C47.4575 41.5894 43.949 45.0117 38.0116 45.0117H22.4475C16.5085 45.0117 13 41.5894 13 35.8019V23.1965C13 17.4089 16.5085 14 22.4475 14H38.0054C43.9429 14 47.4514 17.4089 47.4514 23.1965V23.2607ZM21.1657 23.2472H30.8827H30.8888H30.9011C31.6286 23.2442 32.2166 22.6663 32.2135 21.9556C32.2105 21.2463 31.6162 20.6729 30.8888 20.6759H21.1657C20.4428 20.6789 19.8563 21.2508 19.8532 21.9571C19.8502 22.6663 20.4382 23.2442 21.1657 23.2472Z" fill="white"/>
<path opacity="0.4" d="M37.1847 30.0171C37.545 31.6559 38.9818 32.8088 40.6222 32.7789H46.2214C46.9039 32.7789 47.4576 32.2136 47.4576 31.5149V27.1534C47.4561 26.4562 46.9039 25.8895 46.2214 25.8879H40.4904C38.6245 25.8939 37.1173 27.4427 37.1203 29.3514C37.1203 29.5748 37.1423 29.7982 37.1847 30.0171Z" fill="white"/>
<path d="M40.5658 31.0563C41.5173 31.0563 42.2887 30.285 42.2887 29.3335C42.2887 28.382 41.5173 27.6106 40.5658 27.6106C39.6143 27.6106 38.843 28.382 38.843 29.3335C38.843 30.285 39.6143 31.0563 40.5658 31.0563Z" fill="white"/>
</svg>
