<svg width="60" height="60" viewBox="0 0 60 60" fill="none" xmlns="http://www.w3.org/2000/svg">
<rect width="60" height="60" rx="14" fill="#EE2970"/>
<path opacity="0.4" d="M40.1154 9H20.3079C13.0897 9 9 13.0897 9 20.3078V40.0965C9 47.3147 13.0897 51.4044 20.3079 51.4044H40.1154C47.3336 51.4044 51.4044 47.3147 51.4044 40.0965V20.3078C51.4044 13.0897 47.3336 9 40.1154 9Z" fill="white"/>
<path d="M20.3826 24.6238C19.4215 24.6238 18.6299 25.4153 18.6299 26.3953V40.9636C18.6299 41.9248 19.4215 42.7163 20.3826 42.7163C21.3626 42.7163 22.1542 41.9248 22.1542 40.9636V26.3953C22.1542 25.4153 21.3626 24.6238 20.3826 24.6238Z" fill="white"/>
<path d="M30.2771 17.6692C29.3159 17.6692 28.5244 18.4607 28.5244 19.4408V40.9633C28.5244 41.9245 29.3159 42.7161 30.2771 42.7161C31.2571 42.7161 32.0486 41.9245 32.0486 40.9633V19.4408C32.0486 18.4607 31.2571 17.6692 30.2771 17.6692Z" fill="white"/>
<path d="M40.0397 32.313C39.0597 32.313 38.2681 33.1046 38.2681 34.0846V40.9635C38.2681 41.9247 39.0597 42.7162 40.0208 42.7162C41.0008 42.7162 41.7924 41.9247 41.7924 40.9635V34.0846C41.7924 33.1046 41.0008 32.313 40.0397 32.313Z" fill="white"/>
</svg>
