<svg width="60" height="60" viewBox="0 0 60 60" fill="none" xmlns="http://www.w3.org/2000/svg">
<rect width="60" height="60" rx="14" fill="#EE2970"/>
<path d="M39.0113 20.6678C37.2066 18.4818 34.7712 16.906 32.0376 16.1555C29.3041 15.405 26.4055 15.5163 23.7375 16.4744C21.0696 17.4324 18.7623 19.1904 17.1306 21.5084C15.4989 23.8265 14.6223 26.5915 14.6205 29.4262V33.1871" stroke="white" stroke-opacity="0.4" stroke-width="5" stroke-linecap="round" stroke-linejoin="round"/>
<path d="M18.9984 41.1722C20.8909 43.1776 23.342 44.5687 26.0341 45.1654C28.7262 45.762 31.5355 45.5367 34.0981 44.5187C36.6607 43.5006 38.8587 41.7367 40.4075 39.4554C41.9562 37.174 42.7845 34.4802 42.785 31.7227V29.2189" stroke="white" stroke-opacity="0.4" stroke-width="5" stroke-linecap="round" stroke-linejoin="round"/>
<path d="M20.8553 27.0271C20.8474 27.1779 20.7976 27.3244 20.7089 27.4515L14.8745 35.7168C14.7136 35.9438 14.4486 36.0736 14.1708 36.059C13.8929 36.0444 13.643 35.8877 13.5066 35.6451L8.56818 26.8152C8.42505 26.5583 8.43184 26.2433 8.58858 25.9933C8.7443 25.7423 9.023 25.597 9.31703 25.6124L20.0898 26.177C20.3839 26.1924 20.6459 26.366 20.7745 26.632C20.836 26.7572 20.8623 26.8936 20.8553 27.0271Z" fill="white"/>
<path d="M36.2316 34.553C36.2368 34.4041 36.2834 34.2588 36.3687 34.1319L41.9826 25.8767C42.1375 25.65 42.3967 25.5174 42.6711 25.527C42.9455 25.5366 43.1948 25.6869 43.3334 25.9239L48.3578 34.5505C48.5035 34.8016 48.5022 35.1125 48.3518 35.3618C48.2025 35.6121 47.9301 35.7602 47.6397 35.7501L37.0014 35.3786C36.7111 35.3685 36.4496 35.2017 36.3181 34.9415C36.2553 34.819 36.2269 34.6849 36.2316 34.553Z" fill="white"/>
</svg>
