<svg width="35" height="32" viewBox="0 0 35 32" fill="none" xmlns="http://www.w3.org/2000/svg">
<path fill-rule="evenodd" clip-rule="evenodd" d="M34.4514 9.97896H27.1556C23.7604 9.98488 21.0099 12.6666 21.0038 15.977C20.9992 19.2949 23.7527 21.9886 27.1556 21.993H34.4575V22.5202C34.4575 28.3077 30.949 31.73 25.0116 31.73H9.44752C3.50854 31.73 0 28.3077 0 22.5202V9.91472C0 4.12718 3.50854 0.718262 9.44752 0.718262H25.0054C30.9429 0.718262 34.4514 4.12718 34.4514 9.91472V9.97896ZM8.16568 9.96544H17.8827H17.8888H17.9011C18.6286 9.96248 19.2166 9.38456 19.2135 8.67384C19.2105 7.96458 18.6162 7.3912 17.8888 7.39418H8.16568C7.44285 7.39717 6.8563 7.96906 6.85324 8.67536C6.85018 9.38456 7.43825 9.96248 8.16568 9.96544Z" fill="white"/>
<path opacity="0.4" d="M24.1847 16.7353C24.545 18.3741 25.9818 19.5271 27.6222 19.4972H33.2214C33.9039 19.4972 34.4576 18.9319 34.4576 18.2332V13.8716C34.4561 13.1744 33.9039 12.6077 33.2214 12.6062H27.4904C25.6245 12.6122 24.1173 14.161 24.1203 16.0696C24.1203 16.2931 24.1423 16.5164 24.1847 16.7353Z" fill="white"/>
<path d="M27.5658 17.7746C28.5173 17.7746 29.2887 17.0032 29.2887 16.0517C29.2887 15.1002 28.5173 14.3289 27.5658 14.3289C26.6143 14.3289 25.843 15.1002 25.843 16.0517C25.843 17.0032 26.6143 17.7746 27.5658 17.7746Z" fill="white"/>
</svg>
